<svg xmlns="http://www.w3.org/2000/svg" xmlns:xlink="http://www.w3.org/1999/xlink" viewBox="0 0 690.81 389.951">
  <defs>
    <style>
      .a, .b, .c, .cb, .d, .fw, .fx {
        fill: none;
      }

      .a {
        clip-rule: evenodd;
      }

      .b, .c, .cb, .ft, .fw {
        stroke: #1d1d1b;
      }

      .b {
        stroke-linecap: round;
      }

      .b, .c, .cb, .d, .ft, .fv, .fw, .fx {
        stroke-miterlimit: 11.474;
      }

      .b, .fw {
        stroke-width: 2.02px;
      }

      .c, .d, .ft, .fv {
        stroke-width: 0.22px;
      }

      .d, .fx {
        stroke: #9d9d9c;
      }

      .e {
        clip-path: url(#a);
      }

      .f {
        fill: #ededed;
      }

      .g {
        fill: #ececec;
      }

      .h {
        fill: #ebebeb;
      }

      .i {
        fill: #ebebea;
      }

      .j {
        fill: #eaeaea;
      }

      .k {
        fill: #e9e9e9;
      }

      .l {
        fill: #e9e9e8;
      }

      .m {
        fill: #e8e8e8;
      }

      .n {
        fill: #e7e7e7;
      }

      .o {
        fill: #e7e6e6;
      }

      .p {
        fill: #e6e6e6;
      }

      .q {
        fill: #e6e6e5;
      }

      .r {
        fill: #e5e5e5;
      }

      .s {
        fill: #e4e4e4;
      }

      .t {
        fill: #e4e4e3;
      }

      .u {
        fill: #e3e3e3;
      }

      .v {
        fill: #e2e2e2;
      }

      .w {
        fill: #e2e2e1;
      }

      .x {
        fill: #e1e1e1;
      }

      .y {
        fill: #e0e0e0;
      }

      .z {
        fill: #e0dfdf;
      }

      .aa {
        fill: #dfdfdf;
      }

      .ab {
        fill: #dfdfde;
      }

      .ac {
        fill: #dedede;
      }

      .ad {
        fill: #dedddd;
      }

      .ae {
        fill: #ddd;
      }

      .af {
        fill: #dddddc;
      }

      .ag {
        fill: #dcdcdc;
      }

      .ah {
        fill: #dbdbdb;
      }

      .ai {
        fill: #dbdada;
      }

      .aj {
        fill: #dadada;
      }

      .ak {
        fill: #dadad9;
      }

      .al {
        fill: #d9d9d9;
      }

      .am {
        fill: #d9d9d8;
      }

      .an {
        fill: #d8d8d8;
      }

      .ao {
        fill: #d8d7d7;
      }

      .ap {
        fill: #d7d7d7;
      }

      .aq {
        fill: #d7d6d6;
      }

      .ar {
        fill: #d6d6d6;
      }

      .as {
        fill: #d6d6d5;
      }

      .at {
        fill: #d5d5d5;
      }

      .au {
        fill: #d5d5d4;
      }

      .av {
        fill: #d4d4d4;
      }

      .aw {
        fill: #d4d4d3;
      }

      .ax {
        fill: #d3d3d3;
      }

      .ay {
        fill: #d3d2d2;
      }

      .az {
        fill: #d2d2d2;
      }

      .ba {
        fill: #d2d1d1;
      }

      .bb {
        fill: #d1d1d1;
      }

      .bc {
        fill: #d1d1d0;
      }

      .bd {
        fill: #d0d0d0;
      }

      .be {
        fill: #d0d0cf;
      }

      .bf {
        fill: #cfcfcf;
      }

      .bg {
        fill: #cfcfce;
      }

      .bh {
        fill: #cecece;
      }

      .bi {
        fill: #cececd;
      }

      .bj {
        fill: #cecdcd;
      }

      .bk {
        fill: #cdcdcd;
      }

      .bl {
        fill: #cdcccc;
      }

      .bm {
        fill: #ccc;
      }

      .bn {
        fill: #cccccb;
      }

      .bo {
        fill: #cbcbcb;
      }

      .bp {
        fill: #cbcbca;
      }

      .bq {
        fill: #cacaca;
      }

      .br {
        fill: #cacac9;
      }

      .bs {
        fill: #c9c9c9;
      }

      .bt {
        fill: #c9c9c8;
      }

      .bu {
        fill: #c9c8c8;
      }

      .bv {
        fill: #c8c8c8;
      }

      .bw {
        fill: #c8c7c7;
      }

      .bx {
        fill: #c7c7c7;
      }

      .by {
        fill: #c7c7c6;
      }

      .bz {
        fill: #c6c6c6;
      }

      .ca {
        clip-path: url(#b);
      }

      .cb, .fx {
        stroke-width: 1.01px;
      }

      .cc {
        clip-path: url(#c);
      }

      .cd {
        fill: #c5c5c5;
      }

      .ce {
        fill: #c4c4c4;
      }

      .cf {
        fill: #c3c3c3;
      }

      .cg {
        fill: #c2c2c2;
      }

      .ch {
        fill: #c1c1c1;
      }

      .ci {
        fill: #c0c0bf;
      }

      .cj {
        fill: #bfbfbe;
      }

      .ck {
        fill: #bebebd;
      }

      .cl {
        fill: #bdbcbc;
      }

      .cm {
        fill: #bbb;
      }

      .cn {
        fill: #bababa;
      }

      .co {
        fill: #b9b9b9;
      }

      .cp {
        fill: #b8b8b8;
      }

      .cq {
        fill: #b7b7b7;
      }

      .cr {
        fill: #b6b6b5;
      }

      .cs {
        fill: #b5b5b4;
      }

      .ct {
        fill: #b4b4b3;
      }

      .cu {
        fill: #b3b2b2;
      }

      .cv {
        fill: #b1b1b1;
      }

      .cw {
        fill: #b0b0b0;
      }

      .cx {
        fill: #afafaf;
      }

      .cy {
        fill: #aeaead;
      }

      .cz {
        fill: #adadac;
      }

      .da {
        fill: #acabab;
      }

      .db {
        fill: #aaa;
      }

      .dc {
        fill: #a9a9a9;
      }

      .dd {
        fill: #a8a8a8;
      }

      .de {
        fill: #a7a7a6;
      }

      .df {
        fill: #a6a6a5;
      }

      .dg {
        fill: #a5a4a4;
      }

      .dh {
        fill: #a3a3a3;
      }

      .di {
        fill: #a2a2a2;
      }

      .dj {
        fill: #a1a1a0;
      }

      .dk {
        fill: #a0a09f;
      }

      .dl {
        fill: #9f9e9e;
      }

      .dm {
        fill: #9d9d9d;
      }

      .dn {
        fill: #9c9c9c;
      }

      .do {
        fill: #9b9b9a;
      }

      .dp {
        fill: #9a9a99;
      }

      .dq {
        fill: #999898;
      }

      .dr {
        fill: #979797;
      }

      .ds {
        fill: #969696;
      }

      .dt {
        fill: #959594;
      }

      .du {
        fill: #949493;
      }

      .dv {
        fill: #939392;
      }

      .dw {
        fill: #929191;
      }

      .dx {
        fill: #909090;
      }

      .dy {
        fill: #8f8f8f;
      }

      .dz {
        fill: #8e8e8d;
      }

      .ea {
        fill: #8d8d8c;
      }

      .eb {
        fill: #8c8b8b;
      }

      .ec {
        fill: #8a8a8a;
      }

      .ed {
        fill: #898988;
      }

      .ee {
        fill: #888887;
      }

      .ef {
        fill: #878686;
      }

      .eg {
        fill: #858585;
      }

      .eh {
        fill: #848483;
      }

      .ei {
        fill: #838382;
      }

      .ej {
        fill: #828181;
      }

      .ek {
        fill: gray;
      }

      .el {
        fill: #7f7f7e;
      }

      .em {
        fill: #7e7d7d;
      }

      .en {
        fill: #7c7c7c;
      }

      .eo {
        fill: #7b7b7a;
      }

      .ep {
        fill: #7a7a79;
      }

      .eq {
        fill: #787878;
      }

      .er {
        fill: #777776;
      }

      .es {
        fill: #767675;
      }

      .et {
        fill: #747474;
      }

      .eu {
        fill: #737372;
      }

      .ev {
        fill: #727171;
      }

      .ew {
        fill: #707070;
      }

      .ex {
        fill: #6f6f6e;
      }

      .ey {
        fill: #6e6d6d;
      }

      .ez {
        fill: #6c6c6b;
      }

      .fa {
        fill: #6b6b6a;
      }

      .fb {
        fill: #6a6969;
      }

      .fc {
        fill: #686867;
      }

      .fd {
        fill: #676766;
      }

      .fe {
        fill: #666565;
      }

      .ff {
        fill: #646463;
      }

      .fg {
        fill: #636362;
      }

      .fh {
        fill: #626161;
      }

      .fi {
        fill: #606060;
      }

      .fj {
        fill: #5f5f5e;
      }

      .fk {
        fill: #5e5e5d;
      }

      .fl {
        fill: #5c5c5b;
      }

      .fm {
        fill: #5b5b5a;
      }

      .fn {
        fill: #5a5959;
      }

      .fo {
        fill: #585857;
      }

      .fp {
        fill: #575756;
      }

      .fq {
        fill: #565555;
      }

      .fr {
        fill: #545453;
      }

      .fs {
        fill: #535252;
      }

      .ft, .fy, .fz, .ga, .gb {
        fill: #1d1d1b;
      }

      .ft, .fu, .fv {
        fill-rule: evenodd;
      }

      .fu, .fv {
        fill: #fff;
      }

      .fv {
        stroke: #fff;
      }

      .fy {
        font-size: 5.975px;
      }

      .fy, .fz, .ga, .gb {
        font-family: AvantGarde Book;
      }

      .fz {
        font-size: 5.975px;
      }

      .ga {
        font-size: 5.975px;
      }

      .gb {
        font-size: 10.005px;
      }
    </style>
    <clipPath id="a" transform="translate(249.513 -132.059)">
      <polygon class="a" points="279.23 395.79 351.23 395.79 351.23 486.01 279.23 486.01 279.23 395.79 279.23 395.79"/>
    </clipPath>
    <clipPath id="b" transform="translate(249.513 -132.059)">
      <polygon class="a" points="279.23 306.01 351.23 306.01 351.23 395.79 279.23 395.79 279.23 306.01 279.23 306.01"/>
    </clipPath>
    <clipPath id="c" transform="translate(249.513 -132.059)">
      <path class="a" d="M405.52,409.26c9.29-8.86,8.42-18.07-.72-27.07a18.788,18.788,0,0,0-3.1,4.1c6.41,5.83,7.99,12.89,1.08,18.79,0.87,1.44,1.8,2.81,2.74,4.18h0Z"/>
    </clipPath>
  </defs>
  <title>mixerm-oneside</title>
  <g>
    <path class="b" d="M351.23,432.01v71.93m0-215.93v72" transform="translate(249.513 -132.059)"/>
    <path class="c" d="M186.35,360.66c-3.31,0-6.12-4.03-6.12-9.15,0-5.04,2.81-9.07,6.12-9.07m0,0h18.14m-18.14,18.22h18.14m0-18.22c3.32,0,6.12,4.11,6.12,9.15s-2.8,9.14-6.12,9.14-6.04-4.1-6.04-9.14,2.73-9.15,6.04-9.15h0Zm-8.85,140.11c-3.1,1.23-7.13-1.58-8.93-6.26-1.87-4.75-.72-9.5,2.38-10.73m0,0,16.99-6.48m-10.44,23.47,16.99-6.48m-6.55-16.99c3.02-1.22,7.13,1.66,8.93,6.34,1.8,4.75.64,9.5-2.38,10.73-3.1,1.15-7.13-1.66-8.93-6.41-1.8-4.68-.72-9.51,2.38-10.66h0Z" transform="translate(249.513 -132.059)"/>
    <path class="d" d="M196.43,397.74" transform="translate(249.513 -132.059)"/>
    <path class="d" d="M185.85,442.88m2.16,18.07,15.84-20.23-18,2.16,20.16,15.91-18,2.16" transform="translate(249.513 -132.059)"/>
    <path class="c" d="M191.61,384.06c-3.17.86-6.92-2.45-8.21-7.27-1.23-4.9.36-9.51,3.53-10.37m0,0.07,17.56-4.68m-12.88,22.25,17.56-4.68m-22.03-43.13c-3.17-.86-4.75-5.4-3.45-10.3s5.04-8.13,8.2-7.27m0,0,17.57,4.75m-22.32,12.82L204.71,341m4.75-17.57c3.17,0.87,4.83,5.55,3.53,10.44-1.3,4.83-5.11,8.07-8.28,7.2s-4.75-5.54-3.46-10.36c1.3-4.9,5.04-8.14,8.21-7.28h0Z" transform="translate(249.513 -132.059)"/>
    <g class="e">
      <polyline class="f" points="483.633 308.841 564.743 227.731 564.743 227.731 483.633 308.841 483.633 308.841"/>
      <polyline class="f" points="483.633 308.841 564.743 227.731 565.376 228.365 484.266 309.475 483.633 308.841"/>
      <polyline class="g" points="484.266 309.475 565.376 228.365 566.01 228.999 484.9 310.109 484.266 309.475"/>
      <polyline class="g" points="484.9 310.109 566.01 228.999 566.644 229.632 485.534 310.742 484.9 310.109"/>
      <polyline class="g" points="485.534 310.742 566.644 229.632 567.277 230.266 486.167 311.376 485.534 310.742"/>
      <polyline class="h" points="486.167 311.376 567.277 230.266 567.911 230.9 486.801 312.01 486.167 311.376"/>
      <polyline class="h" points="486.801 312.01 567.911 230.9 568.545 231.533 487.435 312.643 486.801 312.01"/>
      <polyline class="h" points="487.435 312.643 568.545 231.533 569.178 232.167 488.068 313.277 487.435 312.643"/>
      <polyline class="i" points="488.068 313.277 569.178 232.167 569.812 232.801 488.702 313.911 488.068 313.277"/>
      <polyline class="j" points="488.702 313.911 569.812 232.801 570.446 233.434 489.336 314.544 488.702 313.911"/>
      <polyline class="j" points="489.336 314.544 570.446 233.434 571.079 234.068 489.969 315.178 489.336 314.544"/>
      <polyline class="j" points="489.969 315.178 571.079 234.068 571.713 234.702 490.603 315.812 489.969 315.178"/>
      <polyline class="k" points="490.603 315.812 571.713 234.702 572.347 235.336 491.237 316.445 490.603 315.812"/>
      <polyline class="k" points="491.237 316.445 572.347 235.336 572.98 235.969 491.87 317.079 491.237 316.445"/>
      <polyline class="k" points="491.87 317.079 572.98 235.969 573.614 236.603 492.504 317.713 491.87 317.079"/>
      <polyline class="l" points="492.504 317.713 573.614 236.603 574.248 237.237 493.138 318.346 492.504 317.713"/>
      <polyline class="m" points="493.138 318.346 574.248 237.237 574.881 237.87 493.771 318.98 493.138 318.346"/>
      <polyline class="m" points="493.771 318.98 574.881 237.87 575.515 238.504 494.405 319.614 493.771 318.98"/>
      <polyline class="m" points="494.405 319.614 575.515 238.504 576.149 239.138 495.039 320.247 494.405 319.614"/>
      <polyline class="n" points="495.039 320.247 576.149 239.138 576.782 239.771 495.672 320.881 495.039 320.247"/>
      <polyline class="n" points="495.672 320.881 576.782 239.771 577.416 240.405 496.306 321.515 495.672 320.881"/>
      <polyline class="n" points="496.306 321.515 577.416 240.405 578.05 241.039 496.94 322.149 496.306 321.515"/>
      <polyline class="o" points="496.94 322.149 578.05 241.039 578.684 241.672 497.573 322.782 496.94 322.149"/>
      <polyline class="p" points="497.573 322.782 578.684 241.672 579.317 242.306 498.207 323.416 497.573 322.782"/>
      <polyline class="p" points="498.207 323.416 579.317 242.306 579.951 242.94 498.841 324.05 498.207 323.416"/>
      <polyline class="q" points="498.841 324.05 579.951 242.94 580.585 243.573 499.475 324.683 498.841 324.05"/>
      <polyline class="r" points="499.475 324.683 580.585 243.573 581.218 244.207 500.108 325.317 499.475 324.683"/>
      <polyline class="r" points="500.108 325.317 581.218 244.207 581.852 244.841 500.742 325.951 500.108 325.317"/>
      <polyline class="r" points="500.742 325.951 581.852 244.841 582.486 245.474 501.376 326.584 500.742 325.951"/>
      <polyline class="s" points="501.376 326.584 582.486 245.474 583.119 246.108 502.009 327.218 501.376 326.584"/>
      <polyline class="s" points="502.009 327.218 583.119 246.108 583.753 246.742 502.643 327.852 502.009 327.218"/>
      <polyline class="s" points="502.643 327.852 583.753 246.742 584.387 247.375 503.277 328.485 502.643 327.852"/>
      <polyline class="t" points="503.277 328.485 584.387 247.375 585.02 248.009 503.91 329.119 503.277 328.485"/>
      <polyline class="u" points="503.91 329.119 585.02 248.009 585.654 248.643 504.544 329.753 503.91 329.119"/>
      <polyline class="u" points="504.544 329.753 585.654 248.643 586.288 249.276 505.178 330.386 504.544 329.753"/>
      <polyline class="u" points="505.178 330.386 586.288 249.276 586.921 249.91 505.811 331.02 505.178 330.386"/>
      <polyline class="v" points="505.811 331.02 586.921 249.91 587.555 250.544 506.445 331.654 505.811 331.02"/>
      <polyline class="v" points="506.445 331.654 587.555 250.544 588.189 251.177 507.079 332.287 506.445 331.654"/>
      <polyline class="v" points="507.079 332.287 588.189 251.177 588.822 251.811 507.712 332.921 507.079 332.287"/>
      <polyline class="w" points="507.712 332.921 588.822 251.811 589.456 252.445 508.346 333.555 507.712 332.921"/>
      <polyline class="x" points="508.346 333.555 589.456 252.445 590.09 253.078 508.98 334.188 508.346 333.555"/>
      <polyline class="x" points="508.98 334.188 590.09 253.078 590.723 253.712 509.613 334.822 508.98 334.188"/>
      <polyline class="x" points="509.613 334.822 590.723 253.712 591.357 254.346 510.247 335.456 509.613 334.822"/>
      <polyline class="y" points="510.247 335.456 591.357 254.346 591.991 254.979 510.881 336.089 510.247 335.456"/>
      <polyline class="y" points="510.881 336.089 591.991 254.979 592.624 255.613 511.514 336.723 510.881 336.089"/>
      <polyline class="y" points="511.514 336.723 592.624 255.613 593.258 256.247 512.148 337.357 511.514 336.723"/>
      <polyline class="z" points="512.148 337.357 593.258 256.247 593.892 256.88 512.782 337.99 512.148 337.357"/>
      <polyline class="aa" points="512.782 337.99 593.892 256.88 594.525 257.514 513.415 338.624 512.782 337.99"/>
      <polyline class="aa" points="513.415 338.624 594.525 257.514 595.159 258.148 514.049 339.258 513.415 338.624"/>
      <polyline class="ab" points="514.049 339.258 595.159 258.148 595.793 258.781 514.683 339.891 514.049 339.258"/>
      <polyline class="ac" points="514.683 339.891 595.793 258.781 596.426 259.415 515.316 340.525 514.683 339.891"/>
      <polyline class="ac" points="515.316 340.525 596.426 259.415 597.06 260.049 515.95 341.159 515.316 340.525"/>
      <polyline class="ac" points="515.95 341.159 597.06 260.049 597.694 260.682 516.584 341.792 515.95 341.159"/>
      <polyline class="ad" points="516.584 341.792 597.694 260.682 598.327 261.316 517.217 342.426 516.584 341.792"/>
      <polyline class="ae" points="517.217 342.426 598.327 261.316 598.961 261.95 517.851 343.06 517.217 342.426"/>
      <polyline class="ae" points="517.851 343.06 598.961 261.95 599.595 262.583 518.485 343.693 517.851 343.06"/>
      <polyline class="af" points="518.485 343.693 599.595 262.583 600.228 263.217 519.118 344.327 518.485 343.693"/>
      <polyline class="ag" points="519.118 344.327 600.228 263.217 600.862 263.851 519.752 344.961 519.118 344.327"/>
      <polyline class="ag" points="519.752 344.961 600.862 263.851 601.496 264.484 520.386 345.594 519.752 344.961"/>
      <polyline class="ag" points="520.386 345.594 601.496 264.484 602.129 265.118 521.019 346.228 520.386 345.594"/>
      <polyline class="ah" points="521.019 346.228 602.129 265.118 602.763 265.752 521.653 346.862 521.019 346.228"/>
      <polyline class="ah" points="521.653 346.862 602.763 265.752 603.397 266.385 522.287 347.495 521.653 346.862"/>
      <polyline class="ah" points="522.287 347.495 603.397 266.385 604.03 267.019 522.92 348.129 522.287 347.495"/>
      <polyline class="ai" points="522.92 348.129 604.03 267.019 604.664 267.653 523.554 348.763 522.92 348.129"/>
      <polyline class="aj" points="523.554 348.763 604.664 267.653 605.298 268.286 524.188 349.396 523.554 348.763"/>
      <polyline class="aj" points="524.188 349.396 605.298 268.286 605.931 268.92 524.821 350.03 524.188 349.396"/>
      <polyline class="ak" points="524.821 350.03 605.931 268.92 606.565 269.554 525.455 350.664 524.821 350.03"/>
      <polyline class="al" points="525.455 350.664 606.565 269.554 607.199 270.187 526.089 351.297 525.455 350.664"/>
      <polyline class="al" points="526.089 351.297 607.199 270.187 607.832 270.821 526.722 351.931 526.089 351.297"/>
      <polyline class="am" points="526.722 351.931 607.832 270.821 608.466 271.455 527.356 352.565 526.722 351.931"/>
      <polyline class="an" points="527.356 352.565 608.466 271.455 609.1 272.088 527.99 353.198 527.356 352.565"/>
      <polyline class="an" points="527.99 353.198 609.1 272.088 609.733 272.722 528.623 353.832 527.99 353.198"/>
      <polyline class="an" points="528.623 353.832 609.733 272.722 610.367 273.356 529.257 354.466 528.623 353.832"/>
      <polyline class="ao" points="529.257 354.466 610.367 273.356 611.001 273.989 529.891 355.099 529.257 354.466"/>
      <polyline class="ap" points="529.891 355.099 611.001 273.989 611.634 274.623 530.524 355.733 529.891 355.099"/>
      <polyline class="ap" points="530.524 355.733 611.634 274.623 612.268 275.257 531.158 356.367 530.524 355.733"/>
      <polyline class="aq" points="531.158 356.367 612.268 275.257 612.902 275.89 531.792 357 531.158 356.367"/>
      <polyline class="ar" points="531.792 357 612.902 275.89 613.535 276.524 532.425 357.634 531.792 357"/>
      <polyline class="ar" points="532.425 357.634 613.535 276.524 614.169 277.158 533.059 358.268 532.425 357.634"/>
      <polyline class="as" points="533.059 358.268 614.169 277.158 614.803 277.791 533.693 358.901 533.059 358.268"/>
      <polyline class="at" points="533.693 358.901 614.803 277.791 615.436 278.425 534.326 359.535 533.693 358.901"/>
      <polyline class="at" points="534.326 359.535 615.436 278.425 616.07 279.059 534.96 360.169 534.326 359.535"/>
      <polyline class="au" points="534.96 360.169 616.07 279.059 616.704 279.692 535.594 360.802 534.96 360.169"/>
      <polyline class="av" points="535.594 360.802 616.704 279.692 617.337 280.326 536.227 361.436 535.594 360.802"/>
      <polyline class="av" points="536.227 361.436 617.337 280.326 617.971 280.96 536.861 362.07 536.227 361.436"/>
      <polyline class="aw" points="536.861 362.07 617.971 280.96 618.605 281.593 537.495 362.703 536.861 362.07"/>
      <polyline class="ax" points="537.495 362.703 618.605 281.593 619.238 282.227 538.128 363.337 537.495 362.703"/>
      <polyline class="ax" points="538.128 363.337 619.238 282.227 619.872 282.861 538.762 363.971 538.128 363.337"/>
      <polyline class="ax" points="538.762 363.971 619.872 282.861 620.506 283.494 539.396 364.604 538.762 363.971"/>
      <polyline class="ay" points="539.396 364.604 620.506 283.494 621.139 284.128 540.03 365.238 539.396 364.604"/>
      <polyline class="az" points="540.03 365.238 621.139 284.128 621.773 284.762 540.663 365.872 540.03 365.238"/>
      <polyline class="az" points="540.663 365.872 621.773 284.762 622.407 285.395 541.297 366.505 540.663 365.872"/>
      <polyline class="ba" points="541.297 366.505 622.407 285.395 623.04 286.029 541.931 367.139 541.297 366.505"/>
      <polyline class="bb" points="541.931 367.139 623.04 286.029 623.674 286.663 542.564 367.773 541.931 367.139"/>
      <polyline class="bb" points="542.564 367.773 623.674 286.663 624.308 287.296 543.198 368.407 542.564 367.773"/>
      <polyline class="bc" points="543.198 368.407 624.308 287.296 624.942 287.93 543.832 369.04 543.198 368.407"/>
      <polyline class="bd" points="543.832 369.04 624.942 287.93 625.575 288.564 544.465 369.674 543.832 369.04"/>
      <polyline class="bd" points="544.465 369.674 625.575 288.564 626.209 289.198 545.099 370.308 544.465 369.674"/>
      <polyline class="be" points="545.099 370.308 626.209 289.198 626.843 289.831 545.733 370.941 545.099 370.308"/>
      <polyline class="bf" points="545.733 370.941 626.843 289.831 627.476 290.465 546.366 371.575 545.733 370.941"/>
      <polyline class="bf" points="546.366 371.575 627.476 290.465 628.11 291.099 547 372.209 546.366 371.575"/>
      <polyline class="bg" points="547 372.209 628.11 291.099 628.744 291.732 547.634 372.842 547 372.209"/>
      <polyline class="bh" points="547.634 372.842 628.744 291.732 629.377 292.366 548.267 373.476 547.634 372.842"/>
      <polyline class="bh" points="548.267 373.476 629.377 292.366 630.011 293 548.901 374.11 548.267 373.476"/>
      <polyline class="bi" points="548.901 374.11 630.011 293 630.645 293.633 549.535 374.743 548.901 374.11"/>
      <polyline class="bj" points="549.535 374.743 630.645 293.633 631.278 294.267 550.168 375.377 549.535 374.743"/>
      <polyline class="bk" points="550.168 375.377 631.278 294.267 631.912 294.901 550.802 376.011 550.168 375.377"/>
      <polyline class="bk" points="550.802 376.011 631.912 294.901 632.546 295.534 551.436 376.644 550.802 376.011"/>
      <polyline class="bl" points="551.436 376.644 632.546 295.534 633.179 296.168 552.069 377.278 551.436 376.644"/>
      <polyline class="bm" points="552.069 377.278 633.179 296.168 633.813 296.802 552.703 377.912 552.069 377.278"/>
      <polyline class="bm" points="552.703 377.912 633.813 296.802 634.447 297.435 553.337 378.545 552.703 377.912"/>
      <polyline class="bn" points="553.337 378.545 634.447 297.435 635.08 298.069 553.97 379.179 553.337 378.545"/>
      <polyline class="bo" points="553.97 379.179 635.08 298.069 635.714 298.703 554.604 379.813 553.97 379.179"/>
      <polyline class="bo" points="554.604 379.813 635.714 298.703 636.348 299.336 555.238 380.446 554.604 379.813"/>
      <polyline class="bp" points="555.238 380.446 636.348 299.336 636.981 299.97 555.871 381.08 555.238 380.446"/>
      <polyline class="bq" points="555.871 381.08 636.981 299.97 637.615 300.604 556.505 381.714 555.871 381.08"/>
      <polyline class="bq" points="556.505 381.714 637.615 300.604 638.249 301.237 557.139 382.347 556.505 381.714"/>
      <polyline class="br" points="557.139 382.347 638.249 301.237 638.882 301.871 557.772 382.981 557.139 382.347"/>
      <polyline class="bs" points="557.772 382.981 638.882 301.871 639.516 302.505 558.406 383.615 557.772 382.981"/>
      <polyline class="bs" points="558.406 383.615 639.516 302.505 640.15 303.138 559.04 384.248 558.406 383.615"/>
      <polyline class="bt" points="559.04 384.248 640.15 303.138 640.783 303.772 559.673 384.882 559.04 384.248"/>
      <polyline class="bu" points="559.673 384.882 640.783 303.772 641.417 304.406 560.307 385.516 559.673 384.882"/>
      <polyline class="bv" points="560.307 385.516 641.417 304.406 642.051 305.039 560.941 386.149 560.307 385.516"/>
      <polyline class="bv" points="560.941 386.149 642.051 305.039 642.684 305.673 561.574 386.783 560.941 386.149"/>
      <polyline class="bw" points="561.574 386.783 642.684 305.673 643.318 306.307 562.208 387.417 561.574 386.783"/>
      <polyline class="bx" points="562.208 387.417 643.318 306.307 643.952 306.94 562.842 388.05 562.208 387.417"/>
      <polyline class="bx" points="562.842 388.05 643.952 306.94 644.585 307.574 563.475 388.684 562.842 388.05"/>
      <polyline class="by" points="563.475 388.684 644.585 307.574 645.219 308.208 564.109 389.318 563.475 388.684"/>
      <polyline class="bz" points="564.109 389.318 645.219 308.208 645.853 308.841 564.743 389.951 564.109 389.318"/>
      <polyline class="bz" points="564.743 389.951 645.853 308.841 645.853 308.841 564.743 389.951 564.743 389.951"/>
    </g>
    <polygon class="c" points="528.743 263.731 600.743 263.731 600.743 353.951 528.743 353.951 528.743 263.731 528.743 263.731"/>
    <g class="ca">
      <polyline class="f" points="564.743 299.731 483.853 218.841 483.853 218.841 564.743 299.731 564.743 299.731"/>
      <polyline class="f" points="564.743 299.731 483.853 218.841 484.485 218.21 565.375 299.1 564.743 299.731"/>
      <polyline class="g" points="565.375 299.1 484.485 218.21 485.117 217.578 566.007 298.468 565.375 299.1"/>
      <polyline class="g" points="566.007 298.468 485.117 217.578 485.749 216.946 566.639 297.836 566.007 298.468"/>
      <polyline class="g" points="566.639 297.836 485.749 216.946 486.381 216.314 567.271 297.204 566.639 297.836"/>
      <polyline class="h" points="567.271 297.204 486.381 216.314 487.012 215.682 567.902 296.572 567.271 297.204"/>
      <polyline class="h" points="567.902 296.572 487.012 215.682 487.644 215.05 568.534 295.94 567.902 296.572"/>
      <polyline class="h" points="568.534 295.94 487.644 215.05 488.276 214.418 569.166 295.308 568.534 295.94"/>
      <polyline class="i" points="569.166 295.308 488.276 214.418 488.908 213.786 569.798 294.676 569.166 295.308"/>
      <polyline class="j" points="569.798 294.676 488.908 213.786 489.54 213.154 570.43 294.044 569.798 294.676"/>
      <polyline class="j" points="570.43 294.044 489.54 213.154 490.172 212.522 571.062 293.412 570.43 294.044"/>
      <polyline class="j" points="571.062 293.412 490.172 212.522 490.804 211.89 571.694 292.78 571.062 293.412"/>
      <polyline class="k" points="571.694 292.78 490.804 211.89 491.436 211.258 572.326 292.148 571.694 292.78"/>
      <polyline class="k" points="572.326 292.148 491.436 211.258 492.068 210.626 572.958 291.516 572.326 292.148"/>
      <polyline class="k" points="572.958 291.516 492.068 210.626 492.7 209.994 573.59 290.884 572.958 291.516"/>
      <polyline class="l" points="573.59 290.884 492.7 209.994 493.332 209.362 574.222 290.252 573.59 290.884"/>
      <polyline class="m" points="574.222 290.252 493.332 209.362 493.964 208.73 574.854 289.62 574.222 290.252"/>
      <polyline class="m" points="574.854 289.62 493.964 208.73 494.596 208.098 575.486 288.988 574.854 289.62"/>
      <polyline class="m" points="575.486 288.988 494.596 208.098 495.228 207.466 576.118 288.356 575.486 288.988"/>
      <polyline class="n" points="576.118 288.356 495.228 207.466 495.86 206.834 576.75 287.724 576.118 288.356"/>
      <polyline class="n" points="576.75 287.724 495.86 206.834 496.492 206.202 577.382 287.092 576.75 287.724"/>
      <polyline class="n" points="577.382 287.092 496.492 206.202 497.124 205.57 578.014 286.46 577.382 287.092"/>
      <polyline class="o" points="578.014 286.46 497.124 205.57 497.756 204.938 578.646 285.828 578.014 286.46"/>
      <polyline class="p" points="578.646 285.828 497.756 204.938 498.388 204.306 579.278 285.196 578.646 285.828"/>
      <polyline class="p" points="579.278 285.196 498.388 204.306 499.02 203.675 579.91 284.565 579.278 285.196"/>
      <polyline class="q" points="579.91 284.565 499.02 203.675 499.652 203.043 580.542 283.933 579.91 284.565"/>
      <polyline class="r" points="580.542 283.933 499.652 203.043 500.284 202.411 581.173 283.301 580.542 283.933"/>
      <polyline class="r" points="581.173 283.301 500.284 202.411 500.915 201.779 581.805 282.669 581.173 283.301"/>
      <polyline class="r" points="581.805 282.669 500.915 201.779 501.547 201.147 582.437 282.037 581.805 282.669"/>
      <polyline class="s" points="582.437 282.037 501.547 201.147 502.179 200.515 583.069 281.405 582.437 282.037"/>
      <polyline class="s" points="583.069 281.405 502.179 200.515 502.811 199.883 583.701 280.773 583.069 281.405"/>
      <polyline class="s" points="583.701 280.773 502.811 199.883 503.443 199.251 584.333 280.141 583.701 280.773"/>
      <polyline class="t" points="584.333 280.141 503.443 199.251 504.075 198.619 584.965 279.509 584.333 280.141"/>
      <polyline class="u" points="584.965 279.509 504.075 198.619 504.707 197.987 585.597 278.877 584.965 279.509"/>
      <polyline class="u" points="585.597 278.877 504.707 197.987 505.339 197.355 586.229 278.245 585.597 278.877"/>
      <polyline class="u" points="586.229 278.245 505.339 197.355 505.971 196.723 586.861 277.613 586.229 278.245"/>
      <polyline class="v" points="586.861 277.613 505.971 196.723 506.603 196.091 587.493 276.981 586.861 277.613"/>
      <polyline class="v" points="587.493 276.981 506.603 196.091 507.235 195.459 588.125 276.349 587.493 276.981"/>
      <polyline class="v" points="588.125 276.349 507.235 195.459 507.867 194.827 588.757 275.717 588.125 276.349"/>
      <polyline class="w" points="588.757 275.717 507.867 194.827 508.499 194.195 589.389 275.085 588.757 275.717"/>
      <polyline class="x" points="589.389 275.085 508.499 194.195 509.131 193.563 590.021 274.453 589.389 275.085"/>
      <polyline class="x" points="590.021 274.453 509.131 193.563 509.763 192.931 590.653 273.821 590.021 274.453"/>
      <polyline class="x" points="590.653 273.821 509.763 192.931 510.395 192.299 591.285 273.19 590.653 273.821"/>
      <polyline class="y" points="591.285 273.19 510.395 192.299 511.027 191.668 591.917 272.558 591.285 273.19"/>
      <polyline class="y" points="591.917 272.558 511.027 191.668 511.659 191.036 592.549 271.926 591.917 272.558"/>
      <polyline class="y" points="592.549 271.926 511.659 191.036 512.291 190.404 593.181 271.294 592.549 271.926"/>
      <polyline class="z" points="593.181 271.294 512.291 190.404 512.923 189.772 593.813 270.662 593.181 271.294"/>
      <polyline class="aa" points="593.813 270.662 512.923 189.772 513.555 189.14 594.445 270.03 593.813 270.662"/>
      <polyline class="aa" points="594.445 270.03 513.555 189.14 514.187 188.508 595.077 269.398 594.445 270.03"/>
      <polyline class="ab" points="595.077 269.398 514.187 188.508 514.818 187.876 595.708 268.766 595.077 269.398"/>
      <polyline class="ac" points="595.708 268.766 514.818 187.876 515.45 187.244 596.34 268.134 595.708 268.766"/>
      <polyline class="ac" points="596.34 268.134 515.45 187.244 516.082 186.612 596.972 267.502 596.34 268.134"/>
      <polyline class="ac" points="596.972 267.502 516.082 186.612 516.714 185.98 597.604 266.87 596.972 267.502"/>
      <polyline class="ad" points="597.604 266.87 516.714 185.98 517.346 185.348 598.236 266.238 597.604 266.87"/>
      <polyline class="ae" points="598.236 266.238 517.346 185.348 517.978 184.716 598.868 265.606 598.236 266.238"/>
      <polyline class="ae" points="598.868 265.606 517.978 184.716 518.61 184.084 599.5 264.974 598.868 265.606"/>
      <polyline class="af" points="599.5 264.974 518.61 184.084 519.242 183.452 600.132 264.342 599.5 264.974"/>
      <polyline class="ag" points="600.132 264.342 519.242 183.452 519.874 182.82 600.764 263.71 600.132 264.342"/>
      <polyline class="ag" points="600.764 263.71 519.874 182.82 520.506 182.188 601.396 263.078 600.764 263.71"/>
      <polyline class="ag" points="601.396 263.078 520.506 182.188 521.138 181.556 602.028 262.446 601.396 263.078"/>
      <polyline class="ah" points="602.028 262.446 521.138 181.556 521.77 180.924 602.66 261.814 602.028 262.446"/>
      <polyline class="ah" points="602.66 261.814 521.77 180.924 522.402 180.292 603.292 261.182 602.66 261.814"/>
      <polyline class="ah" points="603.292 261.182 522.402 180.292 523.034 179.66 603.924 260.55 603.292 261.182"/>
      <polyline class="ai" points="603.924 260.55 523.034 179.661 523.666 179.029 604.556 259.919 603.924 260.55"/>
      <polyline class="aj" points="604.556 259.919 523.666 179.029 524.298 178.397 605.188 259.287 604.556 259.919"/>
      <polyline class="aj" points="605.188 259.287 524.298 178.397 524.93 177.765 605.82 258.655 605.188 259.287"/>
      <polyline class="ak" points="605.82 258.655 524.93 177.765 525.562 177.133 606.452 258.023 605.82 258.655"/>
      <polyline class="al" points="606.452 258.023 525.562 177.133 526.194 176.501 607.084 257.391 606.452 258.023"/>
      <polyline class="al" points="607.084 257.391 526.194 176.501 526.826 175.869 607.716 256.759 607.084 257.391"/>
      <polyline class="am" points="607.716 256.759 526.826 175.869 527.458 175.237 608.348 256.127 607.716 256.759"/>
      <polyline class="an" points="608.348 256.127 527.458 175.237 528.09 174.605 608.98 255.495 608.348 256.127"/>
      <polyline class="an" points="608.98 255.495 528.09 174.605 528.721 173.973 609.612 254.863 608.98 255.495"/>
      <polyline class="an" points="609.612 254.863 528.721 173.973 529.353 173.341 610.243 254.231 609.612 254.863"/>
      <polyline class="ao" points="610.243 254.231 529.353 173.341 529.985 172.709 610.875 253.599 610.243 254.231"/>
      <polyline class="ap" points="610.875 253.599 529.985 172.709 530.617 172.077 611.507 252.967 610.875 253.599"/>
      <polyline class="ap" points="611.507 252.967 530.617 172.077 531.249 171.445 612.139 252.335 611.507 252.967"/>
      <polyline class="aq" points="612.139 252.335 531.249 171.445 531.881 170.813 612.771 251.703 612.139 252.335"/>
      <polyline class="ar" points="612.771 251.703 531.881 170.813 532.513 170.181 613.403 251.071 612.771 251.703"/>
      <polyline class="ar" points="613.403 251.071 532.513 170.181 533.145 169.549 614.035 250.439 613.403 251.071"/>
      <polyline class="as" points="614.035 250.439 533.145 169.549 533.777 168.917 614.667 249.807 614.035 250.439"/>
      <polyline class="at" points="614.667 249.807 533.777 168.917 534.409 168.285 615.299 249.175 614.667 249.807"/>
      <polyline class="at" points="615.299 249.175 534.409 168.285 535.041 167.653 615.931 248.544 615.299 249.175"/>
      <polyline class="au" points="615.931 248.544 535.041 167.653 535.673 167.022 616.563 247.912 615.931 248.544"/>
      <polyline class="av" points="616.563 247.912 535.673 167.022 536.305 166.39 617.195 247.28 616.563 247.912"/>
      <polyline class="av" points="617.195 247.28 536.305 166.39 536.937 165.758 617.827 246.648 617.195 247.28"/>
      <polyline class="aw" points="617.827 246.648 536.937 165.758 537.569 165.126 618.459 246.016 617.827 246.648"/>
      <polyline class="ax" points="618.459 246.016 537.569 165.126 538.201 164.494 619.091 245.384 618.459 246.016"/>
      <polyline class="ax" points="619.091 245.384 538.201 164.494 538.833 163.862 619.723 244.752 619.091 245.384"/>
      <polyline class="ax" points="619.723 244.752 538.833 163.862 539.465 163.23 620.355 244.12 619.723 244.752"/>
      <polyline class="ay" points="620.355 244.12 539.465 163.23 540.097 162.598 620.987 243.488 620.355 244.12"/>
      <polyline class="az" points="620.987 243.488 540.097 162.598 540.729 161.966 621.619 242.856 620.987 243.488"/>
      <polyline class="az" points="621.619 242.856 540.729 161.966 541.361 161.334 622.251 242.224 621.619 242.856"/>
      <polyline class="ba" points="622.251 242.224 541.361 161.334 541.993 160.702 622.883 241.592 622.251 242.224"/>
      <polyline class="bb" points="622.883 241.592 541.993 160.702 542.625 160.07 623.515 240.96 622.883 241.592"/>
      <polyline class="bb" points="623.515 240.96 542.625 160.07 543.256 159.438 624.146 240.328 623.515 240.96"/>
      <polyline class="bc" points="624.146 240.328 543.256 159.438 543.888 158.806 624.778 239.696 624.146 240.328"/>
      <polyline class="bd" points="624.778 239.696 543.888 158.806 544.52 158.174 625.41 239.064 624.778 239.696"/>
      <polyline class="bd" points="625.41 239.064 544.52 158.174 545.152 157.542 626.042 238.432 625.41 239.064"/>
      <polyline class="be" points="626.042 238.432 545.152 157.542 545.784 156.91 626.674 237.8 626.042 238.432"/>
      <polyline class="bf" points="626.674 237.8 545.784 156.91 546.416 156.278 627.306 237.168 626.674 237.8"/>
      <polyline class="bf" points="627.306 237.168 546.416 156.278 547.048 155.646 627.938 236.536 627.306 237.168"/>
      <polyline class="bg" points="627.938 236.536 547.048 155.646 547.68 155.015 628.57 235.905 627.938 236.536"/>
      <polyline class="bh" points="628.57 235.905 547.68 155.015 548.312 154.383 629.202 235.273 628.57 235.905"/>
      <polyline class="bh" points="629.202 235.273 548.312 154.383 548.944 153.751 629.834 234.641 629.202 235.273"/>
      <polyline class="bi" points="629.834 234.641 548.944 153.751 549.576 153.119 630.466 234.009 629.834 234.641"/>
      <polyline class="bj" points="630.466 234.009 549.576 153.119 550.208 152.487 631.098 233.377 630.466 234.009"/>
      <polyline class="bk" points="631.098 233.377 550.208 152.487 550.84 151.855 631.73 232.745 631.098 233.377"/>
      <polyline class="bk" points="631.73 232.745 550.84 151.855 551.472 151.223 632.362 232.113 631.73 232.745"/>
      <polyline class="bl" points="632.362 232.113 551.472 151.223 552.104 150.591 632.994 231.481 632.362 232.113"/>
      <polyline class="bm" points="632.994 231.481 552.104 150.591 552.736 149.959 633.626 230.849 632.994 231.481"/>
      <polyline class="bm" points="633.626 230.849 552.736 149.959 553.368 149.327 634.258 230.217 633.626 230.849"/>
      <polyline class="bn" points="634.258 230.217 553.368 149.327 554 148.695 634.89 229.585 634.258 230.217"/>
      <polyline class="bo" points="634.89 229.585 554 148.695 554.632 148.063 635.522 228.953 634.89 229.585"/>
      <polyline class="bo" points="635.522 228.953 554.632 148.063 555.264 147.431 636.154 228.321 635.522 228.953"/>
      <polyline class="bp" points="636.154 228.321 555.264 147.431 555.896 146.799 636.786 227.689 636.154 228.321"/>
      <polyline class="bq" points="636.786 227.689 555.896 146.799 556.527 146.167 637.418 227.057 636.786 227.689"/>
      <polyline class="bq" points="637.418 227.057 556.527 146.167 557.159 145.535 638.049 226.425 637.418 227.057"/>
      <polyline class="br" points="638.049 226.425 557.159 145.535 557.791 144.903 638.681 225.793 638.049 226.425"/>
      <polyline class="bs" points="638.681 225.793 557.791 144.903 558.423 144.271 639.313 225.161 638.681 225.793"/>
      <polyline class="bs" points="639.313 225.161 558.423 144.271 559.055 143.639 639.945 224.529 639.313 225.161"/>
      <polyline class="bt" points="639.945 224.529 559.055 143.639 559.687 143.007 640.577 223.898 639.945 224.529"/>
      <polyline class="bu" points="640.577 223.898 559.687 143.007 560.319 142.376 641.209 223.266 640.577 223.898"/>
      <polyline class="bv" points="641.209 223.266 560.319 142.376 560.951 141.744 641.841 222.634 641.209 223.266"/>
      <polyline class="bv" points="641.841 222.634 560.951 141.744 561.583 141.112 642.473 222.002 641.841 222.634"/>
      <polyline class="bw" points="642.473 222.002 561.583 141.112 562.215 140.48 643.105 221.37 642.473 222.002"/>
      <polyline class="bx" points="643.105 221.37 562.215 140.48 562.847 139.848 643.737 220.738 643.105 221.37"/>
      <polyline class="bx" points="643.737 220.738 562.847 139.848 563.479 139.216 644.369 220.106 643.737 220.738"/>
      <polyline class="by" points="644.369 220.106 563.479 139.216 564.111 138.584 645.001 219.474 644.369 220.106"/>
      <polyline class="bz" points="645.001 219.474 564.111 138.584 564.743 137.952 645.633 218.842 645.001 219.474"/>
      <polyline class="bz" points="645.633 218.842 564.743 137.952 564.743 137.952 645.633 218.842 645.633 218.842"/>
    </g>
    <polygon class="c" points="528.743 173.951 600.743 173.951 600.743 263.731 528.743 263.731 528.743 173.951 528.743 173.951"/>
    <path class="cb" d="M405.23,369.01c6.91,19.37,20.88,24.77,36,26.78m-36,26.79c6.91-19.37,20.88-24.77,36-26.79" transform="translate(249.513 -132.059)"/>
    <path class="c" d="M409.77,378.01c-13.54,9-13.54,22.46,0,36" transform="translate(249.513 -132.059)"/>
    <g class="cc">
      <path class="bz" d="M395.365,395.725h27.929a28.149,28.149,0,1,0-28.149,28.149,28.159,28.159,0,0,0,28.149-28.149" transform="translate(249.513 -132.059)"/>
      <path class="bz" d="M395.339,395.725h24.577A24.771,24.771,0,1,0,395.145,420.5a24.78,24.78,0,0,0,24.771-24.771" transform="translate(249.513 -132.059)"/>
      <path class="cd" d="M395.339,395.725h24.384A24.577,24.577,0,1,0,395.145,420.3a24.586,24.586,0,0,0,24.577-24.577" transform="translate(249.513 -132.059)"/>
      <path class="ce" d="M395.339,395.725h24.19a24.384,24.384,0,1,0-24.384,24.384,24.393,24.393,0,0,0,24.384-24.384" transform="translate(249.513 -132.059)"/>
      <path class="cf" d="M395.339,395.725h24a24.19,24.19,0,1,0-24.19,24.19,24.2,24.2,0,0,0,24.19-24.19" transform="translate(249.513 -132.059)"/>
      <path class="cg" d="M395.339,395.725h23.8a24,24,0,1,0-24,24,24.006,24.006,0,0,0,24-24" transform="translate(249.513 -132.059)"/>
      <path class="ch" d="M395.339,395.725h23.61a23.8,23.8,0,1,0-23.8,23.8,23.812,23.812,0,0,0,23.8-23.8" transform="translate(249.513 -132.059)"/>
      <path class="ci" d="M395.339,395.725h23.416a23.61,23.61,0,1,0-23.61,23.61,23.618,23.618,0,0,0,23.61-23.61" transform="translate(249.513 -132.059)"/>
      <path class="cj" d="M395.339,395.725h23.223a23.416,23.416,0,1,0-23.416,23.416,23.425,23.425,0,0,0,23.416-23.416" transform="translate(249.513 -132.059)"/>
      <path class="ck" d="M395.339,395.725h23.029a23.223,23.223,0,1,0-23.223,23.223,23.231,23.231,0,0,0,23.223-23.223" transform="translate(249.513 -132.059)"/>
      <path class="cl" d="M395.339,395.725h22.836a23.029,23.029,0,1,0-23.029,23.029,23.038,23.038,0,0,0,23.029-23.029" transform="translate(249.513 -132.059)"/>
      <path class="cm" d="M395.339,395.725h22.642a22.836,22.836,0,1,0-22.836,22.836,22.844,22.844,0,0,0,22.836-22.836" transform="translate(249.513 -132.059)"/>
      <path class="cn" d="M395.339,395.725h22.449a22.642,22.642,0,1,0-22.642,22.642,22.65,22.65,0,0,0,22.642-22.642" transform="translate(249.513 -132.059)"/>
      <path class="co" d="M395.339,395.725h22.255a22.449,22.449,0,1,0-22.449,22.449,22.457,22.457,0,0,0,22.449-22.449" transform="translate(249.513 -132.059)"/>
      <path class="cp" d="M395.339,395.725H417.4a22.255,22.255,0,1,0-22.255,22.255A22.263,22.263,0,0,0,417.4,395.725" transform="translate(249.513 -132.059)"/>
      <path class="cq" d="M395.339,395.725h21.868a22.062,22.062,0,1,0-22.062,22.062,22.07,22.07,0,0,0,22.062-22.062" transform="translate(249.513 -132.059)"/>
      <path class="cr" d="M395.339,395.725h21.674a21.868,21.868,0,1,0-21.868,21.868,21.876,21.876,0,0,0,21.868-21.868" transform="translate(249.513 -132.059)"/>
      <path class="cs" d="M395.339,395.725h21.481A21.674,21.674,0,1,0,395.145,417.4a21.682,21.682,0,0,0,21.674-21.674" transform="translate(249.513 -132.059)"/>
      <path class="ct" d="M395.339,395.725h21.287a21.481,21.481,0,1,0-21.481,21.481,21.489,21.489,0,0,0,21.481-21.481" transform="translate(249.513 -132.059)"/>
      <path class="cu" d="M395.339,395.725h21.094a21.287,21.287,0,1,0-21.287,21.287,21.3,21.3,0,0,0,21.287-21.287" transform="translate(249.513 -132.059)"/>
      <path class="cv" d="M395.339,395.725h20.9a21.094,21.094,0,1,0-21.094,21.094,21.1,21.1,0,0,0,21.094-21.094" transform="translate(249.513 -132.059)"/>
      <path class="cw" d="M395.339,395.725h20.707a20.9,20.9,0,1,0-20.9,20.9,20.908,20.908,0,0,0,20.9-20.9" transform="translate(249.513 -132.059)"/>
      <path class="cx" d="M395.339,395.725h20.513a20.707,20.707,0,1,0-20.707,20.707,20.714,20.714,0,0,0,20.707-20.707" transform="translate(249.513 -132.059)"/>
      <path class="cy" d="M395.339,395.725h20.32a20.513,20.513,0,1,0-20.513,20.513,20.521,20.521,0,0,0,20.513-20.513" transform="translate(249.513 -132.059)"/>
      <path class="cz" d="M395.339,395.725h20.126a20.32,20.32,0,1,0-20.32,20.32,20.327,20.327,0,0,0,20.32-20.32" transform="translate(249.513 -132.059)"/>
      <path class="da" d="M395.339,395.725h19.933a20.126,20.126,0,1,0-20.126,20.126,20.134,20.134,0,0,0,20.126-20.126" transform="translate(249.513 -132.059)"/>
      <path class="db" d="M395.339,395.725h19.739a19.933,19.933,0,1,0-19.933,19.933,19.94,19.94,0,0,0,19.933-19.933" transform="translate(249.513 -132.059)"/>
      <path class="dc" d="M395.339,395.725h19.546a19.739,19.739,0,1,0-19.739,19.739,19.746,19.746,0,0,0,19.739-19.739" transform="translate(249.513 -132.059)"/>
      <path class="dd" d="M395.339,395.725h19.352a19.546,19.546,0,1,0-19.546,19.546,19.553,19.553,0,0,0,19.546-19.546" transform="translate(249.513 -132.059)"/>
      <path class="de" d="M395.339,395.725H414.5a19.352,19.352,0,1,0-19.352,19.352A19.359,19.359,0,0,0,414.5,395.725" transform="translate(249.513 -132.059)"/>
      <path class="df" d="M395.339,395.725H414.3a19.159,19.159,0,1,0-19.159,19.159A19.166,19.166,0,0,0,414.3,395.725" transform="translate(249.513 -132.059)"/>
      <path class="dg" d="M395.339,395.725H414.11a18.965,18.965,0,1,0-18.965,18.965,18.972,18.972,0,0,0,18.965-18.965" transform="translate(249.513 -132.059)"/>
      <path class="dh" d="M395.339,395.725h18.578A18.772,18.772,0,1,0,395.145,414.5a18.779,18.779,0,0,0,18.772-18.772" transform="translate(249.513 -132.059)"/>
      <path class="di" d="M395.339,395.725h18.385A18.578,18.578,0,1,0,395.145,414.3a18.585,18.585,0,0,0,18.578-18.578" transform="translate(249.513 -132.059)"/>
      <path class="dj" d="M395.339,395.725H413.53a18.385,18.385,0,1,0-18.385,18.385,18.391,18.391,0,0,0,18.385-18.385" transform="translate(249.513 -132.059)"/>
      <path class="dk" d="M395.339,395.725h18a18.191,18.191,0,1,0-18.191,18.191,18.2,18.2,0,0,0,18.191-18.191" transform="translate(249.513 -132.059)"/>
      <path class="dl" d="M395.339,395.725h17.8a18,18,0,1,0-18,18,18,18,0,0,0,18-18" transform="translate(249.513 -132.059)"/>
      <path class="dm" d="M395.339,395.725h17.611a17.8,17.8,0,1,0-17.8,17.8,17.811,17.811,0,0,0,17.8-17.8" transform="translate(249.513 -132.059)"/>
      <path class="dn" d="M395.339,395.725h17.417a17.611,17.611,0,1,0-17.611,17.611,17.617,17.617,0,0,0,17.611-17.611" transform="translate(249.513 -132.059)"/>
      <path class="do" d="M395.339,395.725h17.224a17.417,17.417,0,1,0-17.417,17.417,17.423,17.423,0,0,0,17.417-17.417" transform="translate(249.513 -132.059)"/>
      <path class="dp" d="M395.339,395.725h17.03a17.223,17.223,0,1,0-17.224,17.224,17.23,17.23,0,0,0,17.224-17.224" transform="translate(249.513 -132.059)"/>
      <path class="dq" d="M395.339,395.725h16.836a17.03,17.03,0,1,0-17.03,17.03,17.036,17.036,0,0,0,17.03-17.03" transform="translate(249.513 -132.059)"/>
      <path class="dr" d="M395.339,395.725h16.643a16.836,16.836,0,1,0-16.836,16.836,16.843,16.843,0,0,0,16.836-16.836" transform="translate(249.513 -132.059)"/>
      <path class="ds" d="M395.339,395.725h16.449a16.643,16.643,0,1,0-16.643,16.643,16.649,16.649,0,0,0,16.643-16.643" transform="translate(249.513 -132.059)"/>
      <path class="dt" d="M395.339,395.725h16.256a16.449,16.449,0,1,0-16.449,16.449,16.455,16.455,0,0,0,16.449-16.449" transform="translate(249.513 -132.059)"/>
      <path class="du" d="M395.339,395.725H411.4a16.256,16.256,0,1,0-16.256,16.256A16.262,16.262,0,0,0,411.4,395.725" transform="translate(249.513 -132.059)"/>
      <path class="dv" d="M395.339,395.725h15.869a16.062,16.062,0,1,0-16.062,16.062,16.068,16.068,0,0,0,16.062-16.062" transform="translate(249.513 -132.059)"/>
      <path class="dw" d="M395.339,395.725h15.675a15.869,15.869,0,1,0-15.869,15.869,15.875,15.875,0,0,0,15.869-15.869" transform="translate(249.513 -132.059)"/>
      <path class="dx" d="M395.339,395.725H410.82A15.675,15.675,0,1,0,395.145,411.4a15.681,15.681,0,0,0,15.675-15.675" transform="translate(249.513 -132.059)"/>
      <path class="dy" d="M395.339,395.725h15.288a15.482,15.482,0,1,0-15.482,15.482,15.487,15.487,0,0,0,15.482-15.482" transform="translate(249.513 -132.059)"/>
      <path class="dz" d="M395.339,395.725h15.095a15.288,15.288,0,1,0-15.288,15.288,15.294,15.294,0,0,0,15.288-15.288" transform="translate(249.513 -132.059)"/>
      <path class="ea" d="M395.339,395.725h14.9a15.095,15.095,0,1,0-15.095,15.095,15.1,15.1,0,0,0,15.095-15.095" transform="translate(249.513 -132.059)"/>
      <path class="eb" d="M395.339,395.725h14.708a14.9,14.9,0,1,0-14.9,14.9,14.907,14.907,0,0,0,14.9-14.9" transform="translate(249.513 -132.059)"/>
      <path class="ec" d="M395.339,395.725h14.514a14.708,14.708,0,1,0-14.708,14.708,14.713,14.713,0,0,0,14.708-14.708" transform="translate(249.513 -132.059)"/>
      <path class="ed" d="M395.339,395.725h14.321a14.514,14.514,0,1,0-14.514,14.514,14.519,14.519,0,0,0,14.514-14.514" transform="translate(249.513 -132.059)"/>
      <path class="ee" d="M395.339,395.725h14.127a14.321,14.321,0,1,0-14.321,14.321,14.326,14.326,0,0,0,14.321-14.321" transform="translate(249.513 -132.059)"/>
      <path class="ef" d="M395.339,395.725h13.934a14.127,14.127,0,1,0-14.127,14.127,14.132,14.132,0,0,0,14.127-14.127" transform="translate(249.513 -132.059)"/>
      <path class="eg" d="M395.339,395.725h13.74a13.934,13.934,0,1,0-13.934,13.934,13.939,13.939,0,0,0,13.934-13.934" transform="translate(249.513 -132.059)"/>
      <path class="eh" d="M395.339,395.725h13.547a13.74,13.74,0,1,0-13.74,13.74,13.745,13.745,0,0,0,13.74-13.74" transform="translate(249.513 -132.059)"/>
      <path class="ei" d="M395.339,395.725h13.353a13.547,13.547,0,1,0-13.547,13.547,13.552,13.552,0,0,0,13.547-13.547" transform="translate(249.513 -132.059)"/>
      <path class="ej" d="M395.339,395.725H408.5a13.353,13.353,0,1,0-13.353,13.353A13.358,13.358,0,0,0,408.5,395.725" transform="translate(249.513 -132.059)"/>
      <path class="ek" d="M395.339,395.725H408.3a13.16,13.16,0,1,0-13.16,13.16,13.164,13.164,0,0,0,13.16-13.16" transform="translate(249.513 -132.059)"/>
      <path class="el" d="M395.339,395.725h12.772a12.966,12.966,0,1,0-12.966,12.966,12.971,12.971,0,0,0,12.966-12.966" transform="translate(249.513 -132.059)"/>
      <path class="em" d="M395.339,395.725h12.579A12.772,12.772,0,1,0,395.145,408.5a12.777,12.777,0,0,0,12.773-12.772" transform="translate(249.513 -132.059)"/>
      <path class="en" d="M395.339,395.725h12.385A12.579,12.579,0,1,0,395.145,408.3a12.584,12.584,0,0,0,12.579-12.579" transform="translate(249.513 -132.059)"/>
      <path class="eo" d="M395.339,395.725H407.53a12.385,12.385,0,1,0-12.385,12.385,12.39,12.39,0,0,0,12.385-12.385" transform="translate(249.513 -132.059)"/>
      <path class="ep" d="M395.339,395.725h12a12.192,12.192,0,1,0-12.192,12.192,12.2,12.2,0,0,0,12.192-12.192" transform="translate(249.513 -132.059)"/>
      <path class="eq" d="M395.339,395.725h11.8a12,12,0,1,0-12,12,12,12,0,0,0,12-12" transform="translate(249.513 -132.059)"/>
      <path class="er" d="M395.339,395.725H406.95a11.8,11.8,0,1,0-11.8,11.8,11.809,11.809,0,0,0,11.8-11.8" transform="translate(249.513 -132.059)"/>
      <path class="es" d="M395.339,395.725h11.418a11.611,11.611,0,1,0-11.611,11.611,11.616,11.616,0,0,0,11.611-11.611" transform="translate(249.513 -132.059)"/>
      <path class="et" d="M395.339,395.725h11.224a11.418,11.418,0,1,0-11.418,11.418,11.422,11.422,0,0,0,11.418-11.418" transform="translate(249.513 -132.059)"/>
      <path class="eu" d="M395.339,395.725h11.031a11.224,11.224,0,1,0-11.224,11.224,11.228,11.228,0,0,0,11.224-11.224" transform="translate(249.513 -132.059)"/>
      <path class="ev" d="M395.339,395.725h10.837a11.031,11.031,0,1,0-11.031,11.031,11.035,11.035,0,0,0,11.031-11.031" transform="translate(249.513 -132.059)"/>
      <path class="ew" d="M395.339,395.725h10.644a10.837,10.837,0,1,0-10.837,10.837,10.841,10.841,0,0,0,10.837-10.837" transform="translate(249.513 -132.059)"/>
      <path class="ex" d="M395.339,395.725h10.45a10.644,10.644,0,1,0-10.644,10.644,10.648,10.648,0,0,0,10.644-10.644" transform="translate(249.513 -132.059)"/>
      <path class="ey" d="M395.339,395.725H405.6a10.45,10.45,0,1,0-10.45,10.45,10.454,10.454,0,0,0,10.45-10.45" transform="translate(249.513 -132.059)"/>
      <path class="ez" d="M395.339,395.725H405.4a10.257,10.257,0,1,0-10.257,10.257A10.26,10.26,0,0,0,405.4,395.725" transform="translate(249.513 -132.059)"/>
      <path class="fa" d="M395.339,395.725h9.87a10.063,10.063,0,1,0-10.063,10.063,10.067,10.067,0,0,0,10.063-10.063" transform="translate(249.513 -132.059)"/>
      <path class="fb" d="M395.339,395.725h9.676a9.87,9.87,0,1,0-9.87,9.87,9.873,9.873,0,0,0,9.87-9.87" transform="translate(249.513 -132.059)"/>
      <path class="fc" d="M395.339,395.725h9.483a9.676,9.676,0,1,0-9.676,9.676,9.68,9.68,0,0,0,9.676-9.676" transform="translate(249.513 -132.059)"/>
      <path class="fd" d="M395.339,395.725h9.289a9.483,9.483,0,1,0-9.483,9.483,9.486,9.486,0,0,0,9.483-9.483" transform="translate(249.513 -132.059)"/>
      <path class="fe" d="M395.339,395.725h9.1a9.289,9.289,0,1,0-9.289,9.289,9.293,9.293,0,0,0,9.289-9.289" transform="translate(249.513 -132.059)"/>
      <path class="ff" d="M395.339,395.725h8.9a9.1,9.1,0,1,0-9.1,9.1,9.1,9.1,0,0,0,9.1-9.1" transform="translate(249.513 -132.059)"/>
      <path class="fg" d="M395.339,395.725h8.709a8.9,8.9,0,1,0-8.9,8.9,8.905,8.905,0,0,0,8.9-8.9" transform="translate(249.513 -132.059)"/>
      <path class="fh" d="M395.339,395.725h8.515a8.709,8.709,0,1,0-8.709,8.708,8.712,8.712,0,0,0,8.709-8.708" transform="translate(249.513 -132.059)"/>
      <path class="fi" d="M395.339,395.725h8.321a8.515,8.515,0,1,0-8.515,8.515,8.518,8.518,0,0,0,8.515-8.515" transform="translate(249.513 -132.059)"/>
      <path class="fj" d="M395.339,395.725h8.128a8.321,8.321,0,1,0-8.321,8.321,8.324,8.324,0,0,0,8.321-8.321" transform="translate(249.513 -132.059)"/>
      <path class="fk" d="M395.339,395.725h7.934a8.128,8.128,0,1,0-8.128,8.128,8.131,8.131,0,0,0,8.128-8.128" transform="translate(249.513 -132.059)"/>
      <path class="fl" d="M395.339,395.725h7.741a7.934,7.934,0,1,0-7.934,7.934,7.937,7.937,0,0,0,7.934-7.934" transform="translate(249.513 -132.059)"/>
      <path class="fm" d="M395.339,395.725h7.547a7.741,7.741,0,1,0-7.741,7.741,7.744,7.744,0,0,0,7.741-7.741" transform="translate(249.513 -132.059)"/>
      <path class="fn" d="M395.339,395.725h7.354a7.547,7.547,0,1,0-7.547,7.547,7.55,7.55,0,0,0,7.547-7.547" transform="translate(249.513 -132.059)"/>
      <path class="fo" d="M395.339,395.725h7.16a7.354,7.354,0,1,0-7.354,7.354,7.357,7.357,0,0,0,7.354-7.354" transform="translate(249.513 -132.059)"/>
      <path class="fp" d="M395.339,395.725h6.967a7.16,7.16,0,1,0-7.16,7.16,7.163,7.163,0,0,0,7.16-7.16" transform="translate(249.513 -132.059)"/>
      <path class="fq" d="M395.339,395.725h6.773a6.967,6.967,0,1,0-6.967,6.967,6.969,6.969,0,0,0,6.967-6.967" transform="translate(249.513 -132.059)"/>
      <path class="fr" d="M395.339,395.725h6.58a6.773,6.773,0,1,0-6.773,6.773,6.776,6.776,0,0,0,6.773-6.773" transform="translate(249.513 -132.059)"/>
      <path class="fs" d="M395.339,395.725h6.386a6.58,6.58,0,1,0-6.58,6.58,6.582,6.582,0,0,0,6.58-6.58" transform="translate(249.513 -132.059)"/>
    </g>
    <path class="c" d="M405.52,409.26c9.29-8.86,8.42-18.07-.72-27.07a18.788,18.788,0,0,0-3.1,4.1c6.41,5.83,7.99,12.89,1.08,18.79,0.87,1.44,1.8,2.81,2.74,4.18h0Z" transform="translate(249.513 -132.059)"/>
    <path class="ft" d="M400.48,400.04c-1.15-4.25-1.01-5.61-.43-9.5,0-1.59,2.73-6.12,1.65-4.25,6.41,5.83,7.99,12.89,1.08,18.79,0.87,1.44-1.94-3.24-2.3-5.04h0Z" transform="translate(249.513 -132.059)"/>
    <path class="cb" d="M200.82,350.22l78.34-35.14m-77.69,55.87,77.69-55.87M203.85,330.2l75.31-15.12M201.4,353.39l77.76,33.62m-75.82-53.93,75.82,53.93m-77.04-14.26,77.04,14.26" transform="translate(249.513 -132.059)"/>
    <path class="c" d="M204.49,361.81c3.24-.79,6.99,2.38,8.28,7.27s-0.36,9.58-3.6,10.37c-3.16.86-6.84-2.38-8.13-7.27s0.29-9.51,3.45-10.37h0Z" transform="translate(249.513 -132.059)"/>
    <path class="fu" d="M206.08,367.79c-0.43-1.73-.58-2.45-4.83-1.44-1.22,2.73.36,8.28,1.88,9.72,3.31-.58,4.6-1.08,4.53-2.45-1.01.14-2.3-.87-2.73-2.45s0.07-3.17,1.15-3.38h0Z" transform="translate(249.513 -132.059)"/>
    <path class="c" d="M206.08,367.79c1.08-.29,2.3.72,2.73,2.3,0.44,1.66-.07,3.24-1.15,3.53-1.08.21-2.3-.79-2.73-2.45-0.44-1.58.07-3.17,1.15-3.38h0Z" transform="translate(249.513 -132.059)"/>
    <path class="fu" d="M204.49,348.56c-1.94-2.09-5.97-3.6-5.61,3.17s3.74,4.32,5.61,2.95c-1.08,0-2.01-1.37-2.01-3.09,0-1.66.93-3.03,2.01-3.03h0Z" transform="translate(249.513 -132.059)"/>
    <path class="c" d="M204.49,348.56c1.08,0,2.02,1.37,2.02,3.03,0,1.72-.94,3.09-2.02,3.09s-2.01-1.37-2.01-3.09c0-1.66.93-3.03,2.01-3.03h0Z" transform="translate(249.513 -132.059)"/>
    <path class="fv" d="M207.88,329.34c-0.94-2.38-4.54-4.25-6.19,1.22s1.22,5.33,4.6,4.68c-1.08-.29-1.58-1.94-1.15-3.53s1.66-2.66,2.74-2.37h0Z" transform="translate(249.513 -132.059)"/>
    <path class="c" d="M207.88,329.34c1.08,0.29,1.58,1.87,1.15,3.45s-1.66,2.74-2.74,2.45-1.58-1.94-1.15-3.53,1.66-2.66,2.74-2.37h0Z" transform="translate(249.513 -132.059)"/>
    <line class="fw" x1="418.513" y1="263.731" x2="528.523" y2="263.731"/>
    <path class="fx" d="M279.23,405.01" transform="translate(249.513 -132.059)"/>
    <line class="cb" x1="528.743" y1="272.951" x2="454.293" y2="336.021"/>
    <path class="fx" d="M279.23,405.01m0,0,0,72" transform="translate(249.513 -132.059)"/>
    <line class="cb" x1="528.743" y1="344.951" x2="454.873" y2="338.111"/>
    <path class="fx" d="M201.4,451.67m77.83,25.34,0,0" transform="translate(249.513 -132.059)"/>
    <path class="fu" d="M208.24,464.77c-3.75-.86-4.68,3.31-4.11,4.82,0.58,1.59,5.04,5.55,6.27,1.23-1.01.36-2.52-.94-2.95-2.52s-0.22-2.74.79-3.53h0Z" transform="translate(249.513 -132.059)"/>
    <path class="c" d="M208.24,464.77c1.08-.36,2.45.58,3.02,2.09,0.58,1.58.22,3.24-.86,3.6-1.01.36-2.38-.58-2.95-2.16-0.58-1.51-.22-3.17.79-3.53h0Z" transform="translate(249.513 -132.059)"/>
    <text class="fy" transform="translate(432.383 221.756)">546.</text>
    <text class="fy" transform="translate(443.68 221.756)">1</text>
    <text class="fz" transform="translate(437.36 197.159) rotate(14.801)">700</text>
    <text class="ga" transform="matrix(0.966, -0.259, 0.259, 0.966, 436.133, 246.121)">435.</text>
    <text class="ga" transform="matrix(0.966, -0.259, 0.259, 0.966, 447.045, 243.198)">8</text>
    <text class="gb" transform="matrix(0.919, -0.394, 0.394, 0.919, 446.356, 344.364)">?</text>
  </g>
  <text x="249.513" y="-132.059"/></svg>
