<svg xmlns="http://www.w3.org/2000/svg" xmlns:xlink="http://www.w3.org/1999/xlink" viewBox="0 0 272.297 251.999">
  <defs>
    <style>
      .a, .b, .c, .cb, .d, .fw, .fx {
        fill: none;
      }

      .a {
        clip-rule: evenodd;
      }

      .b, .c, .cb, .ft, .fw {
        stroke: #1d1d1b;
      }

      .b {
        stroke-linecap: round;
      }

      .b, .c, .cb, .d, .ft, .fv, .fw, .fx {
        stroke-miterlimit: 11.474;
      }

      .b, .fw {
        stroke-width: 2.02px;
      }

      .c, .d, .ft, .fv {
        stroke-width: 0.22px;
      }

      .d, .fx {
        stroke: #9d9d9c;
      }

      .e {
        clip-path: url(#a);
      }

      .f {
        fill: #ededed;
      }

      .g {
        fill: #ececec;
      }

      .h {
        fill: #ebebeb;
      }

      .i {
        fill: #ebebea;
      }

      .j {
        fill: #eaeaea;
      }

      .k {
        fill: #e9e9e9;
      }

      .l {
        fill: #e9e9e8;
      }

      .m {
        fill: #e8e8e8;
      }

      .n {
        fill: #e7e7e7;
      }

      .o {
        fill: #e7e6e6;
      }

      .p {
        fill: #e6e6e6;
      }

      .q {
        fill: #e6e6e5;
      }

      .r {
        fill: #e5e5e5;
      }

      .s {
        fill: #e4e4e4;
      }

      .t {
        fill: #e4e4e3;
      }

      .u {
        fill: #e3e3e3;
      }

      .v {
        fill: #e2e2e2;
      }

      .w {
        fill: #e2e2e1;
      }

      .x {
        fill: #e1e1e1;
      }

      .y {
        fill: #e0e0e0;
      }

      .z {
        fill: #e0dfdf;
      }

      .aa {
        fill: #dfdfdf;
      }

      .ab {
        fill: #dfdfde;
      }

      .ac {
        fill: #dedede;
      }

      .ad {
        fill: #dedddd;
      }

      .ae {
        fill: #ddd;
      }

      .af {
        fill: #dddddc;
      }

      .ag {
        fill: #dcdcdc;
      }

      .ah {
        fill: #dbdbdb;
      }

      .ai {
        fill: #dbdada;
      }

      .aj {
        fill: #dadada;
      }

      .ak {
        fill: #dadad9;
      }

      .al {
        fill: #d9d9d9;
      }

      .am {
        fill: #d9d9d8;
      }

      .an {
        fill: #d8d8d8;
      }

      .ao {
        fill: #d8d7d7;
      }

      .ap {
        fill: #d7d7d7;
      }

      .aq {
        fill: #d7d6d6;
      }

      .ar {
        fill: #d6d6d6;
      }

      .as {
        fill: #d6d6d5;
      }

      .at {
        fill: #d5d5d5;
      }

      .au {
        fill: #d5d5d4;
      }

      .av {
        fill: #d4d4d4;
      }

      .aw {
        fill: #d4d4d3;
      }

      .ax {
        fill: #d3d3d3;
      }

      .ay {
        fill: #d3d2d2;
      }

      .az {
        fill: #d2d2d2;
      }

      .ba {
        fill: #d2d1d1;
      }

      .bb {
        fill: #d1d1d1;
      }

      .bc {
        fill: #d1d1d0;
      }

      .bd {
        fill: #d0d0d0;
      }

      .be {
        fill: #d0d0cf;
      }

      .bf {
        fill: #cfcfcf;
      }

      .bg {
        fill: #cfcfce;
      }

      .bh {
        fill: #cecece;
      }

      .bi {
        fill: #cececd;
      }

      .bj {
        fill: #cecdcd;
      }

      .bk {
        fill: #cdcdcd;
      }

      .bl {
        fill: #cdcccc;
      }

      .bm {
        fill: #ccc;
      }

      .bn {
        fill: #cccccb;
      }

      .bo {
        fill: #cbcbcb;
      }

      .bp {
        fill: #cbcbca;
      }

      .bq {
        fill: #cacaca;
      }

      .br {
        fill: #cacac9;
      }

      .bs {
        fill: #c9c9c9;
      }

      .bt {
        fill: #c9c9c8;
      }

      .bu {
        fill: #c9c8c8;
      }

      .bv {
        fill: #c8c8c8;
      }

      .bw {
        fill: #c8c7c7;
      }

      .bx {
        fill: #c7c7c7;
      }

      .by {
        fill: #c7c7c6;
      }

      .bz {
        fill: #c6c6c6;
      }

      .ca {
        clip-path: url(#b);
      }

      .cb, .fx {
        stroke-width: 1.01px;
      }

      .cc {
        clip-path: url(#c);
      }

      .cd {
        fill: #c5c5c5;
      }

      .ce {
        fill: #c4c4c4;
      }

      .cf {
        fill: #c3c3c3;
      }

      .cg {
        fill: #c2c2c2;
      }

      .ch {
        fill: #c1c1c1;
      }

      .ci {
        fill: #c0c0bf;
      }

      .cj {
        fill: #bfbfbe;
      }

      .ck {
        fill: #bebebd;
      }

      .cl {
        fill: #bdbcbc;
      }

      .cm {
        fill: #bbb;
      }

      .cn {
        fill: #bababa;
      }

      .co {
        fill: #b9b9b9;
      }

      .cp {
        fill: #b8b8b8;
      }

      .cq {
        fill: #b7b7b7;
      }

      .cr {
        fill: #b6b6b5;
      }

      .cs {
        fill: #b5b5b4;
      }

      .ct {
        fill: #b4b4b3;
      }

      .cu {
        fill: #b3b2b2;
      }

      .cv {
        fill: #b1b1b1;
      }

      .cw {
        fill: #b0b0b0;
      }

      .cx {
        fill: #afafaf;
      }

      .cy {
        fill: #aeaead;
      }

      .cz {
        fill: #adadac;
      }

      .da {
        fill: #acabab;
      }

      .db {
        fill: #aaa;
      }

      .dc {
        fill: #a9a9a9;
      }

      .dd {
        fill: #a8a8a8;
      }

      .de {
        fill: #a7a7a6;
      }

      .df {
        fill: #a6a6a5;
      }

      .dg {
        fill: #a5a4a4;
      }

      .dh {
        fill: #a3a3a3;
      }

      .di {
        fill: #a2a2a2;
      }

      .dj {
        fill: #a1a1a0;
      }

      .dk {
        fill: #a0a09f;
      }

      .dl {
        fill: #9f9e9e;
      }

      .dm {
        fill: #9d9d9d;
      }

      .dn {
        fill: #9c9c9c;
      }

      .do {
        fill: #9b9b9a;
      }

      .dp {
        fill: #9a9a99;
      }

      .dq {
        fill: #999898;
      }

      .dr {
        fill: #979797;
      }

      .ds {
        fill: #969696;
      }

      .dt {
        fill: #959594;
      }

      .du {
        fill: #949493;
      }

      .dv {
        fill: #939392;
      }

      .dw {
        fill: #929191;
      }

      .dx {
        fill: #909090;
      }

      .dy {
        fill: #8f8f8f;
      }

      .dz {
        fill: #8e8e8d;
      }

      .ea {
        fill: #8d8d8c;
      }

      .eb {
        fill: #8c8b8b;
      }

      .ec {
        fill: #8a8a8a;
      }

      .ed {
        fill: #898988;
      }

      .ee {
        fill: #888887;
      }

      .ef {
        fill: #878686;
      }

      .eg {
        fill: #858585;
      }

      .eh {
        fill: #848483;
      }

      .ei {
        fill: #838382;
      }

      .ej {
        fill: #828181;
      }

      .ek {
        fill: gray;
      }

      .el {
        fill: #7f7f7e;
      }

      .em {
        fill: #7e7d7d;
      }

      .en {
        fill: #7c7c7c;
      }

      .eo {
        fill: #7b7b7a;
      }

      .ep {
        fill: #7a7a79;
      }

      .eq {
        fill: #787878;
      }

      .er {
        fill: #777776;
      }

      .es {
        fill: #767675;
      }

      .et {
        fill: #747474;
      }

      .eu {
        fill: #737372;
      }

      .ev {
        fill: #727171;
      }

      .ew {
        fill: #707070;
      }

      .ex {
        fill: #6f6f6e;
      }

      .ey {
        fill: #6e6d6d;
      }

      .ez {
        fill: #6c6c6b;
      }

      .fa {
        fill: #6b6b6a;
      }

      .fb {
        fill: #6a6969;
      }

      .fc {
        fill: #686867;
      }

      .fd {
        fill: #676766;
      }

      .fe {
        fill: #666565;
      }

      .ff {
        fill: #646463;
      }

      .fg {
        fill: #636362;
      }

      .fh {
        fill: #626161;
      }

      .fi {
        fill: #606060;
      }

      .fj {
        fill: #5f5f5e;
      }

      .fk {
        fill: #5e5e5d;
      }

      .fl {
        fill: #5c5c5b;
      }

      .fm {
        fill: #5b5b5a;
      }

      .fn {
        fill: #5a5959;
      }

      .fo {
        fill: #585857;
      }

      .fp {
        fill: #575756;
      }

      .fq {
        fill: #565555;
      }

      .fr {
        fill: #545453;
      }

      .fs {
        fill: #535252;
      }

      .ft, .fy, .fz, .ga, .gb, .gc, .gd, .ge {
        fill: #1d1d1b;
      }

      .ft, .fu, .fv {
        fill-rule: evenodd;
      }

      .fu, .fv {
        fill: #fff;
      }

      .fv {
        stroke: #fff;
      }

      .fy {
        font-size: 6px;
      }

      .fy, .fz, .ga, .gb, .gc, .gd, .ge {
        font-family: Helvetica Neue;
      }

      .fz {
        font-size: 6px;
      }

      .ga {
        font-size: 6px;
      }

      .gb {
        font-size: 6px;
      }

      .gc {
        font-size: 6px;
      }

      .gd {
        font-size: 6px;
      }

      .ge {
        font-size: 11px;
      }
    </style>
    <clipPath id="a" transform="translate(-169 -270.01)">
      <polygon class="a" points="279.23 395.79 351.23 395.79 351.23 486.01 279.23 486.01 279.23 395.79 279.23 395.79"/>
    </clipPath>
    <clipPath id="b" transform="translate(-169 -270.01)">
      <polygon class="a" points="279.23 306.01 351.23 306.01 351.23 395.79 279.23 395.79 279.23 306.01 279.23 306.01"/>
    </clipPath>
    <clipPath id="c" transform="translate(-169 -270.01)">
      <path class="a" d="M405.52,409.26c9.29-8.86,8.42-18.07-.72-27.07a18.788,18.788,0,0,0-3.1,4.1c6.41,5.83,7.99,12.89,1.08,18.79,0.87,1.44,1.8,2.81,2.74,4.18h0Z"/>
    </clipPath>
  </defs>
  <title>mixerm</title>
  <g>
    <path class="b" d="M351.23,432.01v71.93m0-215.93v72" transform="translate(-169 -270.01)"/>
    <path class="c" d="M186.35,360.66c-3.31,0-6.12-4.03-6.12-9.15,0-5.04,2.81-9.07,6.12-9.07m0,0h18.14m-18.14,18.22h18.14m0-18.22c3.32,0,6.12,4.11,6.12,9.15s-2.8,9.14-6.12,9.14-6.04-4.1-6.04-9.14,2.73-9.15,6.04-9.15h0Zm-8.85,140.11c-3.1,1.23-7.13-1.58-8.93-6.26-1.87-4.75-.72-9.5,2.38-10.73m0,0,16.99-6.48m-10.44,23.47,16.99-6.48m-6.55-16.99c3.02-1.22,7.13,1.66,8.93,6.34,1.8,4.75.64,9.5-2.38,10.73-3.1,1.15-7.13-1.66-8.93-6.41-1.8-4.68-.72-9.51,2.38-10.66h0Z" transform="translate(-169 -270.01)"/>
    <path class="d" d="M189.66,414.66c-3.02-1.23-4.1-6.05-2.23-10.73s5.98-7.42,9-6.19m0,0,16.92,6.77m-23.69,10.15,16.92,6.77" transform="translate(-169 -270.01)"/>
    <path class="c" d="M213.35,404.51c3.1,1.22,4.1,6.04,2.23,10.72s-5.9,7.42-9,6.2-4.1-5.98-2.23-10.66,5.9-7.49,9-6.26h0Z" transform="translate(-169 -270.01)"/>
    <path class="d" d="M188.01,460.95c-3.32.36-6.48-3.31-7.13-8.28-0.58-5.04,1.65-9.43,4.97-9.79m0,0,18-2.16m-15.84,20.23,18-2.16" transform="translate(-169 -270.01)"/>
    <path class="c" d="M203.85,440.72c3.31-.43,6.55,3.31,7.12,8.28,0.65,5.04-1.65,9.43-4.96,9.87-3.24.36-6.41-3.32-7.06-8.36-0.58-4.96,1.66-9.43,4.9-9.79h0Z" transform="translate(-169 -270.01)"/>
    <path class="d" d="M185.92,437.84c-3.31-.43-5.55-4.82-4.9-9.86,0.65-4.97,3.96-8.64,7.27-8.21m-0.07,0,18,2.3m-20.3,15.77,18,2.31" transform="translate(-169 -270.01)"/>
    <path class="c" d="M206.22,422.07c3.31,0.44,5.55,4.83,4.9,9.87-0.65,4.97-3.89,8.71-7.2,8.28-3.24-.43-5.47-4.9-4.83-9.87,0.65-5.04,3.89-8.71,7.13-8.28h0Zm-14.61-38.01c-3.17.86-6.92-2.45-8.21-7.27-1.23-4.9.36-9.51,3.53-10.37m0,0.07,17.56-4.68m-12.88,22.25,17.56-4.68m-22.03-43.13c-3.17-.86-4.75-5.4-3.45-10.3s5.04-8.13,8.2-7.27m0,0,17.57,4.75m-22.32,12.82L204.71,341m4.75-17.57c3.17,0.87,4.83,5.55,3.53,10.44-1.3,4.83-5.11,8.07-8.28,7.2s-4.75-5.54-3.46-10.36c1.3-4.9,5.04-8.14,8.21-7.28h0Z" transform="translate(-169 -270.01)"/>
    <g class="e">
      <polyline class="f" points="65.12 170.89 146.23 89.78 146.23 89.78 65.12 170.89 65.12 170.89"/>
      <polyline class="f" points="65.12 170.89 146.23 89.78 146.864 90.413 65.754 171.523 65.12 170.89"/>
      <polyline class="g" points="65.754 171.523 146.864 90.413 147.497 91.047 66.387 172.157 65.754 171.523"/>
      <polyline class="g" points="66.387 172.157 147.497 91.047 148.131 91.681 67.021 172.791 66.387 172.157"/>
      <polyline class="g" points="67.021 172.791 148.131 91.681 148.765 92.314 67.655 173.424 67.021 172.791"/>
      <polyline class="h" points="67.655 173.424 148.765 92.314 149.398 92.948 68.288 174.058 67.655 173.424"/>
      <polyline class="h" points="68.288 174.058 149.398 92.948 150.032 93.582 68.922 174.692 68.288 174.058"/>
      <polyline class="h" points="68.922 174.692 150.032 93.582 150.666 94.215 69.556 175.325 68.922 174.692"/>
      <polyline class="i" points="69.556 175.325 150.666 94.215 151.299 94.849 70.189 175.959 69.556 175.325"/>
      <polyline class="j" points="70.189 175.959 151.299 94.849 151.933 95.483 70.823 176.593 70.189 175.959"/>
      <polyline class="j" points="70.823 176.593 151.933 95.483 152.567 96.116 71.457 177.226 70.823 176.593"/>
      <polyline class="j" points="71.457 177.226 152.567 96.116 153.2 96.75 72.09 177.86 71.457 177.226"/>
      <polyline class="k" points="72.09 177.86 153.2 96.75 153.834 97.384 72.724 178.494 72.09 177.86"/>
      <polyline class="k" points="72.724 178.494 153.834 97.384 154.468 98.017 73.358 179.127 72.724 178.494"/>
      <polyline class="k" points="73.358 179.127 154.468 98.017 155.101 98.651 73.991 179.761 73.358 179.127"/>
      <polyline class="l" points="73.991 179.761 155.101 98.651 155.735 99.285 74.625 180.395 73.991 179.761"/>
      <polyline class="m" points="74.625 180.395 155.735 99.285 156.369 99.918 75.259 181.028 74.625 180.395"/>
      <polyline class="m" points="75.259 181.028 156.369 99.918 157.002 100.552 75.892 181.662 75.259 181.028"/>
      <polyline class="m" points="75.892 181.662 157.002 100.552 157.636 101.186 76.526 182.296 75.892 181.662"/>
      <polyline class="n" points="76.526 182.296 157.636 101.186 158.27 101.819 77.16 182.929 76.526 182.296"/>
      <polyline class="n" points="77.16 182.929 158.27 101.819 158.903 102.453 77.793 183.563 77.16 182.929"/>
      <polyline class="n" points="77.793 183.563 158.903 102.453 159.537 103.087 78.427 184.197 77.793 183.563"/>
      <polyline class="o" points="78.427 184.197 159.537 103.087 160.171 103.72 79.061 184.83 78.427 184.197"/>
      <polyline class="p" points="79.061 184.83 160.171 103.72 160.804 104.354 79.694 185.464 79.061 184.83"/>
      <polyline class="p" points="79.694 185.464 160.804 104.354 161.438 104.988 80.328 186.098 79.694 185.464"/>
      <polyline class="q" points="80.328 186.098 161.438 104.988 162.072 105.621 80.962 186.731 80.328 186.098"/>
      <polyline class="r" points="80.962 186.731 162.072 105.621 162.705 106.255 81.595 187.365 80.962 186.731"/>
      <polyline class="r" points="81.595 187.365 162.705 106.255 163.339 106.889 82.229 187.999 81.595 187.365"/>
      <polyline class="r" points="82.229 187.999 163.339 106.889 163.973 107.522 82.863 188.632 82.229 187.999"/>
      <polyline class="s" points="82.863 188.632 163.973 107.522 164.606 108.156 83.496 189.266 82.863 188.632"/>
      <polyline class="s" points="83.496 189.266 164.607 108.156 165.24 108.79 84.13 189.9 83.496 189.266"/>
      <polyline class="s" points="84.13 189.9 165.24 108.79 165.874 109.423 84.764 190.533 84.13 189.9"/>
      <polyline class="t" points="84.764 190.533 165.874 109.423 166.508 110.057 85.398 191.167 84.764 190.533"/>
      <polyline class="u" points="85.398 191.167 166.508 110.057 167.141 110.691 86.031 191.801 85.398 191.167"/>
      <polyline class="u" points="86.031 191.801 167.141 110.691 167.775 111.324 86.665 192.434 86.031 191.801"/>
      <polyline class="u" points="86.665 192.434 167.775 111.324 168.409 111.958 87.299 193.068 86.665 192.434"/>
      <polyline class="v" points="87.299 193.068 168.409 111.958 169.042 112.592 87.932 193.702 87.299 193.068"/>
      <polyline class="v" points="87.932 193.702 169.042 112.592 169.676 113.225 88.566 194.335 87.932 193.702"/>
      <polyline class="v" points="88.566 194.335 169.676 113.225 170.31 113.859 89.2 194.969 88.566 194.335"/>
      <polyline class="w" points="89.2 194.969 170.31 113.859 170.943 114.493 89.833 195.603 89.2 194.969"/>
      <polyline class="x" points="89.833 195.603 170.943 114.493 171.577 115.126 90.467 196.236 89.833 195.603"/>
      <polyline class="x" points="90.467 196.236 171.577 115.126 172.211 115.76 91.101 196.87 90.467 196.236"/>
      <polyline class="x" points="91.101 196.87 172.211 115.76 172.844 116.394 91.734 197.504 91.101 196.87"/>
      <polyline class="y" points="91.734 197.504 172.844 116.394 173.478 117.027 92.368 198.137 91.734 197.504"/>
      <polyline class="y" points="92.368 198.137 173.478 117.027 174.112 117.661 93.002 198.771 92.368 198.137"/>
      <polyline class="y" points="93.002 198.771 174.112 117.661 174.745 118.295 93.635 199.405 93.002 198.771"/>
      <polyline class="z" points="93.635 199.405 174.745 118.295 175.379 118.928 94.269 200.038 93.635 199.405"/>
      <polyline class="aa" points="94.269 200.038 175.379 118.928 176.013 119.562 94.903 200.672 94.269 200.038"/>
      <polyline class="aa" points="94.903 200.672 176.013 119.562 176.646 120.196 95.536 201.306 94.903 200.672"/>
      <polyline class="ab" points="95.536 201.306 176.646 120.196 177.28 120.829 96.17 201.939 95.536 201.306"/>
      <polyline class="ac" points="96.17 201.939 177.28 120.829 177.914 121.463 96.804 202.573 96.17 201.939"/>
      <polyline class="ac" points="96.804 202.573 177.914 121.463 178.547 122.097 97.437 203.207 96.804 202.573"/>
      <polyline class="ac" points="97.437 203.207 178.547 122.097 179.181 122.73 98.071 203.84 97.437 203.207"/>
      <polyline class="ad" points="98.071 203.84 179.181 122.73 179.815 123.364 98.705 204.474 98.071 203.84"/>
      <polyline class="ae" points="98.705 204.474 179.815 123.364 180.448 123.998 99.338 205.108 98.705 204.474"/>
      <polyline class="ae" points="99.338 205.108 180.448 123.998 181.082 124.631 99.972 205.741 99.338 205.108"/>
      <polyline class="af" points="99.972 205.741 181.082 124.631 181.716 125.265 100.606 206.375 99.972 205.741"/>
      <polyline class="ag" points="100.606 206.375 181.716 125.265 182.349 125.899 101.239 207.009 100.606 206.375"/>
      <polyline class="ag" points="101.239 207.009 182.349 125.899 182.983 126.532 101.873 207.642 101.239 207.009"/>
      <polyline class="ag" points="101.873 207.642 182.983 126.532 183.617 127.166 102.507 208.276 101.873 207.642"/>
      <polyline class="ah" points="102.507 208.276 183.617 127.166 184.25 127.8 103.14 208.91 102.507 208.276"/>
      <polyline class="ah" points="103.14 208.91 184.25 127.8 184.884 128.433 103.774 209.543 103.14 208.91"/>
      <polyline class="ah" points="103.774 209.543 184.884 128.433 185.518 129.067 104.408 210.177 103.774 209.543"/>
      <polyline class="ai" points="104.408 210.177 185.518 129.067 186.151 129.701 105.041 210.811 104.408 210.177"/>
      <polyline class="aj" points="105.041 210.811 186.151 129.701 186.785 130.334 105.675 211.444 105.041 210.811"/>
      <polyline class="aj" points="105.675 211.444 186.785 130.334 187.419 130.968 106.309 212.078 105.675 211.444"/>
      <polyline class="ak" points="106.309 212.078 187.419 130.968 188.052 131.602 106.942 212.712 106.309 212.078"/>
      <polyline class="al" points="106.942 212.712 188.052 131.602 188.686 132.235 107.576 213.345 106.942 212.712"/>
      <polyline class="al" points="107.576 213.345 188.686 132.235 189.32 132.869 108.21 213.979 107.576 213.345"/>
      <polyline class="am" points="108.21 213.979 189.32 132.869 189.953 133.503 108.843 214.613 108.21 213.979"/>
      <polyline class="an" points="108.843 214.613 189.953 133.503 190.587 134.136 109.477 215.246 108.843 214.613"/>
      <polyline class="an" points="109.477 215.246 190.587 134.136 191.221 134.77 110.111 215.88 109.477 215.246"/>
      <polyline class="an" points="110.111 215.88 191.221 134.77 191.854 135.404 110.744 216.514 110.111 215.88"/>
      <polyline class="ao" points="110.744 216.514 191.854 135.404 192.488 136.037 111.378 217.147 110.744 216.514"/>
      <polyline class="ap" points="111.378 217.147 192.488 136.037 193.122 136.671 112.012 217.781 111.378 217.147"/>
      <polyline class="ap" points="112.012 217.781 193.122 136.671 193.755 137.305 112.645 218.415 112.012 217.781"/>
      <polyline class="aq" points="112.645 218.415 193.755 137.305 194.389 137.939 113.279 219.048 112.645 218.415"/>
      <polyline class="ar" points="113.279 219.048 194.389 137.939 195.023 138.572 113.913 219.682 113.279 219.048"/>
      <polyline class="ar" points="113.913 219.682 195.023 138.572 195.656 139.206 114.546 220.316 113.913 219.682"/>
      <polyline class="as" points="114.546 220.316 195.656 139.206 196.29 139.84 115.18 220.95 114.546 220.316"/>
      <polyline class="at" points="115.18 220.95 196.29 139.84 196.924 140.473 115.814 221.583 115.18 220.95"/>
      <polyline class="at" points="115.814 221.583 196.924 140.473 197.557 141.107 116.447 222.217 115.814 221.583"/>
      <polyline class="au" points="116.447 222.217 197.557 141.107 198.191 141.741 117.081 222.851 116.447 222.217"/>
      <polyline class="av" points="117.081 222.851 198.191 141.741 198.825 142.374 117.715 223.484 117.081 222.851"/>
      <polyline class="av" points="117.715 223.484 198.825 142.374 199.458 143.008 118.348 224.118 117.715 223.484"/>
      <polyline class="aw" points="118.348 224.118 199.458 143.008 200.092 143.642 118.982 224.752 118.348 224.118"/>
      <polyline class="ax" points="118.982 224.752 200.092 143.642 200.726 144.275 119.616 225.385 118.982 224.752"/>
      <polyline class="ax" points="119.616 225.385 200.726 144.275 201.359 144.909 120.249 226.019 119.616 225.385"/>
      <polyline class="ax" points="120.249 226.019 201.359 144.909 201.993 145.543 120.883 226.653 120.249 226.019"/>
      <polyline class="ay" points="120.883 226.653 201.993 145.543 202.627 146.176 121.517 227.286 120.883 226.653"/>
      <polyline class="az" points="121.517 227.286 202.627 146.176 203.26 146.81 122.15 227.92 121.517 227.286"/>
      <polyline class="az" points="122.15 227.92 203.26 146.81 203.894 147.444 122.784 228.554 122.15 227.92"/>
      <polyline class="ba" points="122.784 228.554 203.894 147.444 204.528 148.077 123.418 229.187 122.784 228.554"/>
      <polyline class="bb" points="123.418 229.187 204.528 148.077 205.161 148.711 124.052 229.821 123.418 229.187"/>
      <polyline class="bb" points="124.052 229.821 205.161 148.711 205.795 149.345 124.685 230.455 124.052 229.821"/>
      <polyline class="bc" points="124.685 230.455 205.795 149.345 206.429 149.978 125.319 231.088 124.685 230.455"/>
      <polyline class="bd" points="125.319 231.088 206.429 149.978 207.063 150.612 125.953 231.722 125.319 231.088"/>
      <polyline class="bd" points="125.953 231.722 207.063 150.612 207.696 151.246 126.586 232.356 125.953 231.722"/>
      <polyline class="be" points="126.586 232.356 207.696 151.246 208.33 151.879 127.22 232.989 126.586 232.356"/>
      <polyline class="bf" points="127.22 232.989 208.33 151.879 208.964 152.513 127.854 233.623 127.22 232.989"/>
      <polyline class="bf" points="127.854 233.623 208.964 152.513 209.597 153.147 128.487 234.257 127.854 233.623"/>
      <polyline class="bg" points="128.487 234.257 209.597 153.147 210.231 153.78 129.121 234.89 128.487 234.257"/>
      <polyline class="bh" points="129.121 234.89 210.231 153.78 210.865 154.414 129.755 235.524 129.121 234.89"/>
      <polyline class="bh" points="129.755 235.524 210.865 154.414 211.498 155.048 130.388 236.158 129.755 235.524"/>
      <polyline class="bi" points="130.388 236.158 211.498 155.048 212.132 155.681 131.022 236.791 130.388 236.158"/>
      <polyline class="bj" points="131.022 236.791 212.132 155.681 212.766 156.315 131.656 237.425 131.022 236.791"/>
      <polyline class="bk" points="131.656 237.425 212.766 156.315 213.399 156.949 132.289 238.059 131.656 237.425"/>
      <polyline class="bk" points="132.289 238.059 213.399 156.949 214.033 157.582 132.923 238.692 132.289 238.059"/>
      <polyline class="bl" points="132.923 238.692 214.033 157.582 214.667 158.216 133.557 239.326 132.923 238.692"/>
      <polyline class="bm" points="133.557 239.326 214.667 158.216 215.3 158.85 134.19 239.96 133.557 239.326"/>
      <polyline class="bm" points="134.19 239.96 215.3 158.85 215.934 159.483 134.824 240.593 134.19 239.96"/>
      <polyline class="bn" points="134.824 240.593 215.934 159.483 216.568 160.117 135.458 241.227 134.824 240.593"/>
      <polyline class="bo" points="135.458 241.227 216.568 160.117 217.201 160.751 136.091 241.861 135.458 241.227"/>
      <polyline class="bo" points="136.091 241.861 217.201 160.751 217.835 161.384 136.725 242.494 136.091 241.861"/>
      <polyline class="bp" points="136.725 242.494 217.835 161.384 218.469 162.018 137.359 243.128 136.725 242.494"/>
      <polyline class="bq" points="137.359 243.128 218.469 162.018 219.102 162.652 137.992 243.762 137.359 243.128"/>
      <polyline class="bq" points="137.992 243.762 219.102 162.652 219.736 163.285 138.626 244.395 137.992 243.762"/>
      <polyline class="br" points="138.626 244.395 219.736 163.285 220.37 163.919 139.26 245.029 138.626 244.395"/>
      <polyline class="bs" points="139.26 245.029 220.37 163.919 221.003 164.553 139.893 245.663 139.26 245.029"/>
      <polyline class="bs" points="139.893 245.663 221.003 164.553 221.637 165.186 140.527 246.296 139.893 245.663"/>
      <polyline class="bt" points="140.527 246.296 221.637 165.186 222.271 165.82 141.161 246.93 140.527 246.296"/>
      <polyline class="bu" points="141.161 246.93 222.271 165.82 222.904 166.454 141.794 247.564 141.161 246.93"/>
      <polyline class="bv" points="141.794 247.564 222.904 166.454 223.538 167.087 142.428 248.197 141.794 247.564"/>
      <polyline class="bv" points="142.428 248.197 223.538 167.087 224.172 167.721 143.062 248.831 142.428 248.197"/>
      <polyline class="bw" points="143.062 248.831 224.172 167.721 224.805 168.355 143.695 249.465 143.062 248.831"/>
      <polyline class="bx" points="143.695 249.465 224.805 168.355 225.439 168.988 144.329 250.098 143.695 249.465"/>
      <polyline class="bx" points="144.329 250.098 225.439 168.988 226.073 169.622 144.963 250.732 144.329 250.098"/>
      <polyline class="by" points="144.963 250.732 226.073 169.622 226.706 170.256 145.596 251.366 144.963 250.732"/>
      <polyline class="bz" points="145.596 251.366 226.706 170.256 227.34 170.889 146.23 251.999 145.596 251.366"/>
      <polyline class="bz" points="146.23 251.999 227.34 170.889 227.34 170.889 146.23 251.999 146.23 251.999"/>
    </g>
    <polygon class="c" points="110.23 125.78 182.23 125.78 182.23 216 110.23 216 110.23 125.78 110.23 125.78"/>
    <g class="ca">
      <polyline class="f" points="146.23 161.78 65.34 80.89 65.34 80.89 146.23 161.78 146.23 161.78"/>
      <polyline class="f" points="146.23 161.78 65.34 80.89 65.972 80.258 146.862 161.148 146.23 161.78"/>
      <polyline class="g" points="146.862 161.148 65.972 80.258 66.604 79.626 147.494 160.516 146.862 161.148"/>
      <polyline class="g" points="147.494 160.516 66.604 79.626 67.236 78.994 148.126 159.884 147.494 160.516"/>
      <polyline class="g" points="148.126 159.884 67.236 78.994 67.868 78.362 148.758 159.252 148.126 159.884"/>
      <polyline class="h" points="148.758 159.252 67.868 78.362 68.5 77.73 149.39 158.62 148.758 159.252"/>
      <polyline class="h" points="149.39 158.62 68.5 77.73 69.132 77.098 150.022 157.988 149.39 158.62"/>
      <polyline class="h" points="150.022 157.988 69.132 77.098 69.764 76.466 150.654 157.356 150.022 157.988"/>
      <polyline class="i" points="150.654 157.356 69.764 76.466 70.396 75.834 151.286 156.724 150.654 157.356"/>
      <polyline class="j" points="151.286 156.724 70.396 75.834 71.028 75.202 151.918 156.092 151.286 156.724"/>
      <polyline class="j" points="151.918 156.092 71.028 75.202 71.66 74.57 152.55 155.46 151.918 156.092"/>
      <polyline class="j" points="152.55 155.46 71.66 74.57 72.291 73.938 153.181 154.828 152.55 155.46"/>
      <polyline class="k" points="153.181 154.828 72.291 73.938 72.923 73.306 153.813 154.196 153.181 154.828"/>
      <polyline class="k" points="153.813 154.196 72.923 73.306 73.555 72.674 154.445 153.564 153.813 154.196"/>
      <polyline class="k" points="154.445 153.564 73.555 72.674 74.187 72.042 155.077 152.932 154.445 153.564"/>
      <polyline class="l" points="155.077 152.932 74.187 72.042 74.819 71.41 155.709 152.3 155.077 152.932"/>
      <polyline class="m" points="155.709 152.3 74.819 71.41 75.451 70.778 156.341 151.668 155.709 152.3"/>
      <polyline class="m" points="156.341 151.668 75.451 70.778 76.083 70.146 156.973 151.036 156.341 151.668"/>
      <polyline class="m" points="156.973 151.036 76.083 70.146 76.715 69.514 157.605 150.404 156.973 151.036"/>
      <polyline class="n" points="157.605 150.404 76.715 69.514 77.347 68.882 158.237 149.772 157.605 150.404"/>
      <polyline class="n" points="158.237 149.772 77.347 68.882 77.979 68.25 158.869 149.14 158.237 149.772"/>
      <polyline class="n" points="158.869 149.14 77.979 68.25 78.611 67.619 159.501 148.508 158.869 149.14"/>
      <polyline class="o" points="159.501 148.508 78.611 67.619 79.243 66.987 160.133 147.877 159.501 148.508"/>
      <polyline class="p" points="160.133 147.877 79.243 66.987 79.875 66.355 160.765 147.245 160.133 147.877"/>
      <polyline class="p" points="160.765 147.245 79.875 66.355 80.507 65.723 161.397 146.613 160.765 147.245"/>
      <polyline class="q" points="161.397 146.613 80.507 65.723 81.139 65.091 162.029 145.981 161.397 146.613"/>
      <polyline class="r" points="162.029 145.981 81.139 65.091 81.771 64.459 162.661 145.349 162.029 145.981"/>
      <polyline class="r" points="162.661 145.349 81.771 64.459 82.403 63.827 163.293 144.717 162.661 145.349"/>
      <polyline class="r" points="163.293 144.717 82.403 63.827 83.035 63.195 163.925 144.085 163.293 144.717"/>
      <polyline class="s" points="163.925 144.085 83.035 63.195 83.667 62.563 164.557 143.453 163.925 144.085"/>
      <polyline class="s" points="164.557 143.453 83.667 62.563 84.299 61.931 165.189 142.821 164.557 143.453"/>
      <polyline class="s" points="165.189 142.821 84.299 61.931 84.931 61.299 165.821 142.189 165.189 142.821"/>
      <polyline class="t" points="165.821 142.189 84.931 61.299 85.563 60.667 166.453 141.557 165.821 142.189"/>
      <polyline class="u" points="166.453 141.557 85.563 60.667 86.194 60.035 167.085 140.925 166.453 141.557"/>
      <polyline class="u" points="167.085 140.925 86.194 60.035 86.826 59.403 167.716 140.293 167.085 140.925"/>
      <polyline class="u" points="167.716 140.293 86.826 59.403 87.458 58.771 168.348 139.661 167.716 140.293"/>
      <polyline class="v" points="168.348 139.661 87.458 58.771 88.09 58.139 168.98 139.029 168.348 139.661"/>
      <polyline class="v" points="168.98 139.029 88.09 58.139 88.722 57.507 169.612 138.397 168.98 139.029"/>
      <polyline class="v" points="169.612 138.397 88.722 57.507 89.354 56.875 170.244 137.765 169.612 138.397"/>
      <polyline class="w" points="170.244 137.765 89.354 56.875 89.986 56.243 170.876 137.133 170.244 137.765"/>
      <polyline class="x" points="170.876 137.133 89.986 56.243 90.618 55.611 171.508 136.501 170.876 137.133"/>
      <polyline class="x" points="171.508 136.501 90.618 55.611 91.25 54.979 172.14 135.87 171.508 136.501"/>
      <polyline class="x" points="172.14 135.87 91.25 54.979 91.882 54.348 172.772 135.238 172.14 135.87"/>
      <polyline class="y" points="172.772 135.238 91.882 54.348 92.514 53.716 173.404 134.606 172.772 135.238"/>
      <polyline class="y" points="173.404 134.606 92.514 53.716 93.146 53.084 174.036 133.974 173.404 134.606"/>
      <polyline class="y" points="174.036 133.974 93.146 53.084 93.778 52.452 174.668 133.342 174.036 133.974"/>
      <polyline class="z" points="174.668 133.342 93.778 52.452 94.41 51.82 175.3 132.71 174.668 133.342"/>
      <polyline class="aa" points="175.3 132.71 94.41 51.82 95.042 51.188 175.932 132.078 175.3 132.71"/>
      <polyline class="aa" points="175.932 132.078 95.042 51.188 95.674 50.556 176.564 131.446 175.932 132.078"/>
      <polyline class="ab" points="176.564 131.446 95.674 50.556 96.306 49.924 177.196 130.814 176.564 131.446"/>
      <polyline class="ac" points="177.196 130.814 96.306 49.924 96.938 49.292 177.828 130.182 177.196 130.814"/>
      <polyline class="ac" points="177.828 130.182 96.938 49.292 97.57 48.66 178.46 129.55 177.828 130.182"/>
      <polyline class="ac" points="178.46 129.55 97.57 48.66 98.202 48.028 179.092 128.918 178.46 129.55"/>
      <polyline class="ad" points="179.092 128.918 98.202 48.028 98.834 47.396 179.724 128.286 179.092 128.918"/>
      <polyline class="ae" points="179.724 128.286 98.834 47.396 99.466 46.764 180.356 127.654 179.724 128.286"/>
      <polyline class="ae" points="180.356 127.654 99.466 46.764 100.098 46.132 180.988 127.022 180.356 127.654"/>
      <polyline class="af" points="180.988 127.022 100.098 46.132 100.729 45.5 181.619 126.39 180.988 127.022"/>
      <polyline class="ag" points="181.619 126.39 100.729 45.5 101.361 44.868 182.251 125.758 181.619 126.39"/>
      <polyline class="ag" points="182.251 125.758 101.361 44.868 101.993 44.236 182.883 125.126 182.251 125.758"/>
      <polyline class="ag" points="182.883 125.126 101.993 44.236 102.625 43.604 183.515 124.494 182.883 125.126"/>
      <polyline class="ah" points="183.515 124.494 102.625 43.604 103.257 42.972 184.147 123.862 183.515 124.494"/>
      <polyline class="ah" points="184.147 123.862 103.257 42.972 103.889 42.341 184.779 123.231 184.147 123.862"/>
      <polyline class="ah" points="184.779 123.231 103.889 42.341 104.521 41.709 185.411 122.599 184.779 123.231"/>
      <polyline class="ai" points="185.411 122.599 104.521 41.709 105.153 41.077 186.043 121.967 185.411 122.599"/>
      <polyline class="aj" points="186.043 121.967 105.153 41.077 105.785 40.445 186.675 121.335 186.043 121.967"/>
      <polyline class="aj" points="186.675 121.335 105.785 40.445 106.417 39.813 187.307 120.703 186.675 121.335"/>
      <polyline class="ak" points="187.307 120.703 106.417 39.813 107.049 39.181 187.939 120.071 187.307 120.703"/>
      <polyline class="al" points="187.939 120.071 107.049 39.181 107.681 38.549 188.571 119.439 187.939 120.071"/>
      <polyline class="al" points="188.571 119.439 107.681 38.549 108.313 37.917 189.203 118.807 188.571 119.439"/>
      <polyline class="am" points="189.203 118.807 108.313 37.917 108.945 37.285 189.835 118.175 189.203 118.807"/>
      <polyline class="an" points="189.835 118.175 108.945 37.285 109.577 36.653 190.467 117.543 189.835 118.175"/>
      <polyline class="an" points="190.467 117.543 109.577 36.653 110.209 36.021 191.099 116.911 190.467 117.543"/>
      <polyline class="an" points="191.099 116.911 110.209 36.021 110.841 35.389 191.731 116.279 191.099 116.911"/>
      <polyline class="ao" points="191.731 116.279 110.841 35.389 111.473 34.757 192.363 115.647 191.731 116.279"/>
      <polyline class="ap" points="192.363 115.647 111.473 34.757 112.105 34.125 192.995 115.015 192.363 115.647"/>
      <polyline class="ap" points="192.995 115.015 112.105 34.125 112.737 33.493 193.627 114.383 192.995 115.015"/>
      <polyline class="aq" points="193.627 114.383 112.737 33.493 113.369 32.861 194.259 113.751 193.627 114.383"/>
      <polyline class="ar" points="194.259 113.751 113.369 32.861 114.001 32.229 194.891 113.119 194.259 113.751"/>
      <polyline class="ar" points="194.891 113.119 114.001 32.229 114.633 31.597 195.522 112.487 194.891 113.119"/>
      <polyline class="as" points="195.522 112.487 114.633 31.597 115.264 30.966 196.154 111.855 195.522 112.487"/>
      <polyline class="at" points="196.154 111.855 115.264 30.966 115.896 30.333 196.786 111.224 196.154 111.855"/>
      <polyline class="at" points="196.786 111.224 115.896 30.334 116.528 29.702 197.418 110.592 196.786 111.224"/>
      <polyline class="au" points="197.418 110.592 116.528 29.702 117.16 29.07 198.05 109.96 197.418 110.592"/>
      <polyline class="av" points="198.05 109.96 117.16 29.07 117.792 28.438 198.682 109.328 198.05 109.96"/>
      <polyline class="av" points="198.682 109.328 117.792 28.438 118.424 27.806 199.314 108.696 198.682 109.328"/>
      <polyline class="aw" points="199.314 108.696 118.424 27.806 119.056 27.174 199.946 108.064 199.314 108.696"/>
      <polyline class="ax" points="199.946 108.064 119.056 27.174 119.688 26.542 200.578 107.432 199.946 108.064"/>
      <polyline class="ax" points="200.578 107.432 119.688 26.542 120.32 25.91 201.21 106.8 200.578 107.432"/>
      <polyline class="ax" points="201.21 106.8 120.32 25.91 120.952 25.278 201.842 106.168 201.21 106.8"/>
      <polyline class="ay" points="201.842 106.168 120.952 25.278 121.584 24.646 202.474 105.536 201.842 106.168"/>
      <polyline class="az" points="202.474 105.536 121.584 24.646 122.216 24.014 203.106 104.904 202.474 105.536"/>
      <polyline class="az" points="203.106 104.904 122.216 24.014 122.848 23.382 203.738 104.272 203.106 104.904"/>
      <polyline class="ba" points="203.738 104.272 122.848 23.382 123.48 22.75 204.37 103.64 203.738 104.272"/>
      <polyline class="bb" points="204.37 103.64 123.48 22.75 124.112 22.118 205.002 103.008 204.37 103.64"/>
      <polyline class="bb" points="205.002 103.008 124.112 22.118 124.744 21.486 205.634 102.376 205.002 103.008"/>
      <polyline class="bc" points="205.634 102.376 124.744 21.486 125.376 20.854 206.266 101.744 205.634 102.376"/>
      <polyline class="bd" points="206.266 101.744 125.376 20.854 126.008 20.222 206.898 101.112 206.266 101.744"/>
      <polyline class="bd" points="206.898 101.112 126.008 20.222 126.64 19.59 207.53 100.48 206.898 101.112"/>
      <polyline class="be" points="207.53 100.48 126.64 19.59 127.272 18.958 208.162 99.848 207.53 100.48"/>
      <polyline class="bf" points="208.162 99.848 127.272 18.958 127.904 18.326 208.794 99.216 208.162 99.848"/>
      <polyline class="bf" points="208.794 99.216 127.904 18.326 128.536 17.695 209.426 98.585 208.794 99.216"/>
      <polyline class="bg" points="209.426 98.585 128.536 17.695 129.167 17.063 210.057 97.953 209.426 98.585"/>
      <polyline class="bh" points="210.057 97.953 129.167 17.063 129.799 16.431 210.689 97.321 210.057 97.953"/>
      <polyline class="bh" points="210.689 97.321 129.799 16.431 130.431 15.799 211.321 96.689 210.689 97.321"/>
      <polyline class="bi" points="211.321 96.689 130.431 15.799 131.063 15.167 211.953 96.057 211.321 96.689"/>
      <polyline class="bj" points="211.953 96.057 131.063 15.167 131.695 14.535 212.585 95.425 211.953 96.057"/>
      <polyline class="bk" points="212.585 95.425 131.695 14.535 132.327 13.903 213.217 94.793 212.585 95.425"/>
      <polyline class="bk" points="213.217 94.793 132.327 13.903 132.959 13.271 213.849 94.161 213.217 94.793"/>
      <polyline class="bl" points="213.849 94.161 132.959 13.271 133.591 12.639 214.481 93.529 213.849 94.161"/>
      <polyline class="bm" points="214.481 93.529 133.591 12.639 134.223 12.007 215.113 92.897 214.481 93.529"/>
      <polyline class="bm" points="215.113 92.897 134.223 12.007 134.855 11.375 215.745 92.265 215.113 92.897"/>
      <polyline class="bn" points="215.745 92.265 134.855 11.375 135.487 10.743 216.377 91.633 215.745 92.265"/>
      <polyline class="bo" points="216.377 91.633 135.487 10.743 136.119 10.111 217.009 91.001 216.377 91.633"/>
      <polyline class="bo" points="217.009 91.001 136.119 10.111 136.751 9.479 217.641 90.369 217.009 91.001"/>
      <polyline class="bp" points="217.641 90.369 136.751 9.479 137.383 8.847 218.273 89.737 217.641 90.369"/>
      <polyline class="bq" points="218.273 89.737 137.383 8.847 138.015 8.215 218.905 89.105 218.273 89.737"/>
      <polyline class="bq" points="218.905 89.105 138.015 8.215 138.647 7.583 219.537 88.473 218.905 89.105"/>
      <polyline class="br" points="219.537 88.473 138.647 7.583 139.279 6.951 220.169 87.841 219.537 88.473"/>
      <polyline class="bs" points="220.169 87.841 139.279 6.951 139.911 6.32 220.801 87.21 220.169 87.841"/>
      <polyline class="bs" points="220.801 87.21 139.911 6.32 140.543 5.688 221.433 86.578 220.801 87.21"/>
      <polyline class="bt" points="221.433 86.578 140.543 5.688 141.175 5.056 222.065 85.946 221.433 86.578"/>
      <polyline class="bu" points="222.065 85.946 141.175 5.056 141.806 4.424 222.697 85.314 222.065 85.946"/>
      <polyline class="bv" points="222.697 85.314 141.806 4.424 142.438 3.792 223.328 84.682 222.697 85.314"/>
      <polyline class="bv" points="223.328 84.682 142.438 3.792 143.07 3.16 223.96 84.05 223.328 84.682"/>
      <polyline class="bw" points="223.96 84.05 143.07 3.16 143.702 2.528 224.592 83.418 223.96 84.05"/>
      <polyline class="bx" points="224.592 83.418 143.702 2.528 144.334 1.896 225.224 82.786 224.592 83.418"/>
      <polyline class="bx" points="225.224 82.786 144.334 1.896 144.966 1.264 225.856 82.154 225.224 82.786"/>
      <polyline class="by" points="225.856 82.154 144.966 1.264 145.598 0.632 226.488 81.522 225.856 82.154"/>
      <polyline class="bz" points="226.488 81.522 145.598 0.632 146.23 0 227.12 80.89 226.488 81.522"/>
      <polyline class="bz" points="227.12 80.89 146.23 0 146.23 0 227.12 80.89 227.12 80.89"/>
    </g>
    <polygon class="c" points="110.23 36 182.23 36 182.23 125.78 110.23 125.78 110.23 36 110.23 36"/>
    <path class="cb" d="M405.23,369.01c6.91,19.37,20.88,24.77,36,26.78m-36,26.79c6.91-19.37,20.88-24.77,36-26.79" transform="translate(-169 -270.01)"/>
    <path class="c" d="M409.77,378.01c-13.54,9-13.54,22.46,0,36" transform="translate(-169 -270.01)"/>
    <g class="cc">
      <path class="bz" d="M395.365,395.725h27.929a28.149,28.149,0,1,0-28.149,28.149,28.159,28.159,0,0,0,28.149-28.149" transform="translate(-169 -270.01)"/>
      <path class="bz" d="M395.339,395.725h24.577A24.771,24.771,0,1,0,395.145,420.5a24.78,24.78,0,0,0,24.771-24.771" transform="translate(-169 -270.01)"/>
      <path class="cd" d="M395.339,395.725h24.384A24.577,24.577,0,1,0,395.145,420.3a24.586,24.586,0,0,0,24.577-24.577" transform="translate(-169 -270.01)"/>
      <path class="ce" d="M395.339,395.725h24.19a24.384,24.384,0,1,0-24.384,24.384,24.393,24.393,0,0,0,24.384-24.384" transform="translate(-169 -270.01)"/>
      <path class="cf" d="M395.339,395.725h24a24.19,24.19,0,1,0-24.19,24.19,24.2,24.2,0,0,0,24.19-24.19" transform="translate(-169 -270.01)"/>
      <path class="cg" d="M395.339,395.725h23.8a24,24,0,1,0-24,24,24.006,24.006,0,0,0,24-24" transform="translate(-169 -270.01)"/>
      <path class="ch" d="M395.339,395.725h23.61a23.8,23.8,0,1,0-23.8,23.8,23.812,23.812,0,0,0,23.8-23.8" transform="translate(-169 -270.01)"/>
      <path class="ci" d="M395.339,395.725h23.416a23.61,23.61,0,1,0-23.61,23.61,23.618,23.618,0,0,0,23.61-23.61" transform="translate(-169 -270.01)"/>
      <path class="cj" d="M395.339,395.725h23.223a23.416,23.416,0,1,0-23.416,23.416,23.425,23.425,0,0,0,23.416-23.416" transform="translate(-169 -270.01)"/>
      <path class="ck" d="M395.339,395.725h23.029a23.223,23.223,0,1,0-23.223,23.223,23.231,23.231,0,0,0,23.223-23.223" transform="translate(-169 -270.01)"/>
      <path class="cl" d="M395.339,395.725h22.836a23.029,23.029,0,1,0-23.029,23.029,23.038,23.038,0,0,0,23.029-23.029" transform="translate(-169 -270.01)"/>
      <path class="cm" d="M395.339,395.725h22.642a22.836,22.836,0,1,0-22.836,22.836,22.844,22.844,0,0,0,22.836-22.836" transform="translate(-169 -270.01)"/>
      <path class="cn" d="M395.339,395.725h22.449a22.642,22.642,0,1,0-22.642,22.642,22.65,22.65,0,0,0,22.642-22.642" transform="translate(-169 -270.01)"/>
      <path class="co" d="M395.339,395.725h22.255a22.449,22.449,0,1,0-22.449,22.449,22.457,22.457,0,0,0,22.449-22.449" transform="translate(-169 -270.01)"/>
      <path class="cp" d="M395.339,395.725H417.4a22.255,22.255,0,1,0-22.255,22.255A22.263,22.263,0,0,0,417.4,395.725" transform="translate(-169 -270.01)"/>
      <path class="cq" d="M395.339,395.725h21.868a22.062,22.062,0,1,0-22.062,22.062,22.07,22.07,0,0,0,22.062-22.062" transform="translate(-169 -270.01)"/>
      <path class="cr" d="M395.339,395.725h21.674a21.868,21.868,0,1,0-21.868,21.868,21.876,21.876,0,0,0,21.868-21.868" transform="translate(-169 -270.01)"/>
      <path class="cs" d="M395.339,395.725h21.481A21.674,21.674,0,1,0,395.145,417.4a21.682,21.682,0,0,0,21.674-21.674" transform="translate(-169 -270.01)"/>
      <path class="ct" d="M395.339,395.725h21.287a21.481,21.481,0,1,0-21.481,21.481,21.489,21.489,0,0,0,21.481-21.481" transform="translate(-169 -270.01)"/>
      <path class="cu" d="M395.339,395.725h21.094a21.287,21.287,0,1,0-21.287,21.287,21.3,21.3,0,0,0,21.287-21.287" transform="translate(-169 -270.01)"/>
      <path class="cv" d="M395.339,395.725h20.9a21.094,21.094,0,1,0-21.094,21.094,21.1,21.1,0,0,0,21.094-21.094" transform="translate(-169 -270.01)"/>
      <path class="cw" d="M395.339,395.725h20.707a20.9,20.9,0,1,0-20.9,20.9,20.908,20.908,0,0,0,20.9-20.9" transform="translate(-169 -270.01)"/>
      <path class="cx" d="M395.339,395.725h20.513a20.707,20.707,0,1,0-20.707,20.707,20.714,20.714,0,0,0,20.707-20.707" transform="translate(-169 -270.01)"/>
      <path class="cy" d="M395.339,395.725h20.32a20.513,20.513,0,1,0-20.513,20.513,20.521,20.521,0,0,0,20.513-20.513" transform="translate(-169 -270.01)"/>
      <path class="cz" d="M395.339,395.725h20.126a20.32,20.32,0,1,0-20.32,20.32,20.327,20.327,0,0,0,20.32-20.32" transform="translate(-169 -270.01)"/>
      <path class="da" d="M395.339,395.725h19.933a20.126,20.126,0,1,0-20.126,20.126,20.134,20.134,0,0,0,20.126-20.126" transform="translate(-169 -270.01)"/>
      <path class="db" d="M395.339,395.725h19.739a19.933,19.933,0,1,0-19.933,19.933,19.94,19.94,0,0,0,19.933-19.933" transform="translate(-169 -270.01)"/>
      <path class="dc" d="M395.339,395.725h19.546a19.739,19.739,0,1,0-19.739,19.739,19.746,19.746,0,0,0,19.739-19.739" transform="translate(-169 -270.01)"/>
      <path class="dd" d="M395.339,395.725h19.352a19.546,19.546,0,1,0-19.546,19.546,19.553,19.553,0,0,0,19.546-19.546" transform="translate(-169 -270.01)"/>
      <path class="de" d="M395.339,395.725H414.5a19.352,19.352,0,1,0-19.352,19.352A19.359,19.359,0,0,0,414.5,395.725" transform="translate(-169 -270.01)"/>
      <path class="df" d="M395.339,395.725H414.3a19.159,19.159,0,1,0-19.159,19.159A19.166,19.166,0,0,0,414.3,395.725" transform="translate(-169 -270.01)"/>
      <path class="dg" d="M395.339,395.725H414.11a18.965,18.965,0,1,0-18.965,18.965,18.972,18.972,0,0,0,18.965-18.965" transform="translate(-169 -270.01)"/>
      <path class="dh" d="M395.339,395.725h18.578A18.772,18.772,0,1,0,395.145,414.5a18.779,18.779,0,0,0,18.772-18.772" transform="translate(-169 -270.01)"/>
      <path class="di" d="M395.339,395.725h18.385A18.578,18.578,0,1,0,395.145,414.3a18.585,18.585,0,0,0,18.578-18.578" transform="translate(-169 -270.01)"/>
      <path class="dj" d="M395.339,395.725H413.53a18.385,18.385,0,1,0-18.385,18.385,18.391,18.391,0,0,0,18.385-18.385" transform="translate(-169 -270.01)"/>
      <path class="dk" d="M395.339,395.725h18a18.191,18.191,0,1,0-18.191,18.191,18.2,18.2,0,0,0,18.191-18.191" transform="translate(-169 -270.01)"/>
      <path class="dl" d="M395.339,395.725h17.8a18,18,0,1,0-18,18,18,18,0,0,0,18-18" transform="translate(-169 -270.01)"/>
      <path class="dm" d="M395.339,395.725h17.611a17.8,17.8,0,1,0-17.8,17.8,17.811,17.811,0,0,0,17.8-17.8" transform="translate(-169 -270.01)"/>
      <path class="dn" d="M395.339,395.725h17.417a17.611,17.611,0,1,0-17.611,17.611,17.617,17.617,0,0,0,17.611-17.611" transform="translate(-169 -270.01)"/>
      <path class="do" d="M395.339,395.725h17.224a17.417,17.417,0,1,0-17.417,17.417,17.423,17.423,0,0,0,17.417-17.417" transform="translate(-169 -270.01)"/>
      <path class="dp" d="M395.339,395.725h17.03a17.223,17.223,0,1,0-17.224,17.224,17.23,17.23,0,0,0,17.224-17.224" transform="translate(-169 -270.01)"/>
      <path class="dq" d="M395.339,395.725h16.836a17.03,17.03,0,1,0-17.03,17.03,17.036,17.036,0,0,0,17.03-17.03" transform="translate(-169 -270.01)"/>
      <path class="dr" d="M395.339,395.725h16.643a16.836,16.836,0,1,0-16.836,16.836,16.843,16.843,0,0,0,16.836-16.836" transform="translate(-169 -270.01)"/>
      <path class="ds" d="M395.339,395.725h16.449a16.643,16.643,0,1,0-16.643,16.643,16.649,16.649,0,0,0,16.643-16.643" transform="translate(-169 -270.01)"/>
      <path class="dt" d="M395.339,395.725h16.256a16.449,16.449,0,1,0-16.449,16.449,16.455,16.455,0,0,0,16.449-16.449" transform="translate(-169 -270.01)"/>
      <path class="du" d="M395.339,395.725H411.4a16.256,16.256,0,1,0-16.256,16.256A16.262,16.262,0,0,0,411.4,395.725" transform="translate(-169 -270.01)"/>
      <path class="dv" d="M395.339,395.725h15.869a16.062,16.062,0,1,0-16.062,16.062,16.068,16.068,0,0,0,16.062-16.062" transform="translate(-169 -270.01)"/>
      <path class="dw" d="M395.339,395.725h15.675a15.869,15.869,0,1,0-15.869,15.869,15.875,15.875,0,0,0,15.869-15.869" transform="translate(-169 -270.01)"/>
      <path class="dx" d="M395.339,395.725H410.82A15.675,15.675,0,1,0,395.145,411.4a15.681,15.681,0,0,0,15.675-15.675" transform="translate(-169 -270.01)"/>
      <path class="dy" d="M395.339,395.725h15.288a15.482,15.482,0,1,0-15.482,15.482,15.487,15.487,0,0,0,15.482-15.482" transform="translate(-169 -270.01)"/>
      <path class="dz" d="M395.339,395.725h15.095a15.288,15.288,0,1,0-15.288,15.288,15.294,15.294,0,0,0,15.288-15.288" transform="translate(-169 -270.01)"/>
      <path class="ea" d="M395.339,395.725h14.9a15.095,15.095,0,1,0-15.095,15.095,15.1,15.1,0,0,0,15.095-15.095" transform="translate(-169 -270.01)"/>
      <path class="eb" d="M395.339,395.725h14.708a14.9,14.9,0,1,0-14.9,14.9,14.907,14.907,0,0,0,14.9-14.9" transform="translate(-169 -270.01)"/>
      <path class="ec" d="M395.339,395.725h14.514a14.708,14.708,0,1,0-14.708,14.708,14.713,14.713,0,0,0,14.708-14.708" transform="translate(-169 -270.01)"/>
      <path class="ed" d="M395.339,395.725h14.321a14.514,14.514,0,1,0-14.514,14.514,14.519,14.519,0,0,0,14.514-14.514" transform="translate(-169 -270.01)"/>
      <path class="ee" d="M395.339,395.725h14.127a14.321,14.321,0,1,0-14.321,14.321,14.326,14.326,0,0,0,14.321-14.321" transform="translate(-169 -270.01)"/>
      <path class="ef" d="M395.339,395.725h13.934a14.127,14.127,0,1,0-14.127,14.127,14.132,14.132,0,0,0,14.127-14.127" transform="translate(-169 -270.01)"/>
      <path class="eg" d="M395.339,395.725h13.74a13.934,13.934,0,1,0-13.934,13.934,13.939,13.939,0,0,0,13.934-13.934" transform="translate(-169 -270.01)"/>
      <path class="eh" d="M395.339,395.725h13.547a13.74,13.74,0,1,0-13.74,13.74,13.745,13.745,0,0,0,13.74-13.74" transform="translate(-169 -270.01)"/>
      <path class="ei" d="M395.339,395.725h13.353a13.547,13.547,0,1,0-13.547,13.547,13.552,13.552,0,0,0,13.547-13.547" transform="translate(-169 -270.01)"/>
      <path class="ej" d="M395.339,395.725H408.5a13.353,13.353,0,1,0-13.353,13.353A13.358,13.358,0,0,0,408.5,395.725" transform="translate(-169 -270.01)"/>
      <path class="ek" d="M395.339,395.725H408.3a13.16,13.16,0,1,0-13.16,13.16,13.164,13.164,0,0,0,13.16-13.16" transform="translate(-169 -270.01)"/>
      <path class="el" d="M395.339,395.725h12.772a12.966,12.966,0,1,0-12.966,12.966,12.971,12.971,0,0,0,12.966-12.966" transform="translate(-169 -270.01)"/>
      <path class="em" d="M395.339,395.725h12.579A12.772,12.772,0,1,0,395.145,408.5a12.777,12.777,0,0,0,12.773-12.772" transform="translate(-169 -270.01)"/>
      <path class="en" d="M395.339,395.725h12.385A12.579,12.579,0,1,0,395.145,408.3a12.584,12.584,0,0,0,12.579-12.579" transform="translate(-169 -270.01)"/>
      <path class="eo" d="M395.339,395.725H407.53a12.385,12.385,0,1,0-12.385,12.385,12.39,12.39,0,0,0,12.385-12.385" transform="translate(-169 -270.01)"/>
      <path class="ep" d="M395.339,395.725h12a12.192,12.192,0,1,0-12.192,12.192,12.2,12.2,0,0,0,12.192-12.192" transform="translate(-169 -270.01)"/>
      <path class="eq" d="M395.339,395.725h11.8a12,12,0,1,0-12,12,12,12,0,0,0,12-12" transform="translate(-169 -270.01)"/>
      <path class="er" d="M395.339,395.725H406.95a11.8,11.8,0,1,0-11.8,11.8,11.809,11.809,0,0,0,11.8-11.8" transform="translate(-169 -270.01)"/>
      <path class="es" d="M395.339,395.725h11.418a11.611,11.611,0,1,0-11.611,11.611,11.616,11.616,0,0,0,11.611-11.611" transform="translate(-169 -270.01)"/>
      <path class="et" d="M395.339,395.725h11.224a11.418,11.418,0,1,0-11.418,11.418,11.422,11.422,0,0,0,11.418-11.418" transform="translate(-169 -270.01)"/>
      <path class="eu" d="M395.339,395.725h11.031a11.224,11.224,0,1,0-11.224,11.224,11.228,11.228,0,0,0,11.224-11.224" transform="translate(-169 -270.01)"/>
      <path class="ev" d="M395.339,395.725h10.837a11.031,11.031,0,1,0-11.031,11.031,11.035,11.035,0,0,0,11.031-11.031" transform="translate(-169 -270.01)"/>
      <path class="ew" d="M395.339,395.725h10.644a10.837,10.837,0,1,0-10.837,10.837,10.841,10.841,0,0,0,10.837-10.837" transform="translate(-169 -270.01)"/>
      <path class="ex" d="M395.339,395.725h10.45a10.644,10.644,0,1,0-10.644,10.644,10.648,10.648,0,0,0,10.644-10.644" transform="translate(-169 -270.01)"/>
      <path class="ey" d="M395.339,395.725H405.6a10.45,10.45,0,1,0-10.45,10.45,10.454,10.454,0,0,0,10.45-10.45" transform="translate(-169 -270.01)"/>
      <path class="ez" d="M395.339,395.725H405.4a10.257,10.257,0,1,0-10.257,10.257A10.26,10.26,0,0,0,405.4,395.725" transform="translate(-169 -270.01)"/>
      <path class="fa" d="M395.339,395.725h9.87a10.063,10.063,0,1,0-10.063,10.063,10.067,10.067,0,0,0,10.063-10.063" transform="translate(-169 -270.01)"/>
      <path class="fb" d="M395.339,395.725h9.676a9.87,9.87,0,1,0-9.87,9.87,9.873,9.873,0,0,0,9.87-9.87" transform="translate(-169 -270.01)"/>
      <path class="fc" d="M395.339,395.725h9.483a9.676,9.676,0,1,0-9.676,9.676,9.68,9.68,0,0,0,9.676-9.676" transform="translate(-169 -270.01)"/>
      <path class="fd" d="M395.339,395.725h9.289a9.483,9.483,0,1,0-9.483,9.483,9.486,9.486,0,0,0,9.483-9.483" transform="translate(-169 -270.01)"/>
      <path class="fe" d="M395.339,395.725h9.1a9.289,9.289,0,1,0-9.289,9.289,9.293,9.293,0,0,0,9.289-9.289" transform="translate(-169 -270.01)"/>
      <path class="ff" d="M395.339,395.725h8.9a9.1,9.1,0,1,0-9.1,9.1,9.1,9.1,0,0,0,9.1-9.1" transform="translate(-169 -270.01)"/>
      <path class="fg" d="M395.339,395.725h8.709a8.9,8.9,0,1,0-8.9,8.9,8.905,8.905,0,0,0,8.9-8.9" transform="translate(-169 -270.01)"/>
      <path class="fh" d="M395.339,395.725h8.515a8.709,8.709,0,1,0-8.709,8.708,8.712,8.712,0,0,0,8.709-8.708" transform="translate(-169 -270.01)"/>
      <path class="fi" d="M395.339,395.725h8.321a8.515,8.515,0,1,0-8.515,8.515,8.518,8.518,0,0,0,8.515-8.515" transform="translate(-169 -270.01)"/>
      <path class="fj" d="M395.339,395.725h8.128a8.321,8.321,0,1,0-8.321,8.321,8.324,8.324,0,0,0,8.321-8.321" transform="translate(-169 -270.01)"/>
      <path class="fk" d="M395.339,395.725h7.934a8.128,8.128,0,1,0-8.128,8.128,8.131,8.131,0,0,0,8.128-8.128" transform="translate(-169 -270.01)"/>
      <path class="fl" d="M395.339,395.725h7.741a7.934,7.934,0,1,0-7.934,7.934,7.937,7.937,0,0,0,7.934-7.934" transform="translate(-169 -270.01)"/>
      <path class="fm" d="M395.339,395.725h7.547a7.741,7.741,0,1,0-7.741,7.741,7.744,7.744,0,0,0,7.741-7.741" transform="translate(-169 -270.01)"/>
      <path class="fn" d="M395.339,395.725h7.354a7.547,7.547,0,1,0-7.547,7.547,7.55,7.55,0,0,0,7.547-7.547" transform="translate(-169 -270.01)"/>
      <path class="fo" d="M395.339,395.725h7.16a7.354,7.354,0,1,0-7.354,7.354,7.357,7.357,0,0,0,7.354-7.354" transform="translate(-169 -270.01)"/>
      <path class="fp" d="M395.339,395.725h6.967a7.16,7.16,0,1,0-7.16,7.16,7.163,7.163,0,0,0,7.16-7.16" transform="translate(-169 -270.01)"/>
      <path class="fq" d="M395.339,395.725h6.773a6.967,6.967,0,1,0-6.967,6.967,6.969,6.969,0,0,0,6.967-6.967" transform="translate(-169 -270.01)"/>
      <path class="fr" d="M395.339,395.725h6.58a6.773,6.773,0,1,0-6.773,6.773,6.776,6.776,0,0,0,6.773-6.773" transform="translate(-169 -270.01)"/>
      <path class="fs" d="M395.339,395.725h6.386a6.58,6.58,0,1,0-6.58,6.58,6.582,6.582,0,0,0,6.58-6.58" transform="translate(-169 -270.01)"/>
    </g>
    <path class="c" d="M405.52,409.26c9.29-8.86,8.42-18.07-.72-27.07a18.788,18.788,0,0,0-3.1,4.1c6.41,5.83,7.99,12.89,1.08,18.79,0.87,1.44,1.8,2.81,2.74,4.18h0Z" transform="translate(-169 -270.01)"/>
    <path class="ft" d="M400.48,400.04c-1.15-4.25-1.01-5.61-.43-9.5,0-1.59,2.73-6.12,1.65-4.25,6.41,5.83,7.99,12.89,1.08,18.79,0.87,1.44-1.94-3.24-2.3-5.04h0Z" transform="translate(-169 -270.01)"/>
    <path class="cb" d="M200.82,350.22l78.34-35.14m-77.69,55.87,77.69-55.87M203.85,330.2l75.31-15.12M201.4,353.39l77.76,33.62m-75.82-53.93,75.82,53.93m-77.04-14.26,77.04,14.26" transform="translate(-169 -270.01)"/>
    <path class="c" d="M204.49,361.81c3.24-.79,6.99,2.38,8.28,7.27s-0.36,9.58-3.6,10.37c-3.16.86-6.84-2.38-8.13-7.27s0.29-9.51,3.45-10.37h0Z" transform="translate(-169 -270.01)"/>
    <path class="fu" d="M206.08,367.79c-0.43-1.73-.58-2.45-4.83-1.44-1.22,2.73.36,8.28,1.88,9.72,3.31-.58,4.6-1.08,4.53-2.45-1.01.14-2.3-.87-2.73-2.45s0.07-3.17,1.15-3.38h0Z" transform="translate(-169 -270.01)"/>
    <path class="c" d="M206.08,367.79c1.08-.29,2.3.72,2.73,2.3,0.44,1.66-.07,3.24-1.15,3.53-1.08.21-2.3-.79-2.73-2.45-0.44-1.58.07-3.17,1.15-3.38h0Z" transform="translate(-169 -270.01)"/>
    <path class="fu" d="M204.49,348.56c-1.94-2.09-5.97-3.6-5.61,3.17s3.74,4.32,5.61,2.95c-1.08,0-2.01-1.37-2.01-3.09,0-1.66.93-3.03,2.01-3.03h0Z" transform="translate(-169 -270.01)"/>
    <path class="c" d="M204.49,348.56c1.08,0,2.02,1.37,2.02,3.03,0,1.72-.94,3.09-2.02,3.09s-2.01-1.37-2.01-3.09c0-1.66.93-3.03,2.01-3.03h0Z" transform="translate(-169 -270.01)"/>
    <path class="fv" d="M207.88,329.34c-0.94-2.38-4.54-4.25-6.19,1.22s1.22,5.33,4.6,4.68c-1.08-.29-1.58-1.94-1.15-3.53s1.66-2.66,2.74-2.37h0Z" transform="translate(-169 -270.01)"/>
    <path class="c" d="M207.88,329.34c1.08,0.29,1.58,1.87,1.15,3.45s-1.66,2.74-2.74,2.45-1.58-1.94-1.15-3.53,1.66-2.66,2.74-2.37h0Z" transform="translate(-169 -270.01)"/>
    <line class="fw" y1="125.78" x2="110.01" y2="125.78"/>
    <line class="fx" x1="110.23" y1="135" x2="33.48" y2="159.19"/>
    <line class="cb" x1="110.23" y1="135" x2="35.78" y2="198.07"/>
    <path class="fx" d="M279.23,405.01L201.61,448.5m77.62-43.49-71.21,5.62m71.21,66.38-78.62-45.14" transform="translate(-169 -270.01)"/>
    <line class="cb" x1="110.23" y1="207" x2="36.36" y2="200.16"/>
    <path class="fx" d="M279.23,477.01L201.4,451.67m77.83,25.34-72.65-63" transform="translate(-169 -270.01)"/>
    <path class="fv" d="M205.5,428.19c-2.88-3.88-5.25-1.72-6.05,2.24s2.74,5.32,5.26,3.74c-1.08-.14-1.87-1.66-1.66-3.31s1.37-2.81,2.45-2.67h0Z" transform="translate(-169 -270.01)"/>
    <path class="c" d="M205.5,428.19c1.08,0.15,1.8,1.59,1.59,3.24s-1.3,2.88-2.38,2.74-1.87-1.66-1.66-3.31,1.37-2.81,2.45-2.67h0Z" transform="translate(-169 -270.01)"/>
    <path class="fu" d="M210.97,410.19c-1.08-4.24-3.45-3.67-5.68-.07s0.14,6.91,3.45,5.69c-0.93-.43-1.29-1.94-0.65-3.53,0.58-1.51,1.95-2.52,2.88-2.09h0Z" transform="translate(-169 -270.01)"/>
    <path class="c" d="M210.97,410.19c1.08,0.44,1.44,2.02.87,3.53-0.65,1.59-2.02,2.52-3.1,2.09-0.93-.43-1.29-1.94-0.65-3.53,0.58-1.51,1.95-2.52,2.88-2.09h0Z" transform="translate(-169 -270.01)"/>
    <path class="fu" d="M204.57,446.84c-3.03-2.52-5.62,2.09-5.4,3.75,0.21,1.72,3.6,4.82,6.12,2.23-1.08.07-2.16-1.08-2.38-2.81-0.22-1.66.58-3.1,1.66-3.17h0Z" transform="translate(-169 -270.01)"/>
    <path class="c" d="M204.57,446.84c1.08-.14,2.16,1.01,2.37,2.67,0.22,1.72-.57,3.16-1.65,3.31-1.08.07-2.16-1.08-2.38-2.81-0.22-1.66.58-3.1,1.66-3.17h0Z" transform="translate(-169 -270.01)"/>
    <path class="fu" d="M208.24,464.77c-3.75-.86-4.68,3.31-4.11,4.82,0.58,1.59,5.04,5.55,6.27,1.23-1.01.36-2.52-.94-2.95-2.52s-0.22-2.74.79-3.53h0Z" transform="translate(-169 -270.01)"/>
    <path class="c" d="M208.24,464.77c1.08-.36,2.45.58,3.02,2.09,0.58,1.58.22,3.24-.86,3.6-1.01.36-2.38-.58-2.95-2.16-0.58-1.51-.22-3.17.79-3.53h0Z" transform="translate(-169 -270.01)"/>
    <text class="fy" transform="translate(13.871 83.804)">546.1</text>
    <text class="fz" transform="translate(18.866 59.182) rotate(14.801)">700</text>
    <text class="ga" transform="translate(17.632 108.132) rotate(-15)">435.8</text>
    <text class="gb" transform="translate(14.489 160.337) rotate(7.295)">546.1</text>
    <text class="gc" transform="translate(22.697 137.669) rotate(21.696)">700</text>
    <text class="gd" transform="matrix(0.994, -0.11, 0.11, 0.994, 14.071, 184.101)">435.8</text>
    <text class="ge" transform="matrix(0.919, -0.394, 0.394, 0.919, 27.818, 206.38)">?</text>
  </g>
</svg>
