<svg xmlns="http://www.w3.org/2000/svg" viewBox="-45 -45 90 90">
<desc>
    Show a top-down view of the OKLab color space.
    The rec2020 primaries and secondaries are shown,
    with an annotation indicating the L value.
    For comparison, the sRGB and display-p3 primaries and secondaries are also shown.
    Scaling is 100x -100x for a and b
</desc>
<rect x="-45" y="-45" width="100%" height="100%" fill="white" />
<g fill="none" stroke="black" stroke-width="0.2">

<!-- axes -->
​<polyline points="0 -45 0 45"/>
<polyline points="-45 0 45 0"/>

<!-- tic marks -->
<g stroke="#888">
<path d="M-1,-40 h2 M-1,-35 h2 M-1,-30 h2 M-1,-25 h2 M-1,-20 h2 M-1,-15 h2 M-1,-10 h2 M-1,-5 h2 M-1,5 h2 M-1,10 h2 M-1,15 h2 M-1,20 h2 M-1,25 h2 M-1,30 h2 M-1,35 h2 M-1,40 h2"/>

<path d="M40,-1 v2 M35,-1 v2 M30,-1 v2 M25,-1 v2 M20,-1 v2 M15,-1 v2 M10,-1 v2 M5,-1 v2 M-5,-1 v2 M-10,-1 v2 M-15,-1 v2 M-20,-1 v2 M-25,-1 v2 M-30,-1 v2 M-35,-1 v2 M-40,-1 v2"/>


<g stroke-dasharray="1 2" stroke="#bbb">
<!-- radial lines for sRGB  hue angle and chroma -->
<!-- <polyline points="0,0 80.81,-69.88"/>
<polyline points="0,0 -79.28,-80.99"/>
<polyline points="0,0 68.29,112.02"/>
<polyline points="0,0 -50.66,14.96"/>
<polyline points="0,0 93.54,60.49"/>
<polyline points="0,0 -15.75,-93.38"/> -->
</g>
<!-- radial lines for hue angle and chroma -->
<!-- <polyline points="0,0 116.89, -106.74"/>
<polyline points="0,0 -160.72, -109.23"/>
<polyline points="0,0 74.46,126.25"/>

<polyline points="0,0 -113.05, 20.83"/>
<polyline points="0,0 125.90, 60.10"/>
<polyline points="0,0 -14.92, -132.12"/> -->
</g>
</g>

<!-- boundary from https://codepen.io/svgeesus/pen/RwMrgZJ?editors=0010 -->
<polyline stroke="#BBD" stroke-width="0.4" fill="none" points="
22.486306106597397 , -12.584629853073508
15.892674557703437 , -13.83854471315422
10.933418916050053 , -14.89215827713285
6.988727115854232 , -15.811121637758346
3.7301945053456356 , -16.63207021384478
0.9637330966502211 , -17.377821522284652
-1.434348596113283 , -18.063682033250405
-3.5473920003108503 , -18.70048650502615
-5.434019660337724 , -19.29622362730241
-7.136908036816808 , -19.856975465179517
-8.530917889167256 , -19.664477082926567
-10.001862729720418 , -19.467846524340437
-11.55815589370569 , -19.266829696226818
-13.20962010565342 , -19.061143145126525
-14.967817107700238 , -18.850468571953805
-16.846479624921557 , -18.634445842296266
-18.86208652402545 , -18.41266392847164
-21.034642556240897 , -18.18464894436298
-23.388757418790817 , -17.949847989672985
-21.79310997502593 , -14.287208154246612
-20.47142846872097 , -11.12991719159523
-19.348907073145465 , -8.343260893462546
-18.37821520299046 , -5.841857028153818
-17.527317272435273 , -3.5677941709473804
-16.773428983788722 , -1.47978381070617
-16.099718528180397 , 0.45276117921273507
-15.493372096230118 , 2.2531994666496136
-14.944393961066076 , 3.939815774426181
-14.426510095197115 , 4.66036912508041
-13.892116190451492 , 5.413305332437601
-13.340160612967445 , 6.201645886855733
-12.769514277285854 , 7.028858466550347
-12.178972944083844 , 7.8989508220675635
-11.567266171461654 , 8.816591161597543
-10.933077856502276 , 9.787264690351517
-10.275086896393454 , 10.817480378833476
-9.592043004233581 , 11.915048959314733
-8.882904867158665 , 13.089464308353826
-8.147091384021692 , 14.352438950517143
-7.384944393155635 , 15.718676530257481
-6.598603000721848 , 17.207022089258405
-5.793720826756626 , 18.842241274882287
-4.983026140407565 , 20.657902846367726
-4.194270173913855 , 22.70132678718559
-3.4898964386953004 , 25.042736128839
-3.0235530422121015 , 27.79397602981273
-3.245698416876397 , 31.152814767837523
6.463433674955765 , 28.74156097476964
12.16020596960316 , 26.68000965062619
16.081687411642026 , 24.865708603303283
19.018913106302165 , 23.24008228175718
21.340341102337558 , 21.764657679079
23.24543843340824 , 20.412307323617885
24.85324039182084 , 19.162998423388643
26.239874265409192 , 18.001430103229776
27.456629431932853 , 16.915605926294262
27.563147456468744 , 15.165449582525936
27.617841130965136 , 13.250954723258069
27.60292490956816 , 11.134882464464246
27.492730445871345 , 8.765224676544815
27.24857847498607 , 6.065897990163204
26.808651076906603 , 2.9184426081134363
26.0654081844084 , -0.8786617638901983
24.80515310680514 , -5.718647798423354
22.486306106597397 , -12.584629853073508
"/>

<!--
r oklab(62.79554% 0.224863 0.125846) oklch(62.79554% 0.257683 29.23389)
g oklab(86.64396% -0.23389 0.179498) oklch(86.64396% 0.294827 142.4953)
b oklab(45.20137% -0.03246 -0.31153) oklch(45.20137% 0.313214 264.052)
c oklab(90.53992% -0.14944 -0.0394)  oklch(90.53992% 0.15455 194.7689)
m oklab(70.16739% 0.274566 -0.16916) oklch(70.16739% 0.322491 328.3634)
y oklab(96.79827% -0.07137 0.19857)  oklch(96.79827% 0.211006 109.7692)
-->


<!-- sRGB primaries and secondaries -->
<g stroke-dasharray=".1 .2" stroke="#bbb" stroke-width="0.2" fill="white">
  <circle r="1" cx="22.4863" cy="-12.5846" fill="#FF000040"><title>oklch(62.79554% 0.257683 29.23389)</title></circle>
  <circle r="1" cx="-23.389" cy="-17.9498" fill="#00FF0040"><title>oklch(86.64396% 0.294827 142.4953)</title></circle>
  <circle r="1" cx="-03.246" cy="31.153" fill="#0000FF40"><title>oklch(45.20137% 0.313214 264.052)</title></circle>
  <circle r="1" cx="-14.944" cy="03.94" fill="#00FFFF40"><title>oklch(90.53992% 0.15455 194.7689)</title></circle>
  <circle r="1" cx="27.4566" cy="16.916" fill="#FF00FF40"><title>oklch(70.16739% 0.322491 328.3634)</title></circle>
  <circle r="1" cx="-07.137" cy="-19.857" fill="#FFFF0040"><title>oklch(96.79827% 0.211006 109.7692)</title></circle>
</g>

<!-- 2020 primaries and secondaries -->
<!-- the fill colors are sRGB, *not the 2020 colors* -->

<!-- boundary from https://codepen.io/svgeesus/pen/RwMrgZJ?editors=0010 -->
<polyline stroke="#DBB" stroke-width="0.4" fill="none" points="
33.27304176413115 , -14.94382532233719
25.52920673636664 , -16.467925669615507
19.160109711435805 , -17.75406740361891
13.754995576122775 , -18.876245801729137
9.063901706823712 , -19.87780655248984
4.9229076442444 , -20.786435977280753
1.2185306112410366 , -21.620960922126052
-2.131101470585067 , -22.394805769228988
-5.187006918892534 , -23.117905394295736
-7.995875701372135 , -23.797835589821293
-10.485854300952186 , -23.574510701736486
-13.16926830353189 , -23.34623359152429
-16.077282287927076 , -23.11258659935428
-19.249118223679613 , -22.873060975514004
-22.735110017017195 , -22.627021440674866
-26.60137855616022 , -22.373650930321332
-30.937299971213182 , -22.11186065266749
-35.868084485419445 , -21.840135793885874
-41.57743674051274 , -21.556252739679138
-39.441952639520736 , -16.56167917627036
-37.80506920900397 , -12.47900217500646
-36.49333234837861 , -8.99640705469581
-35.41213581234749 , -5.943609994611854
-34.503578748115885 , -3.216223997404888
-33.729382938742745 , -0.7450993461284638
-33.062798815301925 , 1.51820379515204
-32.484333395631225 , 3.609083522573764
-31.979308420144676 , 5.554279618904823
-31.183590018637037 , 6.363192855814692
-30.36513003681139 , 7.20591578371833
-29.522611587136332 , 8.08549345002515
-28.654643675613478 , 9.005414558801094
-27.75977442403631 , 9.969704558359672
-26.836517613567313 , 10.983045053452722
-25.88340158524896 , 12.050929169731994
-24.899055995970777 , 13.179866931727535
-23.882363668052513 , 14.377661675384168
-22.83272683659919 , 15.653789763685166
-21.750540279220566 , 17.01993466442665
-20.63805245564249 , 18.490759070060093
-19.50098854462424 , 20.085057974707276
-18.35175903356226 , 21.827549102862488
-17.216223687123332 , 23.751789111276768
-16.149253835636017 , 25.90521871694871
-15.275239419313463 , 28.35861031607834
-14.915145710412038 , 31.225835100353866
-16.137844088910764 , 34.71324511215634
6.75108119347056 , 31.378277737113315
16.48042176485604 , 28.701471950160627
22.53087317191112 , 26.413825507699862
26.850042804266412 , 24.40341082189167
30.178002377421194 , 22.604353075007598
32.87195066558925 , 20.973160763240305
35.12969660940324 , 19.479182227119708
37.07126787586315 , 18.099828702690402
38.77445851328696 , 16.817889173845614
38.91282792585587 , 14.879685864098702
38.983352505114524 , 12.766284471917066
38.96611153451121 , 10.438985080573248
38.83290480164966 , 7.843963778432861
38.542011677155436 , 4.902833038759258
38.02791032819155 , 1.4941514214969143
37.178520221159495 , -2.5874654357195603
35.7748622395621 , -7.73969094197936
33.27304176413115 , -14.94382532233719
"/>

<!--
rec2020
r oklab(68.7089% 0.33273 0.149438)    oklch(68.7089% 0.364748 24.18614)
g oklab(82.97772% -0.41577 0.215563)  oklch(82.97772% 0.468333 152.5951)
b oklab(42.34483% -0.16138 -0.34713)  oklch(42.34483% 0.382811 245.0667)
c oklab(86.51035% -0.31979 -0.05554)  oklch(86.51035% 0.324581 189.853)
m oklab(74.43006% 0.387745 -0.16818)  oklch(74.43006% 0.422646 336.5519)
y oklab(97.25923% -0.07996 0.237978)  oklch(97.25923% 0.251052 108.5719)
 -->

<g  stroke="#bbb" stroke-width="0.2" fill="white">
  <circle r="1" cx="33.273" cy="-14.9438" fill="red"><title>oklch(68.7089% 0.364748 24.18614)</title></circle>
  <circle r="1" cx="-41.577" cy="-21.556" fill="green"><title>oklch(82.97772% 0.468333 152.5951)</title></circle>
  <circle r="1" cx="-16.138" cy="34.713" fill="blue"><title>oklch(42.34483% 0.382811 245.0667)</title></circle>
  <circle r="1" cx="-31.979" cy="05.554" fill="cyan"><title>oklch(86.51035% 0.324581 189.853)</title></circle>
  <circle r="1" cx="38.7745" cy="16.818" fill="magenta"><title>oklch(74.43006% 0.422646 336.5519)</title></circle>
  <circle r="1" cx="-07.996" cy="-23.7978" fill="yellow"><title>oklch(97.25923% 0.251052 108.5719)</title></circle>
</g>

<!-- Display-p3 gamut -->

<!-- boundary from https://codepen.io/svgeesus/pen/ExEPXMv?editors=0010 -->
<polyline stroke="#BDB" stroke-width="0.4" fill="none" points="
26.204175072605494 , -14.500192827479108
19.028916682898828 , -15.971391981425576
13.410936790899003 , -17.20517156323707
8.813604522070955 , -18.27932455257894
4.934575714136291 , -19.237493690598008
1.5868184262031126 , -20.106875717083643
-1.3532268092438682 , -20.905692813069678
-3.9712937544440274 , -21.646820158407508
-6.329187910490458 , -22.339732177310456
-8.472854285355202 , -22.991628193623093
-10.260843378323909 , -22.77112898026098
-12.163095272798952 , -22.54578048751137
-14.194306558728359 , -22.315250345942296
-16.372120461630374 , -22.079158739895334
-18.717966956235816 , -21.83706673717445
-21.25822701991397 , -21.58846033763975
-24.025885204683057 , -21.33272809881034
-27.062941819932018 , -21.069128799972813
-30.42405217547921 , -20.796743046686156
-28.307572594770143 , -16.183369662546177
-26.627607834071682 , -12.369171572109938
-25.240257474584816 , -9.095277652840828
-24.064063139805565 , -6.214915449529035
-23.04796306077106 , -3.635897055484738
-22.157632725302356 , -1.2961025271906457
-21.368790494729605 , 0.8485365478110185
-20.663576716416877 , 2.8305373333087136
-20.02844519024172 , 4.674651659894014
-18.63835082648684 , 6.3539372781996395
-17.15052561231981 , 8.192401166070551
-15.549780061499908 , 10.224312625787668
-13.817808513977042 , 12.496778886314008
-11.93327850902901 , 15.07735566775118
-9.874322849227212 , 18.068515556675237
-7.631222750411143 , 21.638331731081838
-5.2691459754871275 , 26.096762006746882
-3.3487162154470895 , 32.14159868564584
7.692036859255919 , 29.633485681130278
14.143261518657669 , 27.484110206008673
18.59379927225407 , 25.587054545506888
21.939206475551043 , 23.882543446497067
24.593342098020475 , 22.331492933835072
26.779539898483506 , 20.906373142470123
28.630941580938202 , 19.586850445012296
30.232705991684984 , 18.35738396913513
31.642252046842817 , 17.205778705185427
31.775648146293666 , 15.375528866033239
31.8538714088758 , 13.37016739256468
31.857514484790343 , 11.149164164641967
31.758363664264667 , 8.655511773647062
31.513503496277696 , 5.805032875257698
31.053464475811793 , 2.4649718274199817
30.255108185485025 , -1.594837091098289
28.86604375585724 , -6.8378290505079375
26.204175072605494 , -14.500192827479108
"/>

<!-- Display-p3 primaries and secondaries -->
<!--
r oklab(64.85741% 0.262042 0.145002) oklch(64.85741% 0.299485 28.95814)
g oklab(84.88293% -0.30424 0.207967) oklch(84.88293% 0.368528 145.645)
b oklab(46.63605% -0.03349 -0.32142) oklch(46.63605% 0.323156 264.052)
c oklab(89.29016% -0.20028 -0.04675) oklch(89.29016% 0.205667 193.1377)
m oklab(72.49796% 0.316423 -0.17206) oklch(72.49796% 0.360176 331.4644)
y oklab(96.47641% -0.08473 0.229916) oklch(96.47641% 0.245031 110.2298)
 -->


<g stroke-dasharray=".2 .2" stroke="#bbb" stroke-width="0.2" fill="white">
  <circle r="1" cx="26.2042" cy="-14.5002" fill="#FF000070"><title>oklch(64.85741% 0.299485 28.95814)</title></circle>
  <circle r="1" cx="-30.424" cy="-20.7967" fill="#00FF0070"><title>oklch(84.88293% 0.368528 145.645)</title></circle>
  <circle r="1" cx="-03.349" cy="32.142" fill="#0000FF70"><title>oklch(46.63605% 0.323156 264.052)</title></circle>
  <circle r="1" cx="-20.028" cy="04.675" fill="#00FFFF70"><title>oklch(89.29016% 0.205667 193.1377)</title></circle>
  <circle r="1" cx="31.6423" cy="17.206" fill="#FF00FF70"><title>oklch(72.49796% 0.360176 331.4644)</title></circle>
  <circle r="1" cx="-08.473" cy="-22.9916" fill="#FFFF0070"><title>oklch(96.47641% 0.245031 110.2298)</title></circle>
</g>


<circle r="1"/>
<circle r="0.7" fill="#777"/>
<circle r="0.4" fill="#fff"/>

<!-- pointer gamut -->
<g>
<circle r="0.5" cx="2.9161432751998713" cy="-1.5385827249687567" fill="#9995" />
<circle r="0.5" cx="4.353291242567324" cy="-2.0816709339960218" fill="#9995" />
<circle r="0.5" cx="3.8269473483585794" cy="-2.5275515828179773" fill="#9995" />
<circle r="0.5" cx="8.715839769523384" cy="-4.727137142040943" fill="#9995" />
<circle r="0.5" cx="5.759626391963442" cy="-4.764285827588016" fill="#9995" />
<circle r="0.5" cx="1.759898044684842" cy="-3.1009807172608705" fill="#9995" />
<circle r="0.5" cx="0.5037684002314955" cy="-2.279279135356005" fill="#9995" />
<circle r="0.5" cx="0.41016964409028855" cy="-2.5313547162969714" fill="#9995" />
<circle r="0.5" cx="0.20343435962053014" cy="-2.7738840372187825" fill="#9995" />
<circle r="0.5" cx="-0.08533222636094989" cy="-2.391926695759028" fill="#9995" />
<circle r="0.5" cx="-0.5866638196526969" cy="-3.345012531111194" fill="#9995" />
<circle r="0.5" cx="-1.0138667536450554" cy="-3.272360636188992" fill="#9995" />
<circle r="0.5" cx="-0.6654732025828919" cy="-2.284095873317815" fill="#9995" />
<circle r="0.5" cx="-1.0172617282151117" cy="-2.360961457244373" fill="#9995" />
<circle r="0.5" cx="-1.6345863923243802" cy="-2.5003885880229086" fill="#9995" />
<circle r="0.5" cx="-1.8343299477720052" cy="-2.295558133112527" fill="#9995" />
<circle r="0.5" cx="-2.251727029533261" cy="-2.1371124642736854" fill="#9995" />
<circle r="0.5" cx="-3.7415553433399835" cy="-2.03851063433709" fill="#9995" />
<circle r="0.5" cx="-2.9903528589019595" cy="-1.5496441034000663" fill="#9995" />
<circle r="0.5" cx="-2.1227526596511543" cy="-1.2806922162914125" fill="#9995" />
<circle r="0.5" cx="-1.4933670153738101" cy="-1.1702824960159175" fill="#9995" />
<circle r="0.5" cx="-0.08863868868277253" cy="-1.546494823935865" fill="#9995" />
<circle r="0.5" cx="-0.5549944407344437" cy="-1.2644392591702303" fill="#9995" />
<circle r="0.5" cx="-2.209376124033506" cy="0.20778280990574327" fill="#9995" />
<circle r="0.5" cx="-1.4458454270061885" cy="0.03160200820991055" fill="#9995" />
<circle r="0.5" cx="-1.2376279684964422" cy="0.3949161751411412" fill="#9995" />
<circle r="0.5" cx="-1.128520040781067" cy="1.2098804395492546" fill="#9995" />
<circle r="0.5" cx="-0.6320687723724128" cy="1.746727447446181" fill="#9995" />
<circle r="0.5" cx="0.17493285838245665" cy="0.7245887448538796" fill="#9995" />
<circle r="0.5" cx="1.175116193991124" cy="2.941275331438939" fill="#9995" />
<circle r="0.5" cx="3.1614825678550784" cy="4.773549594409904" fill="#9995" />
<circle r="0.5" cx="8.715360071877207" cy="10.368505255554124" fill="#9995" />
<circle r="0.5" cx="12.789127183335195" cy="7.964315760151274" fill="#5B57" />
<circle r="0.5" cx="5.09735617416012" cy="0.7478215765100493" fill="#9995" />
<circle r="0.5" cx="7.40817636454527" cy="0.4823335882908425" fill="#9995" />
<circle r="0.5" cx="4.388062269269821" cy="-0.9632943546349221" fill="#9995" />
<circle r="0.5" cx="9.097032826010151" cy="-1.7593898049941437" fill="#9995" />
<circle r="0.5" cx="8.850457125466482" cy="-2.827922120363846" fill="#9995" />
<circle r="0.5" cx="9.422783789903773" cy="-4.011385106409223" fill="#9995" />
<circle r="0.5" cx="12.022026575331418" cy="-5.80076393747821" fill="#9995" />
<circle r="0.5" cx="8.561179482928209" cy="-6.134075677107936" fill="#9995" />
<circle r="0.5" cx="3.667810440541926" cy="-4.838297581150611" fill="#9995" />
<circle r="0.5" cx="1.9708013896984664" cy="-4.344316778321958" fill="#9995" />
<circle r="0.5" cx="1.2526459526349454" cy="-4.541790069228179" fill="#9995" />
<circle r="0.5" cx="0.5054094152679101" cy="-4.664107405616011" fill="#9995" />
<circle r="0.5" cx="-0.18869983592165462" cy="-4.1915248614984275" fill="#9995" />
<circle r="0.5" cx="-1.0531738917760367" cy="-4.844400661303194" fill="#9995" />
<circle r="0.5" cx="-2.0242431826392653" cy="-5.0422488748084415" fill="#9995" />
<circle r="0.5" cx="-2.175950543490393" cy="-4.230559014047685" fill="#9995" />
<circle r="0.5" cx="-3.464093016007515" cy="-4.534833588395945" fill="#9995" />
<circle r="0.5" cx="-4.470123603029122" cy="-4.378233499115919" fill="#9995" />
<circle r="0.5" cx="-5.2197706924492975" cy="-3.9519514496335644" fill="#9995" />
<circle r="0.5" cx="-6.374160359641124" cy="-3.516679847720483" fill="#9995" />
<circle r="0.5" cx="-6.957249413609995" cy="-2.733106551712361" fill="#9995" />
<circle r="0.5" cx="-7.168761477778745" cy="-1.7979282157299326" fill="#9995" />
<circle r="0.5" cx="-5.5714431848234796" cy="-1.0582501336013932" fill="#9995" />
<circle r="0.5" cx="-5.481640323675116" cy="-0.3166865838958588" fill="#9995" />
<circle r="0.5" cx="-3.2991262571028415" cy="-0.4396613018202794" fill="#9995" />
<circle r="0.5" cx="-3.022279536205991" cy="-0.038007204658147" fill="#9995" />
<circle r="0.5" cx="-4.6689452324822" cy="1.8187559725238833" fill="#9995" />
<circle r="0.5" cx="-3.0480964369749537" cy="1.446576781201525" fill="#9995" />
<circle r="0.5" cx="-3.3591525744608774" cy="2.9187441150635873" fill="#9995" />
<circle r="0.5" cx="-2.8675116085768004" cy="3.9110817254853547" fill="#9995" />
<circle r="0.5" cx="-2.627222262901685" cy="5.820128545654929" fill="#9995" />
<circle r="0.5" cx="-0.4434962728415648" cy="5.162522988902579" fill="#9995" />
<circle r="0.5" cx="1.1026311401016091" cy="7.51142381062091" fill="#9995" />
<circle r="0.5" cx="4.261790623451015" cy="10.128806082195464" fill="#9995" />
<circle r="0.5" cx="10.427509035953655" cy="12.845026851318304" fill="#9995" />
<circle r="0.5" cx="15.112777768105175" cy="9.468873872249128" fill="#5B57" />
<circle r="0.5" cx="13.104734648100273" cy="4.14480223480882" fill="#9995" />
<circle r="0.5" cx="14.313449919253099" cy="2.0944220472322197" fill="#9995" />
<circle r="0.5" cx="11.21881558314947" cy="-0.3386161190093051" fill="#9995" />
<circle r="0.5" cx="13.163640560164524" cy="-1.9847991092446837" fill="#9995" />
<circle r="0.5" cx="13.385082934459597" cy="-3.5469683924523765" fill="#9995" />
<circle r="0.5" cx="13.641699001346396" cy="-5.103439827153958" fill="#9995" />
<circle r="0.5" cx="14.81859092455279" cy="-6.778149960803962" fill="#9995" />
<circle r="0.5" cx="11.393447199053549" cy="-7.3890473984356" fill="#9995" />
<circle r="0.5" cx="5.898790365014866" cy="-6.589752656211576" fill="#9995" />
<circle r="0.5" cx="3.360773763895439" cy="-6.158331042141993" fill="#9995" />
<circle r="0.5" cx="2.0311058520423835" cy="-6.318308103047354" fill="#9995" />
<circle r="0.5" cx="0.7592757002242212" cy="-6.358378669003669" fill="#9995" />
<circle r="0.5" cx="-0.34620109936964183" cy="-5.835577347872115" fill="#9995" />
<circle r="0.5" cx="-1.5347740009262965" cy="-6.2503568234173965" fill="#9995" />
<circle r="0.5" cx="-3.047441432781464" cy="-6.653163791048159" fill="#9995" />
<circle r="0.5" cx="-3.5567246676168076" cy="-5.85989008009829" fill="#9995" />
<circle r="0.5" cx="-5.702487821176852" cy="-6.348931717172546" fill="#9995" />
<circle r="0.5" cx="-7.026873512539587" cy="-5.995775589851526" fill="#9995" />
<circle r="0.5" cx="-8.246035604728885" cy="-5.419113628043398" fill="#9995" />
<circle r="0.5" cx="-9.333929919713343" cy="-4.581945341668164" fill="#9995" />
<circle r="0.5" cx="-9.807484747962741" cy="-3.3858339154979182" fill="#9995" />
<circle r="0.5" cx="-10.651458910029548" cy="-2.0434705987840083" fill="#5B57" />
<circle r="0.5" cx="-8.690610984931235" cy="-0.8645246514775273" fill="#9995" />
<circle r="0.5" cx="-8.372214149348222" cy="0.24609004421550784" fill="#5B57" />
<circle r="0.5" cx="-4.67999628258158" cy="-0.1067147311937966" fill="#9995" />
<circle r="0.5" cx="-5.1299694579021" cy="0.9399337110960027" fill="#9995" />
<circle r="0.5" cx="-7.116204771632121" cy="3.2834290846973033" fill="#9995" />
<circle r="0.5" cx="-5.37141754489138" cy="3.346464054849463" fill="#9995" />
<circle r="0.5" cx="-5.839589299221229" cy="5.291350988381415" fill="#9995" />
<circle r="0.5" cx="-4.732093061694965" cy="6.169488536796064" fill="#9995" />
<circle r="0.5" cx="-4.451793241936744" cy="8.405164895663997" fill="#9995" />
<circle r="0.5" cx="-2.030720596310323" cy="8.989888706461846" fill="#9995" />
<circle r="0.5" cx="-0.21810699713138426" cy="12.166617931390377" fill="#9995" />
<circle r="0.5" cx="4.5969335600902" cy="13.68612490624338" fill="#9995" />
<circle r="0.5" cx="11.76096461052605" cy="14.316375467716885" fill="#9995" />
<circle r="0.5" cx="16.844462652638654" cy="10.474436680877636" fill="#5B57" />
<circle r="0.5" cx="19.0063004836515" cy="6.610711335150842" fill="#5B57" />
<circle r="0.5" cx="18.52273211765319" cy="2.9805706443423285" fill="#5B57" />
<circle r="0.5" cx="15.938775194600316" cy="0.012964075783877815" fill="#9995" />
<circle r="0.5" cx="17.252172608219173" cy="-2.207370157969357" fill="#9995" />
<circle r="0.5" cx="16.71000962166039" cy="-4.136296547020568" fill="#9995" />
<circle r="0.5" cx="17.022015647678163" cy="-6.010362624455512" fill="#9995" />
<circle r="0.5" cx="17.093064607774394" cy="-7.686463157080242" fill="#9995" />
<circle r="0.5" cx="14.250785063092453" cy="-8.567795324868882" fill="#9995" />
<circle r="0.5" cx="7.8023382733861055" cy="-7.982478176161983" fill="#9995" />
<circle r="0.5" cx="4.745421703184105" cy="-7.777248437663337" fill="#9995" />
<circle r="0.5" cx="2.8804615550880985" cy="-8.020181388539752" fill="#9995" />
<circle r="0.5" cx="0.9812505956900336" cy="-7.786283340318392" fill="#9995" />
<circle r="0.5" cx="-0.5190265965613033" cy="-7.359315698473301" fill="#9995" />
<circle r="0.5" cx="-2.0190454001568408" cy="-7.587580157075341" fill="#9995" />
<circle r="0.5" cx="-3.952412777667025" cy="-8.03378433607105" fill="#9995" />
<circle r="0.5" cx="-4.934537206002718" cy="-7.381304920938844" fill="#9995" />
<circle r="0.5" cx="-7.546096193211563" cy="-7.805660466948325" fill="#9995" />
<circle r="0.5" cx="-9.128096714393822" cy="-7.327169622124815" fill="#9995" />
<circle r="0.5" cx="-10.753590002353256" cy="-6.658000942080294" fill="#9995" />
<circle r="0.5" cx="-12.20831965388559" cy="-5.62720941301667" fill="#5B57" />
<circle r="0.5" cx="-12.586626588089104" cy="-4.035303921864186" fill="#5B57" />
<circle r="0.5" cx="-13.2966961138833" cy="-2.289535813676208" fill="#5B57" />
<circle r="0.5" cx="-11.504342037165491" cy="-0.7065696223640616" fill="#5B57" />
<circle r="0.5" cx="-10.70135226099587" cy="0.6508678773878229" fill="#5B57" />
<circle r="0.5" cx="-7.22226971401847" cy="0.7165180632481505" fill="#9995" />
<circle r="0.5" cx="-7.3368181812884705" cy="1.9405810422084946" fill="#9995" />
<circle r="0.5" cx="-9.084195744844333" cy="4.370050605259812" fill="#5B57" />
<circle r="0.5" cx="-7.399871218475268" cy="4.834989828438607" fill="#9995" />
<circle r="0.5" cx="-7.784749768062424" cy="6.952123377129693" fill="#5B57" />
<circle r="0.5" cx="-6.055648948783249" cy="7.665199115455596" fill="#9995" />
<circle r="0.5" cx="-5.754725814145112" cy="10.20038548434915" fill="#9995" />
<circle r="0.5" cx="-3.1286334872332566" cy="11.273105049880417" fill="#9995" />
<circle r="0.5" cx="-0.5035459166454481" cy="14.073548633826027" fill="#9995" />
<circle r="0.5" cx="5.147285936546248" cy="15.405640422368144" fill="#9995" />
<circle r="0.5" cx="12.596031747500891" cy="14.581116384572685" fill="#9995" />
<circle r="0.5" cx="17.975941511555376" cy="10.981461440913687" fill="#9995" />
<circle r="0.5" cx="22.739868493576726" cy="8.0760796223097" fill="#B557" />
<circle r="0.5" cx="21.50002965298431" cy="3.53643131848167" fill="#5B57" />
<circle r="0.5" cx="20.03765493892928" cy="0.2852669025129484" fill="#5B57" />
<circle r="0.5" cx="21.031378008692467" cy="-2.4308145700088044" fill="#5B57" />
<circle r="0.5" cx="19.115186214554612" cy="-4.638942585057154" fill="#9995" />
<circle r="0.5" cx="19.263626653920713" cy="-6.725539743227782" fill="#9995" />
<circle r="0.5" cx="18.849578280661035" cy="-8.504527988606458" fill="#9995" />
<circle r="0.5" cx="17.127049314043088" cy="-9.694855481700088" fill="#9995" />
<circle r="0.5" cx="10.436840041860068" cy="-9.526903327353791" fill="#9995" />
<circle r="0.5" cx="6.145963695951878" cy="-9.250242496424722" fill="#9995" />
<circle r="0.5" cx="3.668096237482982" cy="-9.463791483971562" fill="#9995" />
<circle r="0.5" cx="1.2074355263738679" cy="-9.13719783185698" fill="#9995" />
<circle r="0.5" cx="-0.6924912897612823" cy="-8.791424210799214" fill="#9995" />
<circle r="0.5" cx="-2.5015506578956517" cy="-8.873851222219098" fill="#9995" />
<circle r="0.5" cx="-4.961219861587282" cy="-9.453718510123482" fill="#9995" />
<circle r="0.5" cx="-6.302775907007763" cy="-8.819906925331805" fill="#9995" />
<circle r="0.5" cx="-9.016535334136206" cy="-9.009292806661263" fill="#9995" />
<circle r="0.5" cx="-11.20437466940342" cy="-8.615186413912335" fill="#9995" />
<circle r="0.5" cx="-13.428040899541607" cy="-7.942937959243423" fill="#9995" />
<circle r="0.5" cx="-14.58677840942301" cy="-6.535318803993173" fill="#5B57" />
<circle r="0.5" cx="-15.084868271287858" cy="-4.647157073813052" fill="#5B57" />
<circle r="0.5" cx="-15.668206482192687" cy="-2.535925531122701" fill="#5B57" />
<circle r="0.5" cx="-13.755506253506452" cy="-0.6300412445274739" fill="#5B57" />
<circle r="0.5" cx="-12.15309695732445" cy="0.8043505242159132" fill="#5B57" />
<circle r="0.5" cx="-9.532002285150945" cy="1.4320943476574088" fill="#9995" />
<circle r="0.5" cx="-9.32000362122603" cy="2.792325603803353" fill="#9995" />
<circle r="0.5" cx="-10.76968766130497" cy="5.261773379636353" fill="#5B57" />
<circle r="0.5" cx="-9.23575149604853" cy="6.108407858593306" fill="#5B57" />
<circle r="0.5" cx="-10.21613954822757" cy="8.871700371309748" fill="#5B57" />
<circle r="0.5" cx="-6.864238362325789" cy="8.640438674682438" fill="#9995" />
<circle r="0.5" cx="-6.2601265377836395" cy="11.192565944309568" fill="#9995" />
<circle r="0.5" cx="-3.270540203947503" cy="12.240620829723458" fill="#9995" />
<circle r="0.5" cx="0.23105661179884107" cy="14.221308287920637" fill="#9995" />
<circle r="0.5" cx="6.025653628828353" cy="14.597714136031048" fill="#9995" />
<circle r="0.5" cx="12.75544692108445" cy="13.64048252976145" fill="#9995" />
<circle r="0.5" cx="18.286342118012357" cy="10.82573000859407" fill="#9995" />
<circle r="0.5" cx="23.489809939854588" cy="8.152318914755568" fill="#5B57" />
<circle r="0.5" cx="24.167672993501842" cy="4.009354200600013" fill="#5B57" />
<circle r="0.5" cx="22.519287683438858" cy="0.35436486892491126" fill="#5B57" />
<circle r="0.5" cx="23.846765367441197" cy="-2.662261527206261" fill="#5B57" />
<circle r="0.5" cx="20.904682678374964" cy="-5.086169645644567" fill="#9995" />
<circle r="0.5" cx="20.647946817279696" cy="-7.305069260293556" fill="#9995" />
<circle r="0.5" cx="20.6061384209967" cy="-9.322465996277012" fill="#9995" />
<circle r="0.5" cx="19.56002846417239" cy="-10.719038694765192" fill="#9995" />
<circle r="0.5" cx="13.11664935467023" cy="-10.90501110381848" fill="#9995" />
<circle r="0.5" cx="7.566364191024929" cy="-10.615869734945266" fill="#9995" />
<circle r="0.5" cx="4.471668055970901" cy="-10.812822536849836" fill="#9995" />
<circle r="0.5" cx="1.4399824492583786" cy="-10.430898057040633" fill="#9995" />
<circle r="0.5" cx="-0.8613983204456888" cy="-10.153932402551408" fill="#9995" />
<circle r="0.5" cx="-3.0495833543054824" cy="-10.227255180095268" fill="#9995" />
<circle r="0.5" cx="-5.850970198510402" cy="-10.720232735683483" fill="#9995" />
<circle r="0.5" cx="-7.512595487694723" cy="-10.097242841275383" fill="#9995" />
<circle r="0.5" cx="-10.479873649044563" cy="-10.191041004707513" fill="#9995" />
<circle r="0.5" cx="-12.872105723024188" cy="-9.706343821427044" fill="#9995" />
<circle r="0.5" cx="-15.85586956166274" cy="-9.123673091017498" fill="#5B57" />
<circle r="0.5" cx="-16.940525038874128" cy="-7.437628545826236" fill="#5B57" />
<circle r="0.5" cx="-17.10862472739727" cy="-5.187642960044619" fill="#5B57" />
<circle r="0.5" cx="-17.545362802981774" cy="-2.78357664022878" fill="#5B57" />
<circle r="0.5" cx="-15.729361563183442" cy="-0.5949652367128411" fill="#5B57" />
<circle r="0.5" cx="-13.014923386784094" cy="0.7886882100089199" fill="#5B57" />
<circle r="0.5" cx="-12.191056405124948" cy="2.2814730412202944" fill="#5B57" />
<circle r="0.5" cx="-10.718166848698136" cy="3.3221930894141716" fill="#5B57" />
<circle r="0.5" cx="-11.785482228474889" cy="5.754083636449398" fill="#5B57" />
<circle r="0.5" cx="-10.795719064125453" cy="7.158294151407723" fill="#5B57" />
<circle r="0.5" cx="-11.289090643414651" cy="9.790755951985586" fill="#5B57" />
<circle r="0.5" cx="-7.674886297854721" cy="9.61579335745315" fill="#9995" />
<circle r="0.5" cx="-6.76693175086135" cy="12.184797975928745" fill="#9995" />
<circle r="0.5" cx="-2.6948734375277894" cy="12.15731346507411" fill="#9995" />
<circle r="0.5" cx="1.216359786356075" cy="13.372226254598418" fill="#9995" />
<circle r="0.5" cx="6.517229975100486" cy="12.654443966242807" fill="#9995" />
<circle r="0.5" cx="12.498267864866824" cy="12.306043241002996" fill="#9995" />
<circle r="0.5" cx="18.573019180968103" cy="10.67327216022142" fill="#9995" />
<circle r="0.5" cx="23.426056469305344" cy="7.85307318118838" fill="#5B57" />
<circle r="0.5" cx="25.594102752198577" cy="4.149961384701728" fill="#5B57" />
<circle r="0.5" cx="24.35131854381311" cy="0.34196790458290716" fill="#5B57" />
<circle r="0.5" cx="24.40276513015185" cy="-2.914128914504105" fill="#9995" />
<circle r="0.5" cx="21.771153269573674" cy="-5.449791131899695" fill="#9995" />
<circle r="0.5" cx="21.17759574659924" cy="-7.742438669589485" fill="#9995" />
<circle r="0.5" cx="21.071926465089856" cy="-9.903199653968231" fill="#9995" />
<circle r="0.5" cx="20.38479910271554" cy="-11.540843926738937" fill="#9995" />
<circle r="0.5" cx="15.829849108455244" cy="-12.180456542808804" fill="#9995" />
<circle r="0.5" cx="9.005029140599927" cy="-11.902736543328512" fill="#9995" />
<circle r="0.5" cx="5.375067501042935" cy="-12.148365077369217" fill="#9995" />
<circle r="0.5" cx="1.6485636437830435" cy="-11.59945368729014" fill="#9995" />
<circle r="0.5" cx="-1.0444491319394178" cy="-11.554875405995496" fill="#9995" />
<circle r="0.5" cx="-3.4569013385275795" cy="-11.34072055882967" fill="#9995" />
<circle r="0.5" cx="-6.6277838494969075" cy="-11.875452583176871" fill="#9995" />
<circle r="0.5" cx="-8.716109037143388" cy="-11.34345643483104" fill="#9995" />
<circle r="0.5" cx="-11.937453502918208" cy="-11.356079864198037" fill="#9995" />
<circle r="0.5" cx="-14.727024607204061" cy="-10.868013127179028" fill="#9995" />
<circle r="0.5" cx="-17.45931170889458" cy="-10.005144392489102" fill="#5B57" />
<circle r="0.5" cx="-18.858803856696888" cy="-8.216958573669714" fill="#5B57" />
<circle r="0.5" cx="-18.455548954814443" cy="-5.622582258625802" fill="#5B57" />
<circle r="0.5" cx="-18.939677789296464" cy="-3.0326035988276603" fill="#5B57" />
<circle r="0.5" cx="-16.885856622427408" cy="-0.6865802733310111" fill="#5B57" />
<circle r="0.5" cx="-13.290329542127818" cy="0.6049758450020482" fill="#5B57" />
<circle r="0.5" cx="-13.952914376652375" cy="2.75807050429962" fill="#5B57" />
<circle r="0.5" cx="-12.123127778703003" cy="3.8529347656592607" fill="#5B57" />
<circle r="0.5" cx="-12.46429017155175" cy="6.046504918242457" fill="#5B57" />
<circle r="0.5" cx="-11.033990196572658" cy="7.297223164232919" fill="#5B57" />
<circle r="0.5" cx="-10.96259029746891" cy="9.707178891027873" fill="#5B57" />
<circle r="0.5" cx="-8.204698821088835" cy="10.329514364293319" fill="#9995" />
<circle r="0.5" cx="-6.021797673374479" cy="11.841829012422544" fill="#9995" />
<circle r="0.5" cx="-1.9567310679778127" cy="11.557588528979895" fill="#9995" />
<circle r="0.5" cx="2.0219356937242363" cy="12.038769034632423" fill="#9995" />
<circle r="0.5" cx="6.517057926024478" cy="10.51068605013491" fill="#9995" />
<circle r="0.5" cx="11.5279268679362" cy="10.192992863568845" fill="#9995" />
<circle r="0.5" cx="17.793507982756346" cy="9.701708149949084" fill="#9995" />
<circle r="0.5" cx="22.55119167683591" cy="7.182691712935613" fill="#9995" />
<circle r="0.5" cx="25.477111016210202" cy="3.8769459615259905" fill="#9995" />
<circle r="0.5" cx="25.211396993151237" cy="0.20752204189841694" fill="#9995" />
<circle r="0.5" cx="23.678613412487756" cy="-3.175885301481979" fill="#9995" />
<circle r="0.5" cx="21.71866903779811" cy="-5.725987478254679" fill="#9995" />
<circle r="0.5" cx="21.14218926903303" cy="-8.072909985554066" fill="#9995" />
<circle r="0.5" cx="20.77738676181292" cy="-10.300117981164231" fill="#9995" />
<circle r="0.5" cx="20.083274848609236" cy="-12.15829581153588" fill="#9995" />
<circle r="0.5" cx="17.62942006229284" cy="-13.227261813661467" fill="#9995" />
<circle r="0.5" cx="10.596629189363096" cy="-13.173902833270512" fill="#9995" />
<circle r="0.5" cx="6.119578999722353" cy="-13.32182487189243" fill="#9995" />
<circle r="0.5" cx="1.923527680018372" cy="-12.899656563954808" fill="#9995" />
<circle r="0.5" cx="-1.181392489127009" cy="-12.73185363110102" fill="#9995" />
<circle r="0.5" cx="-3.9297679808144026" cy="-12.537023037806655" fill="#9995" />
<circle r="0.5" cx="-7.4022295597569645" cy="-13.018761619229958" fill="#9995" />
<circle r="0.5" cx="-9.769396492704994" cy="-12.479990799975049" fill="#9995" />
<circle r="0.5" cx="-13.04626843083438" cy="-12.348666284549797" fill="#9995" />
<circle r="0.5" cx="-16.192088652811567" cy="-11.863833314590643" fill="#9995" />
<circle r="0.5" cx="-18.86062822421146" cy="-10.814654822986435" fill="#5B57" />
<circle r="0.5" cx="-20.356549227449964" cy="-8.876816826775757" fill="#5B57" />
<circle r="0.5" cx="-19.80179427612035" cy="-6.057492612164639" fill="#5B57" />
<circle r="0.5" cx="-19.60243764302272" cy="-3.2836236265000043" fill="#5B57" />
<circle r="0.5" cx="-17.76911275358015" cy="-0.8203036815575382" fill="#5B57" />
<circle r="0.5" cx="-13.278181672590733" cy="0.3391980489152402" fill="#9995" />
<circle r="0.5" cx="-14.467647870298556" cy="2.7293918122753" fill="#5B57" />
<circle r="0.5" cx="-12.900069237679135" cy="4.055807145390106" fill="#5B57" />
<circle r="0.5" cx="-12.820671287995411" cy="6.140279704580376" fill="#5B57" />
<circle r="0.5" cx="-10.987394285766056" cy="7.211869811779903" fill="#5B57" />
<circle r="0.5" cx="-10.423885392846033" cy="9.380409308326021" fill="#5B57" />
<circle r="0.5" cx="-7.938307957287666" cy="10.261039084639167" fill="#9995" />
<circle r="0.5" cx="-4.847983302456233" cy="10.71417102256776" fill="#9995" />
<circle r="0.5" cx="-1.1773389142632484" cy="10.451368468635453" fill="#9995" />
<circle r="0.5" cx="2.582638814540478" cy="9.990291351587215" fill="#9995" />
<circle r="0.5" cx="6.250063340461481" cy="8.627391714871441" fill="#9995" />
<circle r="0.5" cx="10.344397501913727" cy="8.11460691444028" fill="#9995" />
<circle r="0.5" cx="16.121009746041924" cy="8.090539045068617" fill="#9995" />
<circle r="0.5" cx="20.87121475210228" cy="6.147863244326085" fill="#9995" />
<circle r="0.5" cx="24.14376093095084" cy="3.277124863865083" fill="#9995" />
<circle r="0.5" cx="25.751969677559984" cy="0.03274519781341634" fill="#9995" />
<circle r="0.5" cx="22.010390935012147" cy="-3.4427961810262198" fill="#9995" />
<circle r="0.5" cx="21.059536843981675" cy="-5.93863897428184" fill="#9995" />
<circle r="0.5" cx="20.545539452617152" cy="-8.285841171731878" fill="#9995" />
<circle r="0.5" cx="19.988403041663947" cy="-10.532405167358188" fill="#9995" />
<circle r="0.5" cx="18.922996639929167" cy="-12.48587514521341" fill="#9995" />
<circle r="0.5" cx="17.918672246960522" cy="-14.057159075620929" fill="#9995" />
<circle r="0.5" cx="12.065229245293722" cy="-14.351754546129458" fill="#9995" />
<circle r="0.5" cx="6.869703152941881" cy="-14.47319958904107" fill="#9995" />
<circle r="0.5" cx="2.1730129283587" cy="-14.092470666976736" fill="#9995" />
<circle r="0.5" cx="-1.3331414254310725" cy="-13.968594982852483" fill="#9995" />
<circle r="0.5" cx="-4.399866215993145" cy="-13.715620534129897" fill="#9995" />
<circle r="0.5" cx="-8.279910323421449" cy="-14.223453848368061" fill="#9995" />
<circle r="0.5" cx="-10.820460383400388" cy="-13.607177408053477" fill="#9995" />
<circle r="0.5" cx="-14.326778066676443" cy="-13.420037528307683" fill="#9995" />
<circle r="0.5" cx="-17.465143422587897" cy="-12.78133553266651" fill="#9995" />
<circle r="0.5" cx="-19.652341278713752" cy="-11.405968458213051" fill="#9995" />
<circle r="0.5" cx="-21.22065019828505" cy="-9.3567991088784" fill="#5B57" />
<circle r="0.5" cx="-20.23175724937666" cy="-6.351080307911006" fill="#5B57" />
<circle r="0.5" cx="-20.005190232152113" cy="-3.5351379099707367" fill="#5B57" />
<circle r="0.5" cx="-17.828402995539655" cy="-1.079659856303361" fill="#5B57" />
<circle r="0.5" cx="-12.981523365080216" cy="-0.007250124085755871" fill="#9995" />
<circle r="0.5" cx="-15.296371360238775" cy="2.82736494261398" fill="#5B57" />
<circle r="0.5" cx="-13.678179504832306" cy="4.258824398074762" fill="#5B57" />
<circle r="0.5" cx="-12.876436554430898" cy="6.037475373596629" fill="#5B57" />
<circle r="0.5" cx="-10.68982005272614" cy="6.90547787714419" fill="#9995" />
<circle r="0.5" cx="-9.1761564881923" cy="8.323616710721565" fill="#9995" />
<circle r="0.5" cx="-6.392489900698722" cy="8.650539648232918" fill="#9995" />
<circle r="0.5" cx="-3.3672633102557303" cy="8.565904990206619" fill="#9995" />
<circle r="0.5" cx="-0.5363053680188412" cy="9.108130019307136" fill="#9995" />
<circle r="0.5" cx="2.7722407204195" cy="7.7409162276653625" fill="#9995" />
<circle r="0.5" cx="5.775700111116971" cy="6.78041982564549" fill="#9995" />
<circle r="0.5" cx="9.326759120783285" cy="6.4613691762561825" fill="#9995" />
<circle r="0.5" cx="14.401690340728535" cy="6.504500375062605" fill="#9995" />
<circle r="0.5" cx="18.66534557210242" cy="4.88083231216605" fill="#9995" />
<circle r="0.5" cx="22.529629641179" cy="2.600873561218453" fill="#9995" />
<circle r="0.5" cx="24.05070244899076" cy="-0.42478214388259605" fill="#9995" />
<circle r="0.5" cx="19.731133477719272" cy="-3.710993705100385" fill="#9995" />
<circle r="0.5" cx="19.1906647862072" cy="-6.02196457546163" fill="#9995" />
<circle r="0.5" cx="18.827562695807593" cy="-8.258086962447647" fill="#9995" />
<circle r="0.5" cx="18.709650219043745" cy="-10.574460492180126" fill="#9995" />
<circle r="0.5" cx="17.587693724653587" cy="-12.604624424104511" fill="#9995" />
<circle r="0.5" cx="17.29201209905107" cy="-14.67313038496601" fill="#9995" />
<circle r="0.5" cx="13.401353070444271" cy="-15.470447984456936" fill="#9995" />
<circle r="0.5" cx="7.624300929144762" cy="-15.607682404776979" fill="#5B57" />
<circle r="0.5" cx="2.497433859028575" cy="-15.378667090859304" fill="#9995" />
<circle r="0.5" cx="-1.4641843417385891" cy="-15.1117885423674" fill="#9995" />
<circle r="0.5" cx="-4.8675709559768965" cy="-14.88012780946556" fill="#9995" />
<circle r="0.5" cx="-9.153959274547269" cy="-15.411656183673328" fill="#9995" />
<circle r="0.5" cx="-11.869668797078306" cy="-14.72687685035573" fill="#9995" />
<circle r="0.5" cx="-15.263109836654568" cy="-14.331683530353413" fill="#9995" />
<circle r="0.5" cx="-18.546752694196496" cy="-13.62139882093677" fill="#9995" />
<circle r="0.5" cx="-19.814277448108175" cy="-11.764555624513623" fill="#9995" />
<circle r="0.5" cx="-20.988267452159445" cy="-9.527499184874172" fill="#5B57" />
<circle r="0.5" cx="-20.170042849200364" cy="-6.572547550467456" fill="#5B57" />
<circle r="0.5" cx="-19.37720486128275" cy="-3.7886620204982457" fill="#5B57" />
<circle r="0.5" cx="-17.327884113218634" cy="-1.4209636955675342" fill="#5B57" />
<circle r="0.5" cx="-12.40304990071699" cy="-0.43280958966527283" fill="#9995" />
<circle r="0.5" cx="-14.00531273821114" cy="2.0513506133409964" fill="#9995" />
<circle r="0.5" cx="-12.933066076450823" cy="3.648378173395228" fill="#9995" />
<circle r="0.5" cx="-12.059951843555927" cy="5.348780944592879" fill="#9995" />
<circle r="0.5" cx="-9.638281279239685" cy="5.938219178247528" fill="#9995" />
<circle r="0.5" cx="-7.917779155583554" cy="7.04464039044227" fill="#9995" />
<circle r="0.5" cx="-5.196530164102276" cy="7.073409310120782" fill="#9995" />
<circle r="0.5" cx="-2.546245924291457" cy="6.976700807669623" fill="#9995" />
<circle r="0.5" cx="0.050120333821240814" cy="7.034318223987668" fill="#9995" />
<circle r="0.5" cx="2.703041304296483" cy="5.778947301868476" fill="#9995" />
<circle r="0.5" cx="5.046480770068756" cy="4.756510974088735" fill="#9995" />
<circle r="0.5" cx="8.06341483052071" cy="4.649655369599282" fill="#9995" />
<circle r="0.5" cx="12.431263143603289" cy="4.786785483991263" fill="#9995" />
<circle r="0.5" cx="16.211108710889572" cy="3.5108233391562105" fill="#9995" />
<circle r="0.5" cx="20.338933430563827" cy="1.7684695059973943" fill="#9995" />
<circle r="0.5" cx="22.059345221344245" cy="-0.9203966323692137" fill="#9995" />
<circle r="0.5" cx="17.16676742585701" cy="-3.9777902949586164" fill="#9995" />
<circle r="0.5" cx="16.732398699633418" cy="-6.029311464478626" fill="#9995" />
<circle r="0.5" cx="16.839336946074035" cy="-8.136915222824086" fill="#9995" />
<circle r="0.5" cx="16.692051994850143" cy="-10.325073843119787" fill="#9995" />
<circle r="0.5" cx="15.427767853318954" cy="-12.259018622603806" fill="#9995" />
<circle r="0.5" cx="15.276641219777137" cy="-14.685538297967149" fill="#9995" />
<circle r="0.5" cx="13.75073563528141" cy="-16.369793725646453" fill="#9995" />
<circle r="0.5" cx="8.290981037748757" cy="-16.696838736570413" fill="#5B57" />
<circle r="0.5" cx="2.9080763605192184" cy="-16.710058975092036" fill="#5B57" />
<circle r="0.5" cx="-1.6086935326648484" cy="-16.309870779309797" fill="#9995" />
<circle r="0.5" cx="-5.396852717907913" cy="-16.10690167445863" fill="#9995" />
<circle r="0.5" cx="-9.715219839210379" cy="-16.40010406865301" fill="#9995" />
<circle r="0.5" cx="-12.774734757987499" cy="-15.763731931312158" fill="#9995" />
<circle r="0.5" cx="-15.85420952137539" cy="-15.08073690372247" fill="#9995" />
<circle r="0.5" cx="-19.0491045424852" cy="-14.221433078182999" fill="#9995" />
<circle r="0.5" cx="-19.741428343007907" cy="-12.027526180155757" fill="#9995" />
<circle r="0.5" cx="-20.026635416175072" cy="-9.49589313161216" fill="#9995" />
<circle r="0.5" cx="-19.34595341082051" cy="-6.684694807562969" fill="#9995" />
<circle r="0.5" cx="-18.18185062925277" cy="-4.042431440151651" fill="#9995" />
<circle r="0.5" cx="-15.979159058070437" cy="-1.8834192483247691" fill="#9995" />
<circle r="0.5" cx="-11.258708964350749" cy="-1.0166532735989775" fill="#9995" />
<circle r="0.5" cx="-12.78061448386204" cy="1.288281613370279" fill="#9995" />
<circle r="0.5" cx="-11.674187655981344" cy="2.7272750968313497" fill="#9995" />
<circle r="0.5" cx="-10.505126773084934" cy="4.092200938178758" fill="#9995" />
<circle r="0.5" cx="-8.239722254485004" cy="4.551779017641467" fill="#9995" />
<circle r="0.5" cx="-6.660838503169386" cy="5.552264527901574" fill="#9995" />
<circle r="0.5" cx="-4.097378717525796" cy="5.280790269381452" fill="#9995" />
<circle r="0.5" cx="-1.8475034450344652" cy="5.168633886222951" fill="#9995" />
<circle r="0.5" cx="0.3475771680026718" cy="5.253628634104402" fill="#9995" />
<circle r="0.5" cx="2.456003033636911" cy="3.861247790367295" fill="#9995" />
<circle r="0.5" cx="4.30159846445669" cy="2.9905453507949487" fill="#9995" />
<circle r="0.5" cx="7.0703321851005025" cy="3.2476895801968886" fill="#9995" />
<circle r="0.5" cx="10.437351136807255" cy="3.101010897704659" fill="#9995" />
<circle r="0.5" cx="13.78040380851846" cy="2.161716705701311" fill="#9995" />
<circle r="0.5" cx="17.58676123069759" cy="0.7834489098002551" fill="#9995" />
<circle r="0.5" cx="18.84217922638596" cy="-1.573463399731112" fill="#9995" />
<circle r="0.5" cx="14.944155002403964" cy="-4.240139125771725" fill="#9995" />
<circle r="0.5" cx="13.992883130109218" cy="-5.990189013378999" fill="#9995" />
<circle r="0.5" cx="14.019233995265946" cy="-7.7957306856767605" fill="#9995" />
<circle r="0.5" cx="13.934414116918298" cy="-9.739233508842048" fill="#9995" />
<circle r="0.5" cx="12.87148973249279" cy="-11.518476499893271" fill="#9995" />
<circle r="0.5" cx="13.006023782248615" cy="-14.160342544508397" fill="#9995" />
<circle r="0.5" cx="12.602979412562675" cy="-16.74401251234369" fill="#5B57" />
<circle r="0.5" cx="8.775737081966078" cy="-17.717680842418364" fill="#5B57" />
<circle r="0.5" cx="3.2940271797097216" cy="-17.940606893814714" fill="#B557" />
<circle r="0.5" cx="-1.7356280943301687" cy="-17.432231460686907" fill="#9995" />
<circle r="0.5" cx="-5.79712996211639" cy="-17.17716509894836" fill="#9995" />
<circle r="0.5" cx="-10.276423168959312" cy="-17.388301852731907" fill="#9995" />
<circle r="0.5" cx="-13.67951990483322" cy="-16.799504928940003" fill="#9995" />
<circle r="0.5" cx="-16.44295866645583" cy="-15.823294979264658" fill="#9995" />
<circle r="0.5" cx="-19.348770577380982" cy="-14.726160179046316" fill="#9995" />
<circle r="0.5" cx="-19.209641296958125" cy="-12.106774179528006" fill="#9995" />
<circle r="0.5" cx="-18.04502036660716" cy="-9.183396316429777" fill="#9995" />
<circle r="0.5" cx="-17.96116030627341" cy="-6.721530244197982" fill="#9995" />
<circle r="0.5" cx="-17.199600658086332" cy="-4.29495909750891" fill="#9995" />
<circle r="0.5" cx="-14.328902458702315" cy="-2.3823024646710267" fill="#9995" />
<circle r="0.5" cx="-10.124325703468967" cy="-1.5941946163665732" fill="#9995" />
<circle r="0.5" cx="-11.036601594674089" cy="0.2957105867887333" fill="#9995" />
<circle r="0.5" cx="-9.681907143054447" cy="1.3514683762505197" fill="#9995" />
<circle r="0.5" cx="-8.852312773287508" cy="2.671866197424655" fill="#9995" />
<circle r="0.5" cx="-6.794048114073259" cy="2.9801412258847138" fill="#9995" />
<circle r="0.5" cx="-5.236571508461852" cy="3.624103827774894" fill="#9995" />
<circle r="0.5" cx="-3.0957076389722005" cy="3.2860838807074244" fill="#9995" />
<circle r="0.5" cx="-1.339062575776967" cy="3.400737195196102" fill="#9995" />
<circle r="0.5" cx="0.4857318601253102" cy="3.510909378621907" fill="#9995" />
<circle r="0.5" cx="2.0777290866405895" cy="1.9879276530604062" fill="#9995" />
<circle r="0.5" cx="3.720441523662188" cy="1.6771547228879191" fill="#9995" />
<circle r="0.5" cx="5.8679927045133145" cy="1.6867764927397833" fill="#9995" />
<circle r="0.5" cx="8.651380617179626" cy="1.6001780998227244" fill="#9995" />
<circle r="0.5" cx="11.37384073056994" cy="0.8329893390075505" fill="#9995" />
<circle r="0.5" cx="14.290997653468596" cy="-0.3499816469591299" fill="#9995" />
<circle r="0.5" cx="15.678546206544691" cy="-2.2226693712173895" fill="#9995" />
<circle r="0.5" cx="11.821038584306665" cy="-4.504289413966034" fill="#9995" />
<circle r="0.5" cx="11.27364124151556" cy="-5.938708992972874" fill="#9995" />
<circle r="0.5" cx="10.927300055878709" cy="-7.34719765422327" fill="#9995" />
<circle r="0.5" cx="11.176231781024004" cy="-9.050936131444576" fill="#9995" />
<circle r="0.5" cx="10.104052962664955" cy="-10.464380313196141" fill="#9995" />
<circle r="0.5" cx="10.28069821817259" cy="-12.91877870499717" fill="#5B57" />
<circle r="0.5" cx="10.883327649946251" cy="-16.45290914475433" fill="#5B57" />
<circle r="0.5" cx="8.281659760602638" cy="-18.281628285152724" fill="#5B57" />
<circle r="0.5" cx="3.6468730247899788" cy="-19.10653557178473" fill="#B557" />
<circle r="0.5" cx="-1.8748586021328921" cy="-18.604560850326102" fill="#5B57" />
<circle r="0.5" cx="-6.321684313446268" cy="-18.37953934820692" fill="#9995" />
<circle r="0.5" cx="-10.628534017828361" cy="-18.24082759772379" fill="#9995" />
<circle r="0.5" cx="-14.298948866949285" cy="-17.68104052533016" fill="#9995" />
<circle r="0.5" cx="-16.679312730529926" cy="-16.383004362986874" fill="#9995" />
<circle r="0.5" cx="-18.040224287240513" cy="-14.48686945412468" fill="#9995" />
<circle r="0.5" cx="-17.527663176904344" cy="-11.724229324058022" fill="#9995" />
<circle r="0.5" cx="-15.702834634244168" cy="-8.775951243145464" fill="#9995" />
<circle r="0.5" cx="-15.988415032846104" cy="-6.681665364928991" fill="#9995" />
<circle r="0.5" cx="-14.820807321190872" cy="-4.547917005103086" fill="#9995" />
<circle r="0.5" cx="-12.090819809852954" cy="-2.956544910218306" fill="#9995" />
<circle r="0.5" cx="-8.7134245469832" cy="-2.24516889460874" fill="#9995" />
<circle r="0.5" cx="-8.797618768273436" cy="-0.9155635487216207" fill="#9995" />
<circle r="0.5" cx="-8.070974618016141" cy="0.15902592035293983" fill="#9995" />
<circle r="0.5" cx="-7.104283786095033" cy="1.0967193649850326" fill="#9995" />
<circle r="0.5" cx="-5.30677148840471" cy="1.2343537756848155" fill="#9995" />
<circle r="0.5" cx="-4.029079100873845" cy="1.7436074964510162" fill="#9995" />
<circle r="0.5" cx="-2.393001452883836" cy="1.578332591721876" fill="#9995" />
<circle r="0.5" cx="-0.9238112209398686" cy="1.4317035963829383" fill="#9995" />
<circle r="0.5" cx="0.4741500697715728" cy="1.0972871544296714" fill="#9995" />
<circle r="0.5" cx="1.7464001751995972" cy="0.6022045741281401" fill="#9995" />
<circle r="0.5" cx="2.9746433396172725" cy="0.18192846197797596" fill="#9995" />
<circle r="0.5" cx="4.632548424459825" cy="0.1552625733750368" fill="#9995" />
<circle r="0.5" cx="6.636261451030684" cy="-0.025043916004585665" fill="#9995" />
<circle r="0.5" cx="8.991216616507003" cy="-0.47617042894910755" fill="#9995" />
<circle r="0.5" cx="11.050992913982737" cy="-1.4704151693404555" fill="#9995" />
<circle r="0.5" cx="11.64959936633868" cy="-2.9863146269687113" fill="#9995" />
<circle r="0.5" cx="8.735714977875059" cy="-4.765649692354246" fill="#9995" />
<circle r="0.5" cx="8.57253540502092" cy="-5.877231169603469" fill="#9995" />
<circle r="0.5" cx="8.118435862110813" cy="-6.929338224455595" fill="#9995" />
<circle r="0.5" cx="8.153320996111374" cy="-8.185633752480426" fill="#9995" />
<circle r="0.5" cx="7.523178354506571" cy="-9.353414050347075" fill="#9995" />
<circle r="0.5" cx="7.894865327813566" cy="-11.525626652289011" fill="#5B57" />
<circle r="0.5" cx="8.504760763003672" cy="-15.027312168172912" fill="#5B57" />
<circle r="0.5" cx="6.54311520041847" cy="-17.409367101546614" fill="#5B57" />
<circle r="0.5" cx="3.587918190768924" cy="-19.947695686910173" fill="#5B57" />
<circle r="0.5" cx="-2.0115448028849237" cy="-19.765050816398176" fill="#5B57" />
<circle r="0.5" cx="-6.720662803061394" cy="-19.44330983540209" fill="#9995" />
<circle r="0.5" cx="-11.189458812422709" cy="-19.22778730818801" fill="#9995" />
<circle r="0.5" cx="-14.486272958641965" cy="-18.315286184733043" fill="#9995" />
<circle r="0.5" cx="-15.841800575390819" cy="-16.342554188754328" fill="#9995" />
<circle r="0.5" cx="-15.639919254720692" cy="-13.630618709806598" fill="#9995" />
<circle r="0.5" cx="-14.38542065999106" cy="-10.727818902309084" fill="#9995" />
<circle r="0.5" cx="-13.256878251157278" cy="-8.344202127614341" fill="#9995" />
<circle r="0.5" cx="-12.866660904631727" cy="-6.489434408931649" fill="#9995" />
<circle r="0.5" cx="-12.090048532580594" cy="-4.799218392289751" fill="#9995" />
<circle r="0.5" cx="-9.542735176809918" cy="-3.5640589546739876" fill="#9995" />
<circle r="0.5" cx="-6.461999135715835" cy="-3.1226002044565715" fill="#9995" />
<circle r="0.5" cx="-6.621010885149614" cy="-2.102583415336845" fill="#9995" />
<circle r="0.5" cx="-5.780543193362647" cy="-1.4614154820941305" fill="#9995" />
<circle r="0.5" cx="-5.262142632743299" cy="-0.6230190414373893" fill="#9995" />
<circle r="0.5" cx="-3.780924452679807" cy="-0.6727673584703497" fill="#9995" />
<circle r="0.5" cx="-2.8402368606966766" cy="-0.3119970526336613" fill="#9995" />
<circle r="0.5" cx="-1.7177733405766726" cy="-0.32317930808061224" fill="#9995" />
<circle r="0.5" cx="-0.6747859643287613" cy="-0.25394411365743386" fill="#9995" />
<circle r="0.5" cx="0.3472096327148566" cy="-0.7874560159455868" fill="#9995" />
<circle r="0.5" cx="1.2913965482660439" cy="-0.9775665446098314" fill="#9995" />
<circle r="0.5" cx="2.0581929173243694" cy="-1.485247973920878" fill="#9995" />
<circle r="0.5" cx="3.372318991017964" cy="-1.3481446602867986" fill="#9995" />
<circle r="0.5" cx="5.063339974082714" cy="-1.3245219925487106" fill="#9995" />
<circle r="0.5" cx="6.631834518279161" cy="-1.7667356249068344" fill="#9995" />
<circle r="0.5" cx="7.578198927116764" cy="-2.6558971088511463" fill="#9995" />
<circle r="0.5" cx="8.595076738921732" cy="-3.6280767635089695" fill="#9995" />
<circle r="0.5" cx="5.384290046451063" cy="-5.025553785195047" fill="#9995" />
<circle r="0.5" cx="5.00128070686311" cy="-5.699469583202288" fill="#9995" />
<circle r="0.5" cx="5.029879662103226" cy="-6.414638546188744" fill="#9995" />
<circle r="0.5" cx="5.104830462303078" cy="-7.247725659381421" fill="#9995" />
<circle r="0.5" cx="4.67538831016615" cy="-7.993521658610425" fill="#9995" />
<circle r="0.5" cx="5.277051641900887" cy="-9.730754273961429" fill="#5B57" />
<circle r="0.5" cx="5.899416128388607" cy="-12.617367783821187" fill="#5B57" />
<circle r="0.5" cx="4.733463950877454" cy="-15.08689952502358" fill="#5B57" />
<circle r="0.5" cx="2.4955787663063167" cy="-18.476067678934292" fill="#5B57" />
<circle r="0.5" cx="-2.1098013298101623" cy="-20.767834815868046" fill="#5B57" />
<circle r="0.5" cx="-7.119425783299343" cy="-20.506037637838514" fill="#9995" />
<circle r="0.5" cx="-10.792184444356023" cy="-19.523623037514533" fill="#9995" />
<circle r="0.5" cx="-12.751393680612876" cy="-17.66015346937384" fill="#9995" />
<circle r="0.5" cx="-12.227042990411285" cy="-14.463908184040964" fill="#9995" />
<circle r="0.5" cx="-12.09073975296906" cy="-12.037473481986638" fill="#9995" />
<circle r="0.5" cx="-11.119542393733962" cy="-9.638940357568249" fill="#9995" />
<circle r="0.5" cx="-9.426309745020317" cy="-7.53566871995911" fill="#9995" />
<circle r="0.5" cx="-8.802238081144187" cy="-6.178606319417856" fill="#9995" />
<circle r="0.5" cx="-8.722673532351477" cy="-5.048409742772641" fill="#9995" />
<circle r="0.5" cx="-6.971923142185216" cy="-4.165098684366042" fill="#9995" />
<circle r="0.5" cx="-4.22072329252941" cy="-3.9876064808555878" fill="#9995" />
<circle r="0.5" cx="-3.959034132144501" cy="-3.4926113938586245" fill="#9995" />
<circle r="0.5" cx="-3.828781198563591" cy="-2.896155829306346" fill="#9995" />
<circle r="0.5" cx="-3.32529210921963" cy="-2.475742892029298" fill="#9995" />
<circle r="0.5" cx="-2.2170733548628974" cy="-2.7264643326925797" fill="#9995" />
<circle r="0.5" cx="-1.7951717293480995" cy="-2.3111169601502057" fill="#9995" />
<circle r="0.5" cx="-1.1539171412831783" cy="-2.177384830797391" fill="#9995" />
<circle r="0.5" cx="-0.4810272076027522" cy="-2.1325922155331134" fill="#9995" />
<circle r="0.5" cx="0.1383114712233957" cy="-2.626972324841592" fill="#9995" />
<circle r="0.5" cx="0.7893364880230069" cy="-2.526285434149944" fill="#9995" />
<circle r="0.5" cx="1.3761211005269336" cy="-2.726898438885772" fill="#9995" />
<circle r="0.5" cx="2.2752740145781103" cy="-2.65144607566814" fill="#9995" />
<circle r="0.5" cx="3.2676723683791487" cy="-2.7507410134478993" fill="#9995" />
<circle r="0.5" cx="4.294710007650149" cy="-3.0397568877058023" fill="#9995" />
<circle r="0.5" cx="4.7253568397227665" cy="-3.6751776298267758" fill="#9995" />
<circle r="0.5" cx="4.694379721466902" cy="-4.383296787119417" fill="#9995" />
<circle r="0.5" cx="2.0721082196555662" cy="-5.283218338905393" fill="#9995" />
<circle r="0.5" cx="1.748035877256915" cy="-5.547560228639203" fill="#9995" />
<circle r="0.5" cx="2.2181821697635664" cy="-5.947636130044176" fill="#9995" />
<circle r="0.5" cx="2.280036725554868" cy="-6.358018743971328" fill="#9995" />
<circle r="0.5" cx="1.9828066515484577" cy="-6.6618089452387235" fill="#9995" />
<circle r="0.5" cx="2.5511738297810505" cy="-7.716895352942177" fill="#5B57" />
<circle r="0.5" cx="3.0222066985606477" cy="-9.414143623826321" fill="#5B57" />
<circle r="0.5" cx="2.8726973273286327" cy="-11.69964518389559" fill="#5B57" />
<circle r="0.5" cx="1.5950688932159562" cy="-14.35253162635155" fill="#5B57" />
<circle r="0.5" cx="-1.7726583525658368" cy="-19.886235209099056" fill="#5B57" />
<circle r="0.5" cx="-7.270765816064362" cy="-21.309938082231273" fill="#9995" />
<circle r="0.5" cx="-9.48346358435172" cy="-18.883186482926785" fill="#9995" />
<circle r="0.5" cx="-7.747525957807238" cy="-13.794815949462436" fill="#9995" />
<circle r="0.5" cx="-6.830276747066066" cy="-10.812328571163698" fill="#9995" />
<circle r="0.5" cx="-6.918258195376947" cy="-9.341768753592017" fill="#9995" />
<circle r="0.5" cx="-5.301469507287354" cy="-7.43635384638186" fill="#9995" />
<circle r="0.5" cx="-4.39385991451609" cy="-6.403624652127949" fill="#9995" />
<circle r="0.5" cx="-4.6098881740096855" cy="-5.860864176711045" fill="#9995" />
<circle r="0.5" cx="-4.9947536152797625" cy="-5.294954400808194" fill="#9995" />
<circle r="0.5" cx="-4.092236017348588" cy="-4.7983870977009175" fill="#9995" />
<circle r="0.5" cx="-2.267152981530829" cy="-4.766466348171705" fill="#9995" />
<circle r="0.5" cx="-1.3444858996616404" cy="-4.852067203134847" fill="#9995" />
<circle r="0.5" cx="-1.700647301277286" cy="-4.442892499094353" fill="#9995" />
<circle r="0.5" cx="-1.6926605641050863" cy="-4.108585912218965" fill="#9995" />
<circle r="0.5" cx="-0.9275669379687601" cy="-4.528942925823831" fill="#9995" />
<circle r="0.5" cx="-0.7437007527545836" cy="-4.463604705581092" fill="#9995" />
<circle r="0.5" cx="-0.6744013164555751" cy="-3.9861162726041677" fill="#9995" />
<circle r="0.5" cx="-0.36567463468251127" cy="-3.965569357608456" fill="#9995" />
<circle r="0.5" cx="-0.13342913766080655" cy="-4.42301051013847" fill="#9995" />
<circle r="0.5" cx="0.15997519435634877" cy="-4.254524446655383" fill="#9995" />
<circle r="0.5" cx="0.3993882086698708" cy="-4.3358875815318605" fill="#9995" />
<circle r="0.5" cx="0.8009089380773937" cy="-4.27647110887378" fill="#9995" />
<circle r="0.5" cx="1.473663914322415" cy="-4.154605936915646" fill="#9995" />
<circle r="0.5" cx="1.9787053429310086" cy="-4.296307717260783" fill="#9995" />
<circle r="0.5" cx="0.8012819378939273" cy="-4.98735396908393" fill="#9995" />
<circle r="0.5" cx="1.4432497185002613" cy="-5.057489367468171" fill="#9995" />
</g>


<g font-family="sans-serif" font-size="2pt">
<!-- haha not really 2pt but a unit is required per CSS -->
  <text x="42" y="-1">+a</text>
  <text x="-43" y="-1" text-anchor="end">-a</text>
  <text x="2" y="44">-b</text>
  <text x="2" y="-42">+b</text>
</g>

<g font-family="sans-serif" font-size="1.8pt" fill="#444">
  <text x="-36" y="-40">Rec BT.2020</text>
  <text x="-36" y="-37">Display P3</text>
  <text x="-36" y="-34">sRGB / BT.709</text>
  <polyline stroke="#DBB" stroke-width="0.4" fill="none" points="-44 -41 -38 -41"/>
  <polyline stroke="#BDB" stroke-width="0.4" fill="none" points="-44 -38 -38 -38"/>
  <polyline stroke="#BBD" stroke-width="0.4" fill="none" points="-44 -35 -38 -35"/>
</g>

</svg>