<svg xmlns="http://www.w3.org/2000/svg" viewBox="-5 -65 75 65">
<desc>Show u*,v* UCS diagram
with fake colors on spectral locus
(special Safari bug-avoiding version)
</desc>
<rect x="-5" y="-65" width="75" height="70" fill="rgb(38.86% 38.86% 38.86%)"/>
<!-- tongue -->
<g fill="none" stroke-width="0.5" stroke-linecap="round">
<polyline points="25.69,-1.6500000000000001 25.679999999999996,-1.6500000000000001" stroke="rgb(1.4956825520565817%,0%,7.755473461150802%)"/>
<polyline points="25.679999999999996,-1.6500000000000001 25.679999999999996,-1.6500000000000001" stroke="rgb(1.6414738542209668%,0%,8.28291408692497%)"/>
<polyline points="25.679999999999996,-1.6500000000000001 25.679999999999996,-1.6500000000000001" stroke="rgb(1.7941051865837856%,0%,8.805886289302101%)"/>
<polyline points="25.679999999999996,-1.6500000000000001 25.669999999999998,-1.6500000000000001" stroke="rgb(1.9682160564110147%,0%,9.371664928110961%)"/>
<polyline points="25.669999999999998,-1.6500000000000001 25.669999999999998,-1.6500000000000001" stroke="rgb(2.1784327647640334%,0%,10.017667663582989%)"/>
<polyline points="25.669999999999998,-1.6500000000000001 25.66,-1.6500000000000001" stroke="rgb(2.2463073053639757%,0%,10.19463432797143%)"/>
<polyline points="25.66,-1.6500000000000001 25.66,-1.6400000000000001" stroke="rgb(2.2454519381009246%,0%,10.013777837769327%)"/>
<polyline points="25.66,-1.6400000000000001 25.650000000000002,-1.6400000000000001" stroke="rgb(2.2639174614025066%,0%,9.73620611454969%)"/>
<polyline points="25.650000000000002,-1.6400000000000001 25.650000000000002,-1.63" stroke="rgb(2.298208497467336%,0%,9.398583964487948%)"/>
<polyline points="25.650000000000002,-1.63 25.64,-1.63" stroke="rgb(2.3396071513687295%,0%,9.026266174087269%)"/>
<polyline points="25.64,-1.63 25.629999999999995,-1.63" stroke="rgb(2.3835714630120215%,0%,8.645510850474874%)"/>
<polyline points="25.629999999999995,-1.63 25.619999999999997,-1.6400000000000001" stroke="rgb(2.4231311649099103%,0%,8.265548448808193%)"/>
<polyline points="25.619999999999997,-1.6400000000000001 25.61,-1.6400000000000001" stroke="rgb(2.4566741495397326%,0%,7.8780535388092625%)"/>
<polyline points="25.61,-1.6400000000000001 25.61,-1.6400000000000001" stroke="rgb(2.482263522975058%,0%,7.466463832079517%)"/>
<polyline points="25.61,-1.6400000000000001 25.6,-1.63" stroke="rgb(2.4922186597303515%,0%,7.011205593593662%)"/>
<polyline points="25.6,-1.63 25.590000000000003,-1.63" stroke="rgb(2.4816433181940236%,0%,6.506981106553036%)"/>
<polyline points="25.590000000000003,-1.63 25.590000000000003,-1.6099999999999999" stroke="rgb(2.4407007171849897%,0%,5.9395231554662455%)"/>
<polyline points="25.590000000000003,-1.6099999999999999 25.590000000000003,-1.6099999999999999" stroke="rgb(2.3644287575823277%,0%,5.331154655857328%)"/>
<polyline points="25.590000000000003,-1.6099999999999999 25.580000000000002,-1.6" stroke="rgb(2.2532823779014097%,0%,4.72715513756484%)"/>
<polyline points="25.580000000000002,-1.6 25.580000000000002,-1.59" stroke="rgb(2.1090651847787667%,0%,4.176263078008485%)"/>
<polyline points="25.580000000000002,-1.59 25.569999999999997,-1.59" stroke="rgb(1.945354301399195%,0%,3.6754933536079686%)"/>
<polyline points="25.569999999999997,-1.59 25.56,-1.59" stroke="rgb(1.7806100354934735%,0%,3.2530623646405186%)"/>
<polyline points="25.56,-1.59 25.55,-1.59" stroke="rgb(1.6036437451617263%,0%,2.859551788209335%)"/>
<polyline points="25.55,-1.59 25.540000000000003,-1.58" stroke="rgb(1.3959582412022549%,0%,2.4498215301759387%)"/>
<polyline points="25.540000000000003,-1.58 25.53,-1.59" stroke="rgb(1.1380790425028235%,0%,1.9923615104438592%)"/>
<polyline points="25.53,-1.59 25.509999999999998,-1.59" stroke="rgb(0.8148176706183367%,0%,1.470934861322543%)"/>
<polyline points="25.509999999999998,-1.59 25.490000000000002,-1.59" stroke="rgb(0.41343194339101785%,0%,0.8772015702713922%)"/>
<polyline points="25.490000000000002,-1.59 25.480000000000004,-1.59" stroke="rgb(0%,0%,0.27135499839781707%)"/>
<polyline points="25.480000000000004,-1.59 25.46,-1.59" stroke="rgb(0%,0%,0%)"/>
<polyline points="25.46,-1.59 25.45,-1.59" stroke="rgb(0%,0%,0%)"/>
<polyline points="25.45,-1.59 25.44,-1.59" stroke="rgb(0%,0%,0%)"/>
<polyline points="25.44,-1.59 25.419999999999998,-1.59" stroke="rgb(0%,0%,0%)"/>
<polyline points="25.419999999999998,-1.59 25.4,-1.59" stroke="rgb(0%,0%,0%)"/>
<polyline points="25.4,-1.59 25.380000000000003,-1.6" stroke="rgb(0%,0%,0%)"/>
<polyline points="25.380000000000003,-1.6 25.369999999999997,-1.6" stroke="rgb(0%,0%,0%)"/>
<polyline points="25.369999999999997,-1.6 25.34,-1.6099999999999999" stroke="rgb(0%,0%,0%)"/>
<polyline points="25.34,-1.6099999999999999 25.319999999999997,-1.6199999999999999" stroke="rgb(0%,0%,0%)"/>
<polyline points="25.319999999999997,-1.6199999999999999 25.290000000000003,-1.6400000000000001" stroke="rgb(0%,0%,0%)"/>
<polyline points="25.290000000000003,-1.6400000000000001 25.259999999999998,-1.66" stroke="rgb(0%,0%,0%)"/>
<polyline points="25.259999999999998,-1.66 25.22,-1.69" stroke="rgb(0%,0%,0%)"/>
<polyline points="25.22,-1.69 25.180000000000003,-1.72" stroke="rgb(0%,0%,0%)"/>
<polyline points="25.180000000000003,-1.72 25.130000000000003,-1.76" stroke="rgb(0%,0%,0%)"/>
<polyline points="25.130000000000003,-1.76 25.080000000000002,-1.81" stroke="rgb(0%,0%,0%)"/>
<polyline points="25.080000000000002,-1.81 25.019999999999996,-1.8599999999999999" stroke="rgb(0%,0%,0%)"/>
<polyline points="25.019999999999996,-1.8599999999999999 24.959999999999997,-1.91" stroke="rgb(0%,0%,0%)"/>
<polyline points="24.959999999999997,-1.91 24.9,-1.97" stroke="rgb(0%,0%,0%)"/>
<polyline points="24.9,-1.97 24.83,-2.03" stroke="rgb(0%,0%,0%)"/>
<polyline points="24.83,-2.03 24.759999999999998,-2.1" stroke="rgb(0%,0%,0%)"/>
<polyline points="24.759999999999998,-2.1 24.69,-2.18" stroke="rgb(0%,0%,0%)"/>
<polyline points="24.69,-2.18 24.610000000000003,-2.26" stroke="rgb(0%,0%,0%)"/>
<polyline points="24.610000000000003,-2.26 24.52,-2.35" stroke="rgb(0%,0%,0%)"/>
<polyline points="24.52,-2.35 24.43,-2.45" stroke="rgb(0%,0%,0%)"/>
<polyline points="24.43,-2.45 24.33,-2.55" stroke="rgb(0%,0%,0%)"/>
<polyline points="24.33,-2.55 24.22,-2.6599999999999997" stroke="rgb(0%,0%,0%)"/>
<polyline points="24.22,-2.6599999999999997 24.11,-2.78" stroke="rgb(0%,0%,0%)"/>
<polyline points="24.11,-2.78 24,-2.91" stroke="rgb(0%,0%,0%)"/>
<polyline points="24,-2.91 23.87,-3.04" stroke="rgb(1.017943638883407%,0%,1.0960752021354152%)"/>
<polyline points="23.87,-3.04 23.75,-3.19" stroke="rgb(5.717523144475935%,0%,5.95557761602525%)"/>
<polyline points="23.75,-3.19 23.61,-3.3300000000000005" stroke="rgb(9.193312695814459%,0%,9.538157571537514%)"/>
<polyline points="23.61,-3.3300000000000005 23.47,-3.49" stroke="rgb(11.87915790186341%,0%,12.734566963406587%)"/>
<polyline points="23.47,-3.49 23.330000000000002,-3.65" stroke="rgb(13.656210866600048%,0%,15.788363937508066%)"/>
<polyline points="23.330000000000002,-3.65 23.18,-3.81" stroke="rgb(15.07391442896117%,0%,18.34929524287854%)"/>
<polyline points="23.18,-3.81 23.01,-3.9899999999999998" stroke="rgb(16.416802282754656%,0%,20.658942110869866%)"/>
<polyline points="23.01,-3.9899999999999998 22.84,-4.17" stroke="rgb(17.721085906238002%,0%,22.78631356894901%)"/>
<polyline points="22.84,-4.17 22.67,-4.37" stroke="rgb(19.042262903124243%,0%,24.83645034289562%)"/>
<polyline points="22.67,-4.37 22.470000000000002,-4.569999999999999" stroke="rgb(20.492190800156905%,0%,27.05089938049682%)"/>
<polyline points="22.470000000000002,-4.569999999999999 22.27,-4.79" stroke="rgb(21.912370641534817%,0%,29.289495928229275%)"/>
<polyline points="22.27,-4.79 22.06,-5.01" stroke="rgb(23.264881179979525%,0%,31.521532803289134%)"/>
<polyline points="22.06,-5.01 21.84,-5.25" stroke="rgb(24.555310063364168%,0%,33.763005629550136%)"/>
<polyline points="21.84,-5.25 21.61,-5.5" stroke="rgb(25.78213122566951%,0%,36.01651973088741%)"/>
<polyline points="21.61,-5.5 21.37,-5.75" stroke="rgb(26.946050769857017%,0%,38.291345397641656%)"/>
<polyline points="21.37,-5.75 21.13,-6.02" stroke="rgb(28.047184746204984%,0%,40.59694205091787%)"/>
<polyline points="21.13,-6.02 20.87,-6.29" stroke="rgb(29.08715728224015%,0%,42.950896468700165%)"/>
<polyline points="20.87,-6.29 20.61,-6.58" stroke="rgb(30.064272131637388%,0%,45.37143569445723%)"/>
<polyline points="20.61,-6.58 20.330000000000002,-6.890000000000001" stroke="rgb(30.975957016868517%,0%,47.88756647711783%)"/>
<polyline points="20.330000000000002,-6.890000000000001 20.04,-7.21" stroke="rgb(31.811893566741478%,0%,50.52240206690146%)"/>
<polyline points="20.04,-7.21 19.74,-7.5600000000000005" stroke="rgb(32.55836378078077%,0%,53.30835678138488%)"/>
<polyline points="19.74,-7.5600000000000005 19.42,-7.920000000000001" stroke="rgb(33.19230952617282%,0%,56.26911164941949%)"/>
<polyline points="19.42,-7.920000000000001 19.1,-8.309999999999999" stroke="rgb(33.68135654291961%,0%,59.427862281862666%)"/>
<polyline points="19.1,-8.309999999999999 18.77,-8.709999999999999" stroke="rgb(33.983169775689156%,0%,62.81890535336726%)"/>
<polyline points="18.77,-8.709999999999999 18.42,-9.139999999999999" stroke="rgb(34.03848956829603%,0%,66.49001562630745%)"/>
<polyline points="18.42,-9.139999999999999 18.07,-9.59" stroke="rgb(33.76027646618024%,0%,70.4959784539615%)"/>
<polyline points="18.07,-9.59 17.7,-10.08" stroke="rgb(33.00459394902398%,0%,74.959503324753%)"/>
<polyline points="17.7,-10.08 17.31,-10.6" stroke="rgb(31.493584991628143%,0%,80.07227655411336%)"/>
<polyline points="17.31,-10.6 16.900000000000002,-11.19" stroke="rgb(28.62515818408599%,0%,86.12922129596893%)"/>
<polyline points="16.900000000000002,-11.19 16.46,-11.84" stroke="rgb(22.712755248798445%,0%,93.62439984454373%)"/>
<polyline points="16.46,-11.84 15.98,-12.559999999999999" stroke="rgb(0%,0%,100%)"/>
<polyline points="15.98,-12.559999999999999 15.479999999999999,-13.34" stroke="rgb(0%,0%,100%)"/>
<polyline points="15.479999999999999,-13.34 14.95,-14.19" stroke="rgb(0%,11.762413612609107%,100%)"/>
<polyline points="14.95,-14.19 14.41,-15.1" stroke="rgb(0%,18.630844096987126%,95.80760921484097%)"/>
<polyline points="14.41,-15.1 13.850000000000001,-16.06" stroke="rgb(0%,23.03014998579608%,90.27108561423994%)"/>
<polyline points="13.850000000000001,-16.06 13.28,-17.07" stroke="rgb(0%,26.409347545964206%,85.22341851175568%)"/>
<polyline points="13.28,-17.07 12.690000000000001,-18.14" stroke="rgb(0%,29.18475249584102%,80.66940746241256%)"/>
<polyline points="12.690000000000001,-18.14 12.08,-19.259999999999998" stroke="rgb(0%,31.560713432220506%,76.59012466364454%)"/>
<polyline points="12.08,-19.259999999999998 11.469999999999999,-20.44" stroke="rgb(0%,33.65558382034548%,72.94801104178464%)"/>
<polyline points="11.469999999999999,-20.44 10.84,-21.69" stroke="rgb(0%,35.544497810427835%,69.71223172219021%)"/>
<polyline points="10.84,-21.69 10.2,-22.98" stroke="rgb(0%,37.27897203191671%,66.86423301527287%)"/>
<polyline points="10.2,-22.98 9.56,-24.32" stroke="rgb(0%,38.892617934575014%,64.40448871609036%)"/>
<polyline points="9.56,-24.32 8.92,-25.69" stroke="rgb(0%,40.409056918546455%,62.31149301280096%)"/>
<polyline points="8.92,-25.69 8.28,-27.08" stroke="rgb(0%,41.845063109623595%,60.5416378984859%)"/>
<polyline points="8.28,-27.08 7.64,-28.499999999999996" stroke="rgb(0%,43.20341968225861%,58.99983853663374%)"/>
<polyline points="7.64,-28.499999999999996 7.01,-29.93" stroke="rgb(0%,44.48686205804473%,57.629325199894495%)"/>
<polyline points="7.01,-29.93 6.39,-31.369999999999997" stroke="rgb(0%,45.71227239105895%,56.43028579623166%)"/>
<polyline points="6.39,-31.369999999999997 5.79,-32.82" stroke="rgb(0%,46.903108952855725%,55.42843341090492%)"/>
<polyline points="5.79,-32.82 5.21,-34.27" stroke="rgb(0%,48.07816139097602%,54.62716966191613%)"/>
<polyline points="5.21,-34.27 4.67,-35.709999999999994" stroke="rgb(0%,49.25041951974094%,54.01552220562452%)"/>
<polyline points="4.67,-35.709999999999994 4.16,-37.12" stroke="rgb(0%,50.42614312176769%,53.577716274740105%)"/>
<polyline points="4.16,-37.12 3.6799999999999997,-38.5" stroke="rgb(0%,51.606494484615226%,53.28643249115341%)"/>
<polyline points="3.6799999999999997,-38.5 3.2300000000000004,-39.85" stroke="rgb(0%,52.79567694770423%,53.121213941418446%)"/>
<polyline points="3.2300000000000004,-39.85 2.82,-41.17" stroke="rgb(0%,53.99898656970424%,53.068275704461996%)"/>
<polyline points="2.82,-41.17 2.4299999999999997,-42.44" stroke="rgb(0%,55.21864756175032%,53.11364277977809%)"/>
<polyline points="2.4299999999999997,-42.44 2.07,-43.66" stroke="rgb(0%,56.45990627174905%,53.25267538012406%)"/>
<polyline points="2.07,-43.66 1.7399999999999998,-44.83" stroke="rgb(0%,57.72205269842128%,53.4808055696824%)"/>
<polyline points="1.7399999999999998,-44.83 1.4500000000000002,-45.94" stroke="rgb(0%,59.00427122994114%,53.79537983307797%)"/>
<polyline points="1.4500000000000002,-45.94 1.1900000000000002,-46.98" stroke="rgb(0%,60.30296586206356%,54.1995810020204%)"/>
<polyline points="1.1900000000000002,-46.98 0.96,-47.97" stroke="rgb(0%,61.61737141677015%,54.67656352407493%)"/>
<polyline points="0.96,-47.97 0.76,-48.89" stroke="rgb(0%,62.94344990619677%,55.20871280457914%)"/>
<polyline points="0.76,-48.89 0.6,-49.75" stroke="rgb(0%,64.28768798955689%,55.78819574492633%)"/>
<polyline points="0.6,-49.75 0.45999999999999996,-50.55" stroke="rgb(0%,65.66119790212953%,56.41372820891368%)"/>
<polyline points="0.45999999999999996,-50.55 0.35000000000000003,-51.31" stroke="rgb(0%,67.07461053259387%,57.08472988651609%)"/>
<polyline points="0.35000000000000003,-51.31 0.26,-52.01" stroke="rgb(0%,68.53756482620005%,57.80069481869445%)"/>
<polyline points="0.26,-52.01 0.19,-52.65" stroke="rgb(0%,70.05375829614185%,58.55927357704178%)"/>
<polyline points="0.19,-52.65 0.15,-53.25" stroke="rgb(0%,71.60892734367556%,59.34383601370794%)"/>
<polyline points="0.15,-53.25 0.13999999999999999,-53.54" stroke="rgb(0%,73.1902063713192%,60.13032573159467%)"/>
<polyline points="0.13999999999999999,-53.54 0.13999999999999999,-54.32" stroke="rgb(0%,74.77970748348925%,60.89685277729624%)"/>
<polyline points="0.13999999999999999,-54.32 0.16999999999999998,-54.800000000000004" stroke="rgb(0%,76.36624312877908%,61.6179764959857%)"/>
<polyline points="0.16999999999999998,-54.800000000000004 0.21,-55.24" stroke="rgb(0%,77.94277962654641%,62.27165230778825%)"/>
<polyline points="0.21,-55.24 0.27999999999999997,-55.65" stroke="rgb(0%,79.51178373140228%,62.84664052018376%)"/>
<polyline points="0.27999999999999997,-55.65 0.36,-56.03" stroke="rgb(0%,81.08150527191623%,63.32421827945775%)"/>
<polyline points="0.36,-56.03 0.45999999999999996,-56.379999999999995" stroke="rgb(0%,82.6550637685416%,63.68981029355839%)"/>
<polyline points="0.45999999999999996,-56.379999999999995 0.58,-56.699999999999996" stroke="rgb(0%,84.23563894884903%,63.97718015037197%)"/>
<polyline points="0.58,-56.699999999999996 0.72,-56.989999999999995" stroke="rgb(0%,85.82152307229335%,64.19032110723425%)"/>
<polyline points="0.72,-56.989999999999995 0.88,-57.26" stroke="rgb(0%,87.40342012207704%,64.31856518439587%)"/>
<polyline points="0.88,-57.26 1.04,-57.489999999999995" stroke="rgb(0%,88.9706052983031%,64.35690818732456%)"/>
<polyline points="1.04,-57.489999999999995 1.23,-57.699999999999996" stroke="rgb(0%,90.51535699064429%,64.29906231983004%)"/>
<polyline points="1.23,-57.699999999999996 1.4200000000000002,-57.879999999999995" stroke="rgb(0%,92.02843084949941%,64.14383756560053%)"/>
<polyline points="1.4200000000000002,-57.879999999999995 1.63,-58.03" stroke="rgb(0%,93.51037775188131%,63.88748822281225%)"/>
<polyline points="1.63,-58.03 1.8499999999999999,-58.160000000000004" stroke="rgb(0%,94.95497654877228%,63.53101184502765%)"/>
<polyline points="1.8499999999999999,-58.160000000000004 2.08,-58.269999999999996" stroke="rgb(0%,96.35122361892695%,63.0699540274832%)"/>
<polyline points="2.08,-58.269999999999996 2.31,-58.37" stroke="rgb(0%,97.68736438857032%,62.50372949411363%)"/>
<polyline points="2.31,-58.37 2.56,-58.440000000000005" stroke="rgb(0%,98.95566301704905%,61.8245124586368%)"/>
<polyline points="2.56,-58.440000000000005 2.81,-58.5" stroke="rgb(0%,100%,61.003767746359635%)"/>
<polyline points="2.81,-58.5 3.06,-58.550000000000004" stroke="rgb(0%,100%,60.050887841315216%)"/>
<polyline points="3.06,-58.550000000000004 3.3300000000000005,-58.58" stroke="rgb(0%,100%,59.360213402366%)"/>
<polyline points="3.3300000000000005,-58.58 3.5999999999999996,-58.60999999999999" stroke="rgb(0%,100%,58.985621453135614%)"/>
<polyline points="3.5999999999999996,-58.60999999999999 3.88,-58.64" stroke="rgb(0%,100%,59.266376430834036%)"/>
<polyline points="3.88,-58.64 4.16,-58.650000000000006" stroke="rgb(21.06673940388558%,100%,61.46558944242684%)"/>
<polyline points="4.16,-58.650000000000006 4.44,-58.660000000000004" stroke="rgb(34.38892067588054%,100%,63.251728592400305%)"/>
<polyline points="4.44,-58.660000000000004 4.72,-58.67" stroke="rgb(43.093887577949445%,100%,64.99521567855106%)"/>
<polyline points="4.72,-58.67 5.01,-58.67" stroke="rgb(49.8094262989682%,100%,66.68572396876631%)"/>
<polyline points="5.01,-58.67 5.29,-58.68" stroke="rgb(55.33695273270964%,100%,68.32219278815614%)"/>
<polyline points="5.29,-58.68 5.57,-58.67" stroke="rgb(60.029285415778354%,100%,69.89315962182597%)"/>
<polyline points="5.57,-58.67 5.86,-58.67" stroke="rgb(64.11800715164122%,100%,71.40968287425808%)"/>
<polyline points="5.86,-58.67 6.140000000000001,-58.660000000000004" stroke="rgb(67.73210083627598%,100%,72.87335497557609%)"/>
<polyline points="6.140000000000001,-58.660000000000004 6.43,-58.650000000000006" stroke="rgb(70.97107159064015%,100%,74.2951651160979%)"/>
<polyline points="6.43,-58.650000000000006 6.72,-58.64" stroke="rgb(73.89923658858099%,100%,75.68056755040152%)"/>
<polyline points="6.72,-58.64 7.02,-58.620000000000005" stroke="rgb(76.56336901583848%,100%,77.03359207167625%)"/>
<polyline points="7.02,-58.620000000000005 7.32,-58.60999999999999" stroke="rgb(78.99893246194677%,100%,78.35703911576321%)"/>
<polyline points="7.32,-58.60999999999999 7.62,-58.589999999999996" stroke="rgb(81.23190480147007%,100%,79.65178196919021%)"/>
<polyline points="7.62,-58.589999999999996 7.920000000000001,-58.56" stroke="rgb(83.28619976475568%,100%,80.92207762274782%)"/>
<polyline points="7.920000000000001,-58.56 8.23,-58.540000000000006" stroke="rgb(85.189656105873%,100%,82.18215608830273%)"/>
<polyline points="8.23,-58.540000000000006 8.55,-58.51" stroke="rgb(86.95970759108616%,100%,83.44058387246808%)"/>
<polyline points="8.55,-58.51 8.870000000000001,-58.48" stroke="rgb(88.60546738984621%,100%,84.69973300888537%)"/>
<polyline points="8.870000000000001,-58.48 9.19,-58.45" stroke="rgb(90.11320603510107%,100%,85.93200496573384%)"/>
<polyline points="9.19,-58.45 9.53,-58.41" stroke="rgb(91.46851574423171%,100%,87.10240674264743%)"/>
<polyline points="9.53,-58.41 9.86,-58.37" stroke="rgb(92.66357579899508%,100%,88.17848358297022%)"/>
<polyline points="9.86,-58.37 10.2,-58.34" stroke="rgb(93.70177272019596%,100%,89.14038647703029%)"/>
<polyline points="10.2,-58.34 10.549999999999999,-58.29" stroke="rgb(94.60169398481312%,100%,89.99248114093602%)"/>
<polyline points="10.549999999999999,-58.29 10.91,-58.25" stroke="rgb(95.38083324670089%,100%,90.74013208078206%)"/>
<polyline points="10.91,-58.25 11.27,-58.209999999999994" stroke="rgb(96.05351281283528%,100%,91.38567172752998%)"/>
<polyline points="11.27,-58.209999999999994 11.64,-58.160000000000004" stroke="rgb(96.6375159296826%,100%,91.94208755158711%)"/>
<polyline points="11.64,-58.160000000000004 12.02,-58.10999999999999" stroke="rgb(97.1355508459862%,100%,92.39301515208524%)"/>
<polyline points="12.02,-58.10999999999999 12.4,-58.06" stroke="rgb(97.55236876107001%,100%,92.7229170477915%)"/>
<polyline points="12.4,-58.06 12.790000000000001,-58.01" stroke="rgb(97.89413596272053%,100%,92.91596281122725%)"/>
<polyline points="12.790000000000001,-58.01 13.19,-57.95" stroke="rgb(98.16631514049442%,100%,92.94913535698527%)"/>
<polyline points="13.19,-57.95 13.600000000000001,-57.9" stroke="rgb(98.37186757090805%,100%,92.78154259553435%)"/>
<polyline points="13.600000000000001,-57.9 14.01,-57.84" stroke="rgb(98.51698742226117%,100%,92.36827412925317%)"/>
<polyline points="14.01,-57.84 14.44,-57.78" stroke="rgb(98.60453785271562%,100%,91.62839749709555%)"/>
<polyline points="14.44,-57.78 14.87,-57.720000000000006" stroke="rgb(98.63818215128407%,100%,90.44421708668597%)"/>
<polyline points="14.87,-57.720000000000006 15.310000000000002,-57.66" stroke="rgb(98.60902690291212%,100%,88.5530804161817%)"/>
<polyline points="15.310000000000002,-57.66 15.76,-57.589999999999996" stroke="rgb(98.45841927044596%,100%,85.18078402202094%)"/>
<polyline points="15.76,-57.589999999999996 16.220000000000002,-57.53" stroke="rgb(98.08389509622046%,100%,78.88384300853455%)"/>
<polyline points="16.220000000000002,-57.53 16.689999999999998,-57.46" stroke="rgb(97.96573995666633%,100%,72.94704741184887%)"/>
<polyline points="16.689999999999998,-57.46 17.169999999999998,-57.38999999999999" stroke="rgb(97.98445252547914%,100%,66.37757932726964%)"/>
<polyline points="17.169999999999998,-57.38999999999999 17.66,-57.32000000000001" stroke="rgb(98.05131904189784%,100%,58.0715085011917%)"/>
<polyline points="17.66,-57.32000000000001 18.16,-57.25" stroke="rgb(98.12139841216073%,100%,46.929453759831304%)"/>
<polyline points="18.16,-57.25 18.67,-57.17" stroke="rgb(98.13266531475449%,100%,30.24047031622443%)"/>
<polyline points="18.67,-57.17 19.189999999999998,-57.089999999999996" stroke="rgb(98.30080613621074%,100%,0%)"/>
<polyline points="19.189999999999998,-57.089999999999996 19.72,-57.02" stroke="rgb(99.8059963373169%,100%,0%)"/>
<polyline points="19.72,-57.02 20.26,-56.940000000000005" stroke="rgb(100%,100%,0%)"/>
<polyline points="20.26,-56.940000000000005 20.810000000000002,-56.85" stroke="rgb(100%,99.18086694946807%,67.292833085042%)"/>
<polyline points="20.810000000000002,-56.85 21.37,-56.769999999999996" stroke="rgb(100%,98.52267696509597%,73.9723738434519%)"/>
<polyline points="21.37,-56.769999999999996 21.94,-56.69" stroke="rgb(100%,97.99305246707836%,77.28404913617912%)"/>
<polyline points="21.94,-56.69 22.52,-56.599999999999994" stroke="rgb(100%,97.5058218051324%,79.08474643270202%)"/>
<polyline points="22.52,-56.599999999999994 23.119999999999997,-56.510000000000005" stroke="rgb(100%,97.02760557862572%,79.96144670964391%)"/>
<polyline points="23.119999999999997,-56.510000000000005 23.72,-56.42" stroke="rgb(100%,96.54264463776502%,80.31975288902963%)"/>
<polyline points="23.72,-56.42 24.33,-56.330000000000005" stroke="rgb(100%,96.04376439382186%,80.35851265001193%)"/>
<polyline points="24.33,-56.330000000000005 24.959999999999997,-56.230000000000004" stroke="rgb(100%,95.5270884933301%,80.19503649462447%)"/>
<polyline points="24.959999999999997,-56.230000000000004 25.590000000000003,-56.14" stroke="rgb(100%,94.98941046175472%,79.87962043647907%)"/>
<polyline points="25.590000000000003,-56.14 26.229999999999997,-56.04" stroke="rgb(100%,94.4280811905492%,79.44072867964054%)"/>
<polyline points="26.229999999999997,-56.04 26.889999999999997,-55.95" stroke="rgb(100%,93.8409830175399%,78.89949344338115%)"/>
<polyline points="26.889999999999997,-55.95 27.55,-55.85" stroke="rgb(100%,93.22662016779225%,78.27035075608366%)"/>
<polyline points="27.55,-55.85 28.22,-55.75" stroke="rgb(100%,92.58463364697774%,77.56197216317709%)"/>
<polyline points="28.22,-55.75 28.9,-55.64" stroke="rgb(100%,91.9171434175253%,76.80439588283541%)"/>
<polyline points="28.9,-55.64 29.59,-55.54" stroke="rgb(100%,91.22366929122549%,75.99208982755769%)"/>
<polyline points="29.59,-55.54 30.29,-55.44" stroke="rgb(100%,90.50511662992051%,75.13375025828371%)"/>
<polyline points="30.29,-55.44 30.990000000000002,-55.33" stroke="rgb(100%,89.7620365811466%,74.23714439272415%)"/>
<polyline points="30.990000000000002,-55.33 31.71,-55.230000000000004" stroke="rgb(100%,88.9952050105699%,73.31043927518988%)"/>
<polyline points="31.71,-55.230000000000004 32.42,-55.120000000000005" stroke="rgb(100%,88.20433256230483%,72.34897540032114%)"/>
<polyline points="32.42,-55.120000000000005 33.15,-55.010000000000005" stroke="rgb(100%,87.39208834126617%,71.36914962539845%)"/>
<polyline points="33.15,-55.010000000000005 33.879999999999995,-54.900000000000006" stroke="rgb(100%,86.55946338516783%,70.37342655563243%)"/>
<polyline points="33.879999999999995,-54.900000000000006 34.61,-54.790000000000006" stroke="rgb(100%,85.70691072701825%,69.36228625733634%)"/>
<polyline points="34.61,-54.790000000000006 35.35,-54.67999999999999" stroke="rgb(100%,84.8350368987281%,68.3392231251447%)"/>
<polyline points="35.35,-54.67999999999999 36.08,-54.56999999999999" stroke="rgb(100%,83.94290638621715%,67.29835769519559%)"/>
<polyline points="36.08,-54.56999999999999 36.809999999999995,-54.459999999999994" stroke="rgb(100%,83.02912642844971%,66.2321430640922%)"/>
<polyline points="36.809999999999995,-54.459999999999994 37.53,-54.36" stroke="rgb(100%,82.09358782828953%,65.13984291887903%)"/>
<polyline points="37.53,-54.36 38.24,-54.25" stroke="rgb(100%,81.13423382947505%,64.0114180318636%)"/>
<polyline points="38.24,-54.25 38.95,-54.14" stroke="rgb(100%,80.15242692253773%,62.85546137041174%)"/>
<polyline points="38.95,-54.14 39.65,-54.04" stroke="rgb(100%,79.14781695773274%,61.67387998092217%)"/>
<polyline points="39.65,-54.04 40.35,-53.93" stroke="rgb(100%,78.12001320604571%,60.46866894125915%)"/>
<polyline points="40.35,-53.93 41.05,-53.83" stroke="rgb(100%,77.07031911343107%,59.24845808942736%)"/>
<polyline points="41.05,-53.83 41.75,-53.72" stroke="rgb(100%,75.99768923442682%,58.01169765278055%)"/>
<polyline points="41.75,-53.72 42.449999999999996,-53.620000000000005" stroke="rgb(100%,74.90216853113694%,56.75892397666094%)"/>
<polyline points="42.449999999999996,-53.620000000000005 43.13,-53.52" stroke="rgb(100%,73.78098810381013%,55.48078435503373%)"/>
<polyline points="43.13,-53.52 43.8,-53.42" stroke="rgb(100%,72.63316090749684%,54.1745408647728%)"/>
<polyline points="43.8,-53.42 44.45,-53.32" stroke="rgb(100%,71.45776638644826%,52.83752609791647%)"/>
<polyline points="44.45,-53.32 45.09,-53.23" stroke="rgb(100%,70.25140607763943%,51.461004790865026%)"/>
<polyline points="45.09,-53.23 45.71,-53.13" stroke="rgb(100%,69.01464418506434%,50.05074874739359%)"/>
<polyline points="45.71,-53.13 46.32,-53.04" stroke="rgb(100%,67.74746638478122%,48.61027029208112%)"/>
<polyline points="46.32,-53.04 46.910000000000004,-52.959999999999994" stroke="rgb(100%,66.45099379295394%,47.14629011406502%)"/>
<polyline points="46.910000000000004,-52.959999999999994 47.49,-52.87" stroke="rgb(100%,65.12403855129614%,45.659530223030806%)"/>
<polyline points="47.49,-52.87 48.06,-52.78" stroke="rgb(100%,63.76866304948805%,44.158953517643084%)"/>
<polyline points="48.06,-52.78 48.61,-52.7" stroke="rgb(100%,62.37992621687292%,42.63628723133051%)"/>
<polyline points="48.61,-52.7 49.15,-52.62" stroke="rgb(100%,60.95614935088264%,41.09232022712438%)"/>
<polyline points="49.15,-52.62 49.669999999999995,-52.54" stroke="rgb(100%,59.492892296693014%,39.521913484510215%)"/>
<polyline points="49.669999999999995,-52.54 50.17,-52.470000000000006" stroke="rgb(100%,57.98808184513322%,37.92583488632027%)"/>
<polyline points="50.17,-52.470000000000006 50.660000000000004,-52.400000000000006" stroke="rgb(100%,56.43771175451457%,36.30034137976047%)"/>
<polyline points="50.660000000000004,-52.400000000000006 51.129999999999995,-52.33" stroke="rgb(100%,54.840330292097775%,34.649977133968285%)"/>
<polyline points="51.129999999999995,-52.33 51.580000000000005,-52.26" stroke="rgb(100%,53.18494941555608%,32.96347597908666%)"/>
<polyline points="51.580000000000005,-52.26 52.019999999999996,-52.190000000000005" stroke="rgb(100%,51.46241950130843%,31.23551138397368%)"/>
<polyline points="52.019999999999996,-52.190000000000005 52.44,-52.129999999999995" stroke="rgb(100%,49.65915458934854%,29.455260090940794%)"/>
<polyline points="52.44,-52.129999999999995 52.849999999999994,-52.07000000000001" stroke="rgb(100%,47.76243842132913%,27.61532994954587%)"/>
<polyline points="52.849999999999994,-52.07000000000001 53.25,-52.01" stroke="rgb(100%,45.76970239077955%,25.724313789814378%)"/>
<polyline points="53.25,-52.01 53.63,-51.949999999999996" stroke="rgb(100%,43.675838421276104%,23.787750748285987%)"/>
<polyline points="53.63,-51.949999999999996 53.99,-51.9" stroke="rgb(100%,41.47364796242739%,21.80987521507946%)"/>
<polyline points="53.99,-51.9 54.35,-51.849999999999994" stroke="rgb(100%,39.15294504431267%,19.793084735292275%)"/>
<polyline points="54.35,-51.849999999999994 54.690000000000005,-51.790000000000006" stroke="rgb(100%,36.69741540184219%,17.73598358091811%)"/>
<polyline points="54.690000000000005,-51.790000000000006 55.02,-51.74999999999999" stroke="rgb(100%,34.072781890585944%,15.619550754099873%)"/>
<polyline points="55.02,-51.74999999999999 55.34,-51.7" stroke="rgb(100%,31.25608576989545%,13.445229778069919%)"/>
<polyline points="55.34,-51.7 55.65,-51.65" stroke="rgb(100%,28.199225297401327%,11.192807221628234%)"/>
<polyline points="55.65,-51.65 55.95,-51.61" stroke="rgb(100%,24.819848286886%,8.817343228979386%)"/>
<polyline points="55.95,-51.61 56.25,-51.559999999999995" stroke="rgb(100%,20.983706379534556%,6.235803606085182%)"/>
<polyline points="56.25,-51.559999999999995 56.54,-51.519999999999996" stroke="rgb(100%,16.36463145362871%,3.214802402797105%)"/>
<polyline points="56.54,-51.519999999999996 56.82000000000001,-51.480000000000004" stroke="rgb(100%,9.952615417318537%,0.3369042740599825%)"/>
<polyline points="56.82000000000001,-51.480000000000004 57.089999999999996,-51.44" stroke="rgb(100%,0%,0%)"/>
<polyline points="57.089999999999996,-51.44 57.35,-51.4" stroke="rgb(100%,0%,0%)"/>
<polyline points="57.35,-51.4 57.599999999999994,-51.35999999999999" stroke="rgb(100%,0%,0%)"/>
<polyline points="57.599999999999994,-51.35999999999999 57.84,-51.32" stroke="rgb(100%,0%,0%)"/>
<polyline points="57.84,-51.32 58.08,-51.29" stroke="rgb(99.39723462197173%,0%,0%)"/>
<polyline points="58.08,-51.29 58.3,-51.24999999999999" stroke="rgb(97.39101289132091%,0%,0%)"/>
<polyline points="58.3,-51.24999999999999 58.52,-51.22" stroke="rgb(95.32596255687912%,0%,0%)"/>
<polyline points="58.52,-51.22 58.730000000000004,-51.190000000000005" stroke="rgb(93.35211626486087%,0%,0.44295780235191806%)"/>
<polyline points="58.730000000000004,-51.190000000000005 58.93000000000001,-51.160000000000004" stroke="rgb(91.4853469771785%,0%,1.1726932559359284%)"/>
<polyline points="58.93000000000001,-51.160000000000004 59.12,-51.129999999999995" stroke="rgb(89.62725689843349%,0%,1.832161578757625%)"/>
<polyline points="59.12,-51.129999999999995 59.3,-51.1" stroke="rgb(87.7770729091051%,0%,2.427769576373588%)"/>
<polyline points="59.3,-51.1 59.47,-51.080000000000005" stroke="rgb(85.93448146770048%,0%,2.9658074128873144%)"/>
<polyline points="59.47,-51.080000000000005 59.62,-51.06" stroke="rgb(84.10015823421865%,0%,3.4484276023736578%)"/>
<polyline points="59.62,-51.06 59.77,-51.03" stroke="rgb(82.27520647387865%,0%,3.87852613010813%)"/>
<polyline points="59.77,-51.03 59.91,-51.01" stroke="rgb(80.45801974378072%,0%,4.259768407768231%)"/>
<polyline points="59.91,-51.01 60.050000000000004,-50.99" stroke="rgb(78.65331006374633%,0%,4.584692720688669%)"/>
<polyline points="60.050000000000004,-50.99 60.18,-50.970000000000006" stroke="rgb(76.86634391341987%,0%,4.863169045388234%)"/>
<polyline points="60.18,-50.970000000000006 60.3,-50.949999999999996" stroke="rgb(75.10189938495546%,0%,5.102658425413343%)"/>
<polyline points="60.3,-50.949999999999996 60.419999999999995,-50.94" stroke="rgb(73.35683176660352%,0%,5.30993745132656%)"/>
<polyline points="60.419999999999995,-50.94 60.529999999999994,-50.92" stroke="rgb(71.63126149530736%,0%,5.4863207013789115%)"/>
<polyline points="60.529999999999994,-50.92 60.64000000000001,-50.9" stroke="rgb(69.91986400120922%,0%,5.637991672314857%)"/>
<polyline points="60.64000000000001,-50.9 60.74,-50.89" stroke="rgb(68.22442763112429%,0%,5.762858740430424%)"/>
<polyline points="60.74,-50.89 60.68,-50.94" stroke="rgb(66.5394494082407%,0%,5.868355516605264%)"/>
<polyline points="60.68,-50.94 60.919999999999995,-50.86000000000001" stroke="rgb(64.86674515251777%,0%,5.956189744277785%)"/>
<polyline points="60.919999999999995,-50.86000000000001 61,-50.849999999999994" stroke="rgb(63.21099864374368%,0%,6.023794097116477%)"/>
<polyline points="61,-50.849999999999994 61.08,-50.839999999999996" stroke="rgb(61.56762814056129%,0%,6.076895230759046%)"/>
<polyline points="61.08,-50.839999999999996 61,-50.89" stroke="rgb(59.93897605014046%,0%,6.114443175691826%)"/>
<polyline points="61,-50.89 61.21,-50.82" stroke="rgb(58.323179513554955%,0%,6.135652330890254%)"/>
<polyline points="61.21,-50.82 61.27,-50.81" stroke="rgb(56.71941051800788%,0%,6.142161364948617%)"/>
<polyline points="61.27,-50.81 61.31999999999999,-50.8" stroke="rgb(55.13169281301208%,0%,6.133025333737488%)"/>
<polyline points="61.31999999999999,-50.8 61.22,-50.849999999999994" stroke="rgb(53.56015972534334%,0%,6.110733726613187%)"/>
<polyline points="61.22,-50.849999999999994 61.42999999999999,-50.79" stroke="rgb(52.011194566080746%,0%,6.072730782720645%)"/>
<polyline points="61.42999999999999,-50.79 61.480000000000004,-50.78" stroke="rgb(50.48153475139877%,0%,6.022978050959942%)"/>
<polyline points="61.480000000000004,-50.78 61.519999999999996,-50.77" stroke="rgb(48.975820285290624%,0%,5.960409555577547%)"/>
<polyline points="61.519999999999996,-50.77 61.57,-50.760000000000005" stroke="rgb(47.49782587111434%,0%,5.888088398634412%)"/>
<polyline points="61.57,-50.760000000000005 61.61,-50.760000000000005" stroke="rgb(46.06039064329984%,0%,5.80243301870922%)"/>
<polyline points="61.61,-50.760000000000005 61.660000000000004,-50.74999999999999" stroke="rgb(44.67091083580442%,0%,5.705571644452696%)"/>
<polyline points="61.660000000000004,-50.74999999999999 61.7,-50.74999999999999" stroke="rgb(43.32920691994341%,0%,5.6046288405783375%)"/>
<polyline points="61.7,-50.74999999999999 61.73,-50.739999999999995" stroke="rgb(42.04121916725489%,0%,5.494698438075927%)"/>
<polyline points="61.73,-50.739999999999995 61.77,-50.73" stroke="rgb(40.80447202583589%,0%,5.376581219972406%)"/>
<polyline points="61.77,-50.73 61.809999999999995,-50.73" stroke="rgb(39.61273558980435%,0%,5.253583412869901%)"/>
<polyline points="61.809999999999995,-50.73 61.85000000000001,-50.72" stroke="rgb(38.46231025356838%,0%,5.12598653027165%)"/>
<polyline points="61.85000000000001,-50.72 61.88,-50.72" stroke="rgb(37.355397340035736%,0%,4.994605124105706%)"/>
<polyline points="61.88,-50.72 61.919999999999995,-50.71" stroke="rgb(36.29250431905234%,0%,4.857225577184792%)"/>
<polyline points="61.919999999999995,-50.71 61.96,-50.71" stroke="rgb(35.25522875114341%,0%,4.717896692878825%)"/>
<polyline points="61.96,-50.71 62,-50.7" stroke="rgb(34.23452195215084%,0%,4.569882383868964%)"/>
<polyline points="62,-50.7 62.029999999999994,-50.7" stroke="rgb(33.21318339533197%,0%,4.410789623873758%)"/>
<polyline points="62.029999999999994,-50.7 62.06,-50.690000000000005" stroke="rgb(32.17630486222696%,0%,4.237946849531387%)"/>
<polyline points="62.06,-50.690000000000005 62.1,-50.690000000000005" stroke="rgb(31.124996405320637%,0%,4.053330535958319%)"/>
<polyline points="62.1,-50.690000000000005 62.129999999999995,-50.68" stroke="rgb(30.074175880101734%,0%,3.8525184975719884%)"/>
<polyline points="62.129999999999995,-50.68 62.160000000000004,-50.68" stroke="rgb(29.03048021495126%,0%,3.648130429171%)"/>
<polyline points="62.160000000000004,-50.68 62.19,-50.67" stroke="rgb(28.01015905351509%,0%,3.4410631196470525%)"/>
<polyline points="62.19,-50.67 62.21,-50.67" stroke="rgb(27.019015993235012%,0%,3.2332015630524236%)"/>
<polyline points="62.21,-50.67 62.23,-50.67" stroke="rgb(26.05576744327447%,0%,3.0229729073813254%)"/>
<polyline points="62.23,-50.67 62.239999999999995,-50.660000000000004" stroke="rgb(25.117761839162927%,0%,2.8150876239402782%)"/>
<polyline points="62.239999999999995,-50.660000000000004 62.260000000000005,-50.660000000000004" stroke="rgb(24.20918381616948%,0%,2.608785918880461%)"/>
<polyline points="62.260000000000005,-50.660000000000004 62.27,-50.660000000000004" stroke="rgb(23.332197012110157%,0%,2.4052368601911156%)"/>
<polyline points="62.27,-50.660000000000004 62.28,-50.660000000000004" stroke="rgb(22.52089547087688%,0%,2.196075255083286%)"/>
<polyline points="62.28,-50.660000000000004 62.29,-50.660000000000004" stroke="rgb(21.792191429785163%,0%,1.9801643216539908%)"/>
<polyline points="62.29,-50.660000000000004 62.3,-50.64999999999999" stroke="rgb(21.115488980365292%,0%,1.7766139293203531%)"/>
<polyline points="62.3,-50.64999999999999 62.31,-50.64999999999999" stroke="rgb(20.46967344851757%,0%,1.5957493972045873%)"/>
<polyline points="62.31,-50.64999999999999 62.32,-50.64999999999999" stroke="rgb(19.858401174716196%,0%,1.431455527077297%)"/>
<polyline points="62.32,-50.64999999999999 62.33,-50.64999999999999" stroke="rgb(19.278273328451107%,0%,1.284240014018366%)"/>
<polyline points="62.33,-50.64999999999999 62.33,-50.64999999999999" stroke="rgb(18.730776762514925%,0%,1.1504990794085153%)"/>
<polyline points="62.33,-50.64999999999999 62.339999999999996,-50.64999999999999" stroke="rgb(18.212634004369026%,0%,1.0267992146842686%)"/>
<polyline points="62.339999999999996,-50.64999999999999 62.339999999999996,-50.64999999999999" stroke="rgb(17.71622545807969%,0%,0.9118108996477658%)"/>

<!-- purple line -->

<polyline points="25.69,-1.6500000000000001 62.339999999999996,-50.64999999999999" stroke="rgb(17.71622545807969%,0%,7.755473461150802%)"/>
</g>
  </svg>