<svg xmlns="http://www.w3.org/2000/svg" viewBox="-0.05 -0.65 0.75 0.65">
<desc>Show u*,v* UCS diagram
with fake colors on spectral locus
</desc>
<rect x="-0.1" y="-0.65" width="0.75" height="0.7" fill="rgb(38.86% 38.86% 38.86%)"/>
<!-- tongue -->
<g fill="none" stroke-width="0.005" stroke-linecap="round">
<polyline points="0.2569,-0.0165 0.2568,-0.0165" stroke="rgb(1.4956825520565817%,0%,7.755473461150802%)"/>
<polyline points="0.2568,-0.0165 0.2568,-0.0165" stroke="rgb(1.6414738542209668%,0%,8.28291408692497%)"/>
<polyline points="0.2568,-0.0165 0.2568,-0.0165" stroke="rgb(1.7941051865837856%,0%,8.805886289302101%)"/>
<polyline points="0.2568,-0.0165 0.2567,-0.0165" stroke="rgb(1.9682160564110147%,0%,9.371664928110961%)"/>
<polyline points="0.2567,-0.0165 0.2567,-0.0165" stroke="rgb(2.1784327647640334%,0%,10.017667663582989%)"/>
<polyline points="0.2567,-0.0165 0.2566,-0.0165" stroke="rgb(2.2463073053639757%,0%,10.19463432797143%)"/>
<polyline points="0.2566,-0.0165 0.2566,-0.0164" stroke="rgb(2.2454519381009246%,0%,10.013777837769327%)"/>
<polyline points="0.2566,-0.0164 0.2565,-0.0164" stroke="rgb(2.2639174614025066%,0%,9.73620611454969%)"/>
<polyline points="0.2565,-0.0164 0.2565,-0.0163" stroke="rgb(2.298208497467336%,0%,9.398583964487948%)"/>
<polyline points="0.2565,-0.0163 0.2564,-0.0163" stroke="rgb(2.3396071513687295%,0%,9.026266174087269%)"/>
<polyline points="0.2564,-0.0163 0.2563,-0.0163" stroke="rgb(2.3835714630120215%,0%,8.645510850474874%)"/>
<polyline points="0.2563,-0.0163 0.2562,-0.0164" stroke="rgb(2.4231311649099103%,0%,8.265548448808193%)"/>
<polyline points="0.2562,-0.0164 0.2561,-0.0164" stroke="rgb(2.4566741495397326%,0%,7.8780535388092625%)"/>
<polyline points="0.2561,-0.0164 0.2561,-0.0164" stroke="rgb(2.482263522975058%,0%,7.466463832079517%)"/>
<polyline points="0.2561,-0.0164 0.256,-0.0163" stroke="rgb(2.4922186597303515%,0%,7.011205593593662%)"/>
<polyline points="0.256,-0.0163 0.2559,-0.0163" stroke="rgb(2.4816433181940236%,0%,6.506981106553036%)"/>
<polyline points="0.2559,-0.0163 0.2559,-0.0161" stroke="rgb(2.4407007171849897%,0%,5.9395231554662455%)"/>
<polyline points="0.2559,-0.0161 0.2559,-0.0161" stroke="rgb(2.3644287575823277%,0%,5.331154655857328%)"/>
<polyline points="0.2559,-0.0161 0.2558,-0.016" stroke="rgb(2.2532823779014097%,0%,4.72715513756484%)"/>
<polyline points="0.2558,-0.016 0.2558,-0.0159" stroke="rgb(2.1090651847787667%,0%,4.176263078008485%)"/>
<polyline points="0.2558,-0.0159 0.2557,-0.0159" stroke="rgb(1.945354301399195%,0%,3.6754933536079686%)"/>
<polyline points="0.2557,-0.0159 0.2556,-0.0159" stroke="rgb(1.7806100354934735%,0%,3.2530623646405186%)"/>
<polyline points="0.2556,-0.0159 0.2555,-0.0159" stroke="rgb(1.6036437451617263%,0%,2.859551788209335%)"/>
<polyline points="0.2555,-0.0159 0.2554,-0.0158" stroke="rgb(1.3959582412022549%,0%,2.4498215301759387%)"/>
<polyline points="0.2554,-0.0158 0.2553,-0.0159" stroke="rgb(1.1380790425028235%,0%,1.9923615104438592%)"/>
<polyline points="0.2553,-0.0159 0.2551,-0.0159" stroke="rgb(0.8148176706183367%,0%,1.470934861322543%)"/>
<polyline points="0.2551,-0.0159 0.2549,-0.0159" stroke="rgb(0.41343194339101785%,0%,0.8772015702713922%)"/>
<polyline points="0.2549,-0.0159 0.2548,-0.0159" stroke="rgb(0%,0%,0.27135499839781707%)"/>
<polyline points="0.2548,-0.0159 0.2546,-0.0159" stroke="rgb(0%,0%,0%)"/>
<polyline points="0.2546,-0.0159 0.2545,-0.0159" stroke="rgb(0%,0%,0%)"/>
<polyline points="0.2545,-0.0159 0.2544,-0.0159" stroke="rgb(0%,0%,0%)"/>
<polyline points="0.2544,-0.0159 0.2542,-0.0159" stroke="rgb(0%,0%,0%)"/>
<polyline points="0.2542,-0.0159 0.254,-0.0159" stroke="rgb(0%,0%,0%)"/>
<polyline points="0.254,-0.0159 0.2538,-0.016" stroke="rgb(0%,0%,0%)"/>
<polyline points="0.2538,-0.016 0.2537,-0.016" stroke="rgb(0%,0%,0%)"/>
<polyline points="0.2537,-0.016 0.2534,-0.0161" stroke="rgb(0%,0%,0%)"/>
<polyline points="0.2534,-0.0161 0.2532,-0.0162" stroke="rgb(0%,0%,0%)"/>
<polyline points="0.2532,-0.0162 0.2529,-0.0164" stroke="rgb(0%,0%,0%)"/>
<polyline points="0.2529,-0.0164 0.2526,-0.0166" stroke="rgb(0%,0%,0%)"/>
<polyline points="0.2526,-0.0166 0.2522,-0.0169" stroke="rgb(0%,0%,0%)"/>
<polyline points="0.2522,-0.0169 0.2518,-0.0172" stroke="rgb(0%,0%,0%)"/>
<polyline points="0.2518,-0.0172 0.2513,-0.0176" stroke="rgb(0%,0%,0%)"/>
<polyline points="0.2513,-0.0176 0.2508,-0.0181" stroke="rgb(0%,0%,0%)"/>
<polyline points="0.2508,-0.0181 0.2502,-0.0186" stroke="rgb(0%,0%,0%)"/>
<polyline points="0.2502,-0.0186 0.2496,-0.0191" stroke="rgb(0%,0%,0%)"/>
<polyline points="0.2496,-0.0191 0.249,-0.0197" stroke="rgb(0%,0%,0%)"/>
<polyline points="0.249,-0.0197 0.2483,-0.0203" stroke="rgb(0%,0%,0%)"/>
<polyline points="0.2483,-0.0203 0.2476,-0.021" stroke="rgb(0%,0%,0%)"/>
<polyline points="0.2476,-0.021 0.2469,-0.0218" stroke="rgb(0%,0%,0%)"/>
<polyline points="0.2469,-0.0218 0.2461,-0.0226" stroke="rgb(0%,0%,0%)"/>
<polyline points="0.2461,-0.0226 0.2452,-0.0235" stroke="rgb(0%,0%,0%)"/>
<polyline points="0.2452,-0.0235 0.2443,-0.0245" stroke="rgb(0%,0%,0%)"/>
<polyline points="0.2443,-0.0245 0.2433,-0.0255" stroke="rgb(0%,0%,0%)"/>
<polyline points="0.2433,-0.0255 0.2422,-0.0266" stroke="rgb(0%,0%,0%)"/>
<polyline points="0.2422,-0.0266 0.2411,-0.0278" stroke="rgb(0%,0%,0%)"/>
<polyline points="0.2411,-0.0278 0.24,-0.0291" stroke="rgb(0%,0%,0%)"/>
<polyline points="0.24,-0.0291 0.2387,-0.0304" stroke="rgb(1.017943638883407%,0%,1.0960752021354152%)"/>
<polyline points="0.2387,-0.0304 0.2375,-0.0319" stroke="rgb(5.717523144475935%,0%,5.95557761602525%)"/>
<polyline points="0.2375,-0.0319 0.2361,-0.0333" stroke="rgb(9.193312695814459%,0%,9.538157571537514%)"/>
<polyline points="0.2361,-0.0333 0.2347,-0.0349" stroke="rgb(11.87915790186341%,0%,12.734566963406587%)"/>
<polyline points="0.2347,-0.0349 0.2333,-0.0365" stroke="rgb(13.656210866600048%,0%,15.788363937508066%)"/>
<polyline points="0.2333,-0.0365 0.2318,-0.0381" stroke="rgb(15.07391442896117%,0%,18.34929524287854%)"/>
<polyline points="0.2318,-0.0381 0.2301,-0.0399" stroke="rgb(16.416802282754656%,0%,20.658942110869866%)"/>
<polyline points="0.2301,-0.0399 0.2284,-0.0417" stroke="rgb(17.721085906238002%,0%,22.78631356894901%)"/>
<polyline points="0.2284,-0.0417 0.2267,-0.0437" stroke="rgb(19.042262903124243%,0%,24.83645034289562%)"/>
<polyline points="0.2267,-0.0437 0.2247,-0.0457" stroke="rgb(20.492190800156905%,0%,27.05089938049682%)"/>
<polyline points="0.2247,-0.0457 0.2227,-0.0479" stroke="rgb(21.912370641534817%,0%,29.289495928229275%)"/>
<polyline points="0.2227,-0.0479 0.2206,-0.0501" stroke="rgb(23.264881179979525%,0%,31.521532803289134%)"/>
<polyline points="0.2206,-0.0501 0.2184,-0.0525" stroke="rgb(24.555310063364168%,0%,33.763005629550136%)"/>
<polyline points="0.2184,-0.0525 0.2161,-0.055" stroke="rgb(25.78213122566951%,0%,36.01651973088741%)"/>
<polyline points="0.2161,-0.055 0.2137,-0.0575" stroke="rgb(26.946050769857017%,0%,38.291345397641656%)"/>
<polyline points="0.2137,-0.0575 0.2113,-0.0602" stroke="rgb(28.047184746204984%,0%,40.59694205091787%)"/>
<polyline points="0.2113,-0.0602 0.2087,-0.0629" stroke="rgb(29.08715728224015%,0%,42.950896468700165%)"/>
<polyline points="0.2087,-0.0629 0.2061,-0.0658" stroke="rgb(30.064272131637388%,0%,45.37143569445723%)"/>
<polyline points="0.2061,-0.0658 0.2033,-0.0689" stroke="rgb(30.975957016868517%,0%,47.88756647711783%)"/>
<polyline points="0.2033,-0.0689 0.2004,-0.0721" stroke="rgb(31.811893566741478%,0%,50.52240206690146%)"/>
<polyline points="0.2004,-0.0721 0.1974,-0.0756" stroke="rgb(32.55836378078077%,0%,53.30835678138488%)"/>
<polyline points="0.1974,-0.0756 0.1942,-0.0792" stroke="rgb(33.19230952617282%,0%,56.26911164941949%)"/>
<polyline points="0.1942,-0.0792 0.191,-0.0831" stroke="rgb(33.68135654291961%,0%,59.427862281862666%)"/>
<polyline points="0.191,-0.0831 0.1877,-0.0871" stroke="rgb(33.983169775689156%,0%,62.81890535336726%)"/>
<polyline points="0.1877,-0.0871 0.1842,-0.0914" stroke="rgb(34.03848956829603%,0%,66.49001562630745%)"/>
<polyline points="0.1842,-0.0914 0.1807,-0.0959" stroke="rgb(33.76027646618024%,0%,70.4959784539615%)"/>
<polyline points="0.1807,-0.0959 0.177,-0.1008" stroke="rgb(33.00459394902398%,0%,74.959503324753%)"/>
<polyline points="0.177,-0.1008 0.1731,-0.106" stroke="rgb(31.493584991628143%,0%,80.07227655411336%)"/>
<polyline points="0.1731,-0.106 0.169,-0.1119" stroke="rgb(28.62515818408599%,0%,86.12922129596893%)"/>
<polyline points="0.169,-0.1119 0.1646,-0.1184" stroke="rgb(22.712755248798445%,0%,93.62439984454373%)"/>
<polyline points="0.1646,-0.1184 0.1598,-0.1256" stroke="rgb(0%,0%,100%)"/>
<polyline points="0.1598,-0.1256 0.1548,-0.1334" stroke="rgb(0%,0%,100%)"/>
<polyline points="0.1548,-0.1334 0.1495,-0.1419" stroke="rgb(0%,11.762413612609107%,100%)"/>
<polyline points="0.1495,-0.1419 0.1441,-0.151" stroke="rgb(0%,18.630844096987126%,95.80760921484097%)"/>
<polyline points="0.1441,-0.151 0.1385,-0.1606" stroke="rgb(0%,23.03014998579608%,90.27108561423994%)"/>
<polyline points="0.1385,-0.1606 0.1328,-0.1707" stroke="rgb(0%,26.409347545964206%,85.22341851175568%)"/>
<polyline points="0.1328,-0.1707 0.1269,-0.1814" stroke="rgb(0%,29.18475249584102%,80.66940746241256%)"/>
<polyline points="0.1269,-0.1814 0.1208,-0.1926" stroke="rgb(0%,31.560713432220506%,76.59012466364454%)"/>
<polyline points="0.1208,-0.1926 0.1147,-0.2044" stroke="rgb(0%,33.65558382034548%,72.94801104178464%)"/>
<polyline points="0.1147,-0.2044 0.1084,-0.2169" stroke="rgb(0%,35.544497810427835%,69.71223172219021%)"/>
<polyline points="0.1084,-0.2169 0.102,-0.2298" stroke="rgb(0%,37.27897203191671%,66.86423301527287%)"/>
<polyline points="0.102,-0.2298 0.0956,-0.2432" stroke="rgb(0%,38.892617934575014%,64.40448871609036%)"/>
<polyline points="0.0956,-0.2432 0.0892,-0.2569" stroke="rgb(0%,40.409056918546455%,62.31149301280096%)"/>
<polyline points="0.0892,-0.2569 0.0828,-0.2708" stroke="rgb(0%,41.845063109623595%,60.5416378984859%)"/>
<polyline points="0.0828,-0.2708 0.0764,-0.285" stroke="rgb(0%,43.20341968225861%,58.99983853663374%)"/>
<polyline points="0.0764,-0.285 0.0701,-0.2993" stroke="rgb(0%,44.48686205804473%,57.629325199894495%)"/>
<polyline points="0.0701,-0.2993 0.0639,-0.3137" stroke="rgb(0%,45.71227239105895%,56.43028579623166%)"/>
<polyline points="0.0639,-0.3137 0.0579,-0.3282" stroke="rgb(0%,46.903108952855725%,55.42843341090492%)"/>
<polyline points="0.0579,-0.3282 0.0521,-0.3427" stroke="rgb(0%,48.07816139097602%,54.62716966191613%)"/>
<polyline points="0.0521,-0.3427 0.0467,-0.3571" stroke="rgb(0%,49.25041951974094%,54.01552220562452%)"/>
<polyline points="0.0467,-0.3571 0.0416,-0.3712" stroke="rgb(0%,50.42614312176769%,53.577716274740105%)"/>
<polyline points="0.0416,-0.3712 0.0368,-0.385" stroke="rgb(0%,51.606494484615226%,53.28643249115341%)"/>
<polyline points="0.0368,-0.385 0.0323,-0.3985" stroke="rgb(0%,52.79567694770423%,53.121213941418446%)"/>
<polyline points="0.0323,-0.3985 0.0282,-0.4117" stroke="rgb(0%,53.99898656970424%,53.068275704461996%)"/>
<polyline points="0.0282,-0.4117 0.0243,-0.4244" stroke="rgb(0%,55.21864756175032%,53.11364277977809%)"/>
<polyline points="0.0243,-0.4244 0.0207,-0.4366" stroke="rgb(0%,56.45990627174905%,53.25267538012406%)"/>
<polyline points="0.0207,-0.4366 0.0174,-0.4483" stroke="rgb(0%,57.72205269842128%,53.4808055696824%)"/>
<polyline points="0.0174,-0.4483 0.0145,-0.4594" stroke="rgb(0%,59.00427122994114%,53.79537983307797%)"/>
<polyline points="0.0145,-0.4594 0.0119,-0.4698" stroke="rgb(0%,60.30296586206356%,54.1995810020204%)"/>
<polyline points="0.0119,-0.4698 0.0096,-0.4797" stroke="rgb(0%,61.61737141677015%,54.67656352407493%)"/>
<polyline points="0.0096,-0.4797 0.0076,-0.4889" stroke="rgb(0%,62.94344990619677%,55.20871280457914%)"/>
<polyline points="0.0076,-0.4889 0.006,-0.4975" stroke="rgb(0%,64.28768798955689%,55.78819574492633%)"/>
<polyline points="0.006,-0.4975 0.0046,-0.5055" stroke="rgb(0%,65.66119790212953%,56.41372820891368%)"/>
<polyline points="0.0046,-0.5055 0.0035,-0.5131" stroke="rgb(0%,67.07461053259387%,57.08472988651609%)"/>
<polyline points="0.0035,-0.5131 0.0026,-0.5201" stroke="rgb(0%,68.53756482620005%,57.80069481869445%)"/>
<polyline points="0.0026,-0.5201 0.0019,-0.5265" stroke="rgb(0%,70.05375829614185%,58.55927357704178%)"/>
<polyline points="0.0019,-0.5265 0.0015,-0.5325" stroke="rgb(0%,71.60892734367556%,59.34383601370794%)"/>
<polyline points="0.0015,-0.5325 0.0014,-0.5354" stroke="rgb(0%,73.1902063713192%,60.13032573159467%)"/>
<polyline points="0.0014,-0.5354 0.0014,-0.5432" stroke="rgb(0%,74.77970748348925%,60.89685277729624%)"/>
<polyline points="0.0014,-0.5432 0.0017,-0.548" stroke="rgb(0%,76.36624312877908%,61.6179764959857%)"/>
<polyline points="0.0017,-0.548 0.0021,-0.5524" stroke="rgb(0%,77.94277962654641%,62.27165230778825%)"/>
<polyline points="0.0021,-0.5524 0.0028,-0.5565" stroke="rgb(0%,79.51178373140228%,62.84664052018376%)"/>
<polyline points="0.0028,-0.5565 0.0036,-0.5603" stroke="rgb(0%,81.08150527191623%,63.32421827945775%)"/>
<polyline points="0.0036,-0.5603 0.0046,-0.5638" stroke="rgb(0%,82.6550637685416%,63.68981029355839%)"/>
<polyline points="0.0046,-0.5638 0.0058,-0.567" stroke="rgb(0%,84.23563894884903%,63.97718015037197%)"/>
<polyline points="0.0058,-0.567 0.0072,-0.5699" stroke="rgb(0%,85.82152307229335%,64.19032110723425%)"/>
<polyline points="0.0072,-0.5699 0.0088,-0.5726" stroke="rgb(0%,87.40342012207704%,64.31856518439587%)"/>
<polyline points="0.0088,-0.5726 0.0104,-0.5749" stroke="rgb(0%,88.9706052983031%,64.35690818732456%)"/>
<polyline points="0.0104,-0.5749 0.0123,-0.577" stroke="rgb(0%,90.51535699064429%,64.29906231983004%)"/>
<polyline points="0.0123,-0.577 0.0142,-0.5788" stroke="rgb(0%,92.02843084949941%,64.14383756560053%)"/>
<polyline points="0.0142,-0.5788 0.0163,-0.5803" stroke="rgb(0%,93.51037775188131%,63.88748822281225%)"/>
<polyline points="0.0163,-0.5803 0.0185,-0.5816" stroke="rgb(0%,94.95497654877228%,63.53101184502765%)"/>
<polyline points="0.0185,-0.5816 0.0208,-0.5827" stroke="rgb(0%,96.35122361892695%,63.0699540274832%)"/>
<polyline points="0.0208,-0.5827 0.0231,-0.5837" stroke="rgb(0%,97.68736438857032%,62.50372949411363%)"/>
<polyline points="0.0231,-0.5837 0.0256,-0.5844" stroke="rgb(0%,98.95566301704905%,61.8245124586368%)"/>
<polyline points="0.0256,-0.5844 0.0281,-0.585" stroke="rgb(0%,100%,61.003767746359635%)"/>
<polyline points="0.0281,-0.585 0.0306,-0.5855" stroke="rgb(0%,100%,60.050887841315216%)"/>
<polyline points="0.0306,-0.5855 0.0333,-0.5858" stroke="rgb(0%,100%,59.360213402366%)"/>
<polyline points="0.0333,-0.5858 0.036,-0.5861" stroke="rgb(0%,100%,58.985621453135614%)"/>
<polyline points="0.036,-0.5861 0.0388,-0.5864" stroke="rgb(0%,100%,59.266376430834036%)"/>
<polyline points="0.0388,-0.5864 0.0416,-0.5865" stroke="rgb(21.06673940388558%,100%,61.46558944242684%)"/>
<polyline points="0.0416,-0.5865 0.0444,-0.5866" stroke="rgb(34.38892067588054%,100%,63.251728592400305%)"/>
<polyline points="0.0444,-0.5866 0.0472,-0.5867" stroke="rgb(43.093887577949445%,100%,64.99521567855106%)"/>
<polyline points="0.0472,-0.5867 0.0501,-0.5867" stroke="rgb(49.8094262989682%,100%,66.68572396876631%)"/>
<polyline points="0.0501,-0.5867 0.0529,-0.5868" stroke="rgb(55.33695273270964%,100%,68.32219278815614%)"/>
<polyline points="0.0529,-0.5868 0.0557,-0.5867" stroke="rgb(60.029285415778354%,100%,69.89315962182597%)"/>
<polyline points="0.0557,-0.5867 0.0586,-0.5867" stroke="rgb(64.11800715164122%,100%,71.40968287425808%)"/>
<polyline points="0.0586,-0.5867 0.0614,-0.5866" stroke="rgb(67.73210083627598%,100%,72.87335497557609%)"/>
<polyline points="0.0614,-0.5866 0.0643,-0.5865" stroke="rgb(70.97107159064015%,100%,74.2951651160979%)"/>
<polyline points="0.0643,-0.5865 0.0672,-0.5864" stroke="rgb(73.89923658858099%,100%,75.68056755040152%)"/>
<polyline points="0.0672,-0.5864 0.0702,-0.5862" stroke="rgb(76.56336901583848%,100%,77.03359207167625%)"/>
<polyline points="0.0702,-0.5862 0.0732,-0.5861" stroke="rgb(78.99893246194677%,100%,78.35703911576321%)"/>
<polyline points="0.0732,-0.5861 0.0762,-0.5859" stroke="rgb(81.23190480147007%,100%,79.65178196919021%)"/>
<polyline points="0.0762,-0.5859 0.0792,-0.5856" stroke="rgb(83.28619976475568%,100%,80.92207762274782%)"/>
<polyline points="0.0792,-0.5856 0.0823,-0.5854" stroke="rgb(85.189656105873%,100%,82.18215608830273%)"/>
<polyline points="0.0823,-0.5854 0.0855,-0.5851" stroke="rgb(86.95970759108616%,100%,83.44058387246808%)"/>
<polyline points="0.0855,-0.5851 0.0887,-0.5848" stroke="rgb(88.60546738984621%,100%,84.69973300888537%)"/>
<polyline points="0.0887,-0.5848 0.0919,-0.5845" stroke="rgb(90.11320603510107%,100%,85.93200496573384%)"/>
<polyline points="0.0919,-0.5845 0.0953,-0.5841" stroke="rgb(91.46851574423171%,100%,87.10240674264743%)"/>
<polyline points="0.0953,-0.5841 0.0986,-0.5837" stroke="rgb(92.66357579899508%,100%,88.17848358297022%)"/>
<polyline points="0.0986,-0.5837 0.102,-0.5834" stroke="rgb(93.70177272019596%,100%,89.14038647703029%)"/>
<polyline points="0.102,-0.5834 0.1055,-0.5829" stroke="rgb(94.60169398481312%,100%,89.99248114093602%)"/>
<polyline points="0.1055,-0.5829 0.1091,-0.5825" stroke="rgb(95.38083324670089%,100%,90.74013208078206%)"/>
<polyline points="0.1091,-0.5825 0.1127,-0.5821" stroke="rgb(96.05351281283528%,100%,91.38567172752998%)"/>
<polyline points="0.1127,-0.5821 0.1164,-0.5816" stroke="rgb(96.6375159296826%,100%,91.94208755158711%)"/>
<polyline points="0.1164,-0.5816 0.1202,-0.5811" stroke="rgb(97.1355508459862%,100%,92.39301515208524%)"/>
<polyline points="0.1202,-0.5811 0.124,-0.5806" stroke="rgb(97.55236876107001%,100%,92.7229170477915%)"/>
<polyline points="0.124,-0.5806 0.1279,-0.5801" stroke="rgb(97.89413596272053%,100%,92.91596281122725%)"/>
<polyline points="0.1279,-0.5801 0.1319,-0.5795" stroke="rgb(98.16631514049442%,100%,92.94913535698527%)"/>
<polyline points="0.1319,-0.5795 0.136,-0.579" stroke="rgb(98.37186757090805%,100%,92.78154259553435%)"/>
<polyline points="0.136,-0.579 0.1401,-0.5784" stroke="rgb(98.51698742226117%,100%,92.36827412925317%)"/>
<polyline points="0.1401,-0.5784 0.1444,-0.5778" stroke="rgb(98.60453785271562%,100%,91.62839749709555%)"/>
<polyline points="0.1444,-0.5778 0.1487,-0.5772" stroke="rgb(98.63818215128407%,100%,90.44421708668597%)"/>
<polyline points="0.1487,-0.5772 0.1531,-0.5766" stroke="rgb(98.60902690291212%,100%,88.5530804161817%)"/>
<polyline points="0.1531,-0.5766 0.1576,-0.5759" stroke="rgb(98.45841927044596%,100%,85.18078402202094%)"/>
<polyline points="0.1576,-0.5759 0.1622,-0.5753" stroke="rgb(98.08389509622046%,100%,78.88384300853455%)"/>
<polyline points="0.1622,-0.5753 0.1669,-0.5746" stroke="rgb(97.96573995666633%,100%,72.94704741184887%)"/>
<polyline points="0.1669,-0.5746 0.1717,-0.5739" stroke="rgb(97.98445252547914%,100%,66.37757932726964%)"/>
<polyline points="0.1717,-0.5739 0.1766,-0.5732" stroke="rgb(98.05131904189784%,100%,58.0715085011917%)"/>
<polyline points="0.1766,-0.5732 0.1816,-0.5725" stroke="rgb(98.12139841216073%,100%,46.929453759831304%)"/>
<polyline points="0.1816,-0.5725 0.1867,-0.5717" stroke="rgb(98.13266531475449%,100%,30.24047031622443%)"/>
<polyline points="0.1867,-0.5717 0.1919,-0.5709" stroke="rgb(98.30080613621074%,100%,0%)"/>
<polyline points="0.1919,-0.5709 0.1972,-0.5702" stroke="rgb(99.8059963373169%,100%,0%)"/>
<polyline points="0.1972,-0.5702 0.2026,-0.5694" stroke="rgb(100%,100%,0%)"/>
<polyline points="0.2026,-0.5694 0.2081,-0.5685" stroke="rgb(100%,99.18086694946807%,67.292833085042%)"/>
<polyline points="0.2081,-0.5685 0.2137,-0.5677" stroke="rgb(100%,98.52267696509597%,73.9723738434519%)"/>
<polyline points="0.2137,-0.5677 0.2194,-0.5669" stroke="rgb(100%,97.99305246707836%,77.28404913617912%)"/>
<polyline points="0.2194,-0.5669 0.2252,-0.566" stroke="rgb(100%,97.5058218051324%,79.08474643270202%)"/>
<polyline points="0.2252,-0.566 0.2312,-0.5651" stroke="rgb(100%,97.02760557862572%,79.96144670964391%)"/>
<polyline points="0.2312,-0.5651 0.2372,-0.5642" stroke="rgb(100%,96.54264463776502%,80.31975288902963%)"/>
<polyline points="0.2372,-0.5642 0.2433,-0.5633" stroke="rgb(100%,96.04376439382186%,80.35851265001193%)"/>
<polyline points="0.2433,-0.5633 0.2496,-0.5623" stroke="rgb(100%,95.5270884933301%,80.19503649462447%)"/>
<polyline points="0.2496,-0.5623 0.2559,-0.5614" stroke="rgb(100%,94.98941046175472%,79.87962043647907%)"/>
<polyline points="0.2559,-0.5614 0.2623,-0.5604" stroke="rgb(100%,94.4280811905492%,79.44072867964054%)"/>
<polyline points="0.2623,-0.5604 0.2689,-0.5595" stroke="rgb(100%,93.8409830175399%,78.89949344338115%)"/>
<polyline points="0.2689,-0.5595 0.2755,-0.5585" stroke="rgb(100%,93.22662016779225%,78.27035075608366%)"/>
<polyline points="0.2755,-0.5585 0.2822,-0.5575" stroke="rgb(100%,92.58463364697774%,77.56197216317709%)"/>
<polyline points="0.2822,-0.5575 0.289,-0.5564" stroke="rgb(100%,91.9171434175253%,76.80439588283541%)"/>
<polyline points="0.289,-0.5564 0.2959,-0.5554" stroke="rgb(100%,91.22366929122549%,75.99208982755769%)"/>
<polyline points="0.2959,-0.5554 0.3029,-0.5544" stroke="rgb(100%,90.50511662992051%,75.13375025828371%)"/>
<polyline points="0.3029,-0.5544 0.3099,-0.5533" stroke="rgb(100%,89.7620365811466%,74.23714439272415%)"/>
<polyline points="0.3099,-0.5533 0.3171,-0.5523" stroke="rgb(100%,88.9952050105699%,73.31043927518988%)"/>
<polyline points="0.3171,-0.5523 0.3242,-0.5512" stroke="rgb(100%,88.20433256230483%,72.34897540032114%)"/>
<polyline points="0.3242,-0.5512 0.3315,-0.5501" stroke="rgb(100%,87.39208834126617%,71.36914962539845%)"/>
<polyline points="0.3315,-0.5501 0.3388,-0.549" stroke="rgb(100%,86.55946338516783%,70.37342655563243%)"/>
<polyline points="0.3388,-0.549 0.3461,-0.5479" stroke="rgb(100%,85.70691072701825%,69.36228625733634%)"/>
<polyline points="0.3461,-0.5479 0.3535,-0.5468" stroke="rgb(100%,84.8350368987281%,68.3392231251447%)"/>
<polyline points="0.3535,-0.5468 0.3608,-0.5457" stroke="rgb(100%,83.94290638621715%,67.29835769519559%)"/>
<polyline points="0.3608,-0.5457 0.3681,-0.5446" stroke="rgb(100%,83.02912642844971%,66.2321430640922%)"/>
<polyline points="0.3681,-0.5446 0.3753,-0.5436" stroke="rgb(100%,82.09358782828953%,65.13984291887903%)"/>
<polyline points="0.3753,-0.5436 0.3824,-0.5425" stroke="rgb(100%,81.13423382947505%,64.0114180318636%)"/>
<polyline points="0.3824,-0.5425 0.3895,-0.5414" stroke="rgb(100%,80.15242692253773%,62.85546137041174%)"/>
<polyline points="0.3895,-0.5414 0.3965,-0.5404" stroke="rgb(100%,79.14781695773274%,61.67387998092217%)"/>
<polyline points="0.3965,-0.5404 0.4035,-0.5393" stroke="rgb(100%,78.12001320604571%,60.46866894125915%)"/>
<polyline points="0.4035,-0.5393 0.4105,-0.5383" stroke="rgb(100%,77.07031911343107%,59.24845808942736%)"/>
<polyline points="0.4105,-0.5383 0.4175,-0.5372" stroke="rgb(100%,75.99768923442682%,58.01169765278055%)"/>
<polyline points="0.4175,-0.5372 0.4245,-0.5362" stroke="rgb(100%,74.90216853113694%,56.75892397666094%)"/>
<polyline points="0.4245,-0.5362 0.4313,-0.5352" stroke="rgb(100%,73.78098810381013%,55.48078435503373%)"/>
<polyline points="0.4313,-0.5352 0.438,-0.5342" stroke="rgb(100%,72.63316090749684%,54.1745408647728%)"/>
<polyline points="0.438,-0.5342 0.4445,-0.5332" stroke="rgb(100%,71.45776638644826%,52.83752609791647%)"/>
<polyline points="0.4445,-0.5332 0.4509,-0.5323" stroke="rgb(100%,70.25140607763943%,51.461004790865026%)"/>
<polyline points="0.4509,-0.5323 0.4571,-0.5313" stroke="rgb(100%,69.01464418506434%,50.05074874739359%)"/>
<polyline points="0.4571,-0.5313 0.4632,-0.5304" stroke="rgb(100%,67.74746638478122%,48.61027029208112%)"/>
<polyline points="0.4632,-0.5304 0.4691,-0.5296" stroke="rgb(100%,66.45099379295394%,47.14629011406502%)"/>
<polyline points="0.4691,-0.5296 0.4749,-0.5287" stroke="rgb(100%,65.12403855129614%,45.659530223030806%)"/>
<polyline points="0.4749,-0.5287 0.4806,-0.5278" stroke="rgb(100%,63.76866304948805%,44.158953517643084%)"/>
<polyline points="0.4806,-0.5278 0.4861,-0.527" stroke="rgb(100%,62.37992621687292%,42.63628723133051%)"/>
<polyline points="0.4861,-0.527 0.4915,-0.5262" stroke="rgb(100%,60.95614935088264%,41.09232022712438%)"/>
<polyline points="0.4915,-0.5262 0.4967,-0.5254" stroke="rgb(100%,59.492892296693014%,39.521913484510215%)"/>
<polyline points="0.4967,-0.5254 0.5017,-0.5247" stroke="rgb(100%,57.98808184513322%,37.92583488632027%)"/>
<polyline points="0.5017,-0.5247 0.5066,-0.524" stroke="rgb(100%,56.43771175451457%,36.30034137976047%)"/>
<polyline points="0.5066,-0.524 0.5113,-0.5233" stroke="rgb(100%,54.840330292097775%,34.649977133968285%)"/>
<polyline points="0.5113,-0.5233 0.5158,-0.5226" stroke="rgb(100%,53.18494941555608%,32.96347597908666%)"/>
<polyline points="0.5158,-0.5226 0.5202,-0.5219" stroke="rgb(100%,51.46241950130843%,31.23551138397368%)"/>
<polyline points="0.5202,-0.5219 0.5244,-0.5213" stroke="rgb(100%,49.65915458934854%,29.455260090940794%)"/>
<polyline points="0.5244,-0.5213 0.5285,-0.5207" stroke="rgb(100%,47.76243842132913%,27.61532994954587%)"/>
<polyline points="0.5285,-0.5207 0.5325,-0.5201" stroke="rgb(100%,45.76970239077955%,25.724313789814378%)"/>
<polyline points="0.5325,-0.5201 0.5363,-0.5195" stroke="rgb(100%,43.675838421276104%,23.787750748285987%)"/>
<polyline points="0.5363,-0.5195 0.5399,-0.519" stroke="rgb(100%,41.47364796242739%,21.80987521507946%)"/>
<polyline points="0.5399,-0.519 0.5435,-0.5185" stroke="rgb(100%,39.15294504431267%,19.793084735292275%)"/>
<polyline points="0.5435,-0.5185 0.5469,-0.5179" stroke="rgb(100%,36.69741540184219%,17.73598358091811%)"/>
<polyline points="0.5469,-0.5179 0.5502,-0.5175" stroke="rgb(100%,34.072781890585944%,15.619550754099873%)"/>
<polyline points="0.5502,-0.5175 0.5534,-0.517" stroke="rgb(100%,31.25608576989545%,13.445229778069919%)"/>
<polyline points="0.5534,-0.517 0.5565,-0.5165" stroke="rgb(100%,28.199225297401327%,11.192807221628234%)"/>
<polyline points="0.5565,-0.5165 0.5595,-0.5161" stroke="rgb(100%,24.819848286886%,8.817343228979386%)"/>
<polyline points="0.5595,-0.5161 0.5625,-0.5156" stroke="rgb(100%,20.983706379534556%,6.235803606085182%)"/>
<polyline points="0.5625,-0.5156 0.5654,-0.5152" stroke="rgb(100%,16.36463145362871%,3.214802402797105%)"/>
<polyline points="0.5654,-0.5152 0.5682,-0.5148" stroke="rgb(100%,9.952615417318537%,0.3369042740599825%)"/>
<polyline points="0.5682,-0.5148 0.5709,-0.5144" stroke="rgb(100%,0%,0%)"/>
<polyline points="0.5709,-0.5144 0.5735,-0.514" stroke="rgb(100%,0%,0%)"/>
<polyline points="0.5735,-0.514 0.576,-0.5136" stroke="rgb(100%,0%,0%)"/>
<polyline points="0.576,-0.5136 0.5784,-0.5132" stroke="rgb(100%,0%,0%)"/>
<polyline points="0.5784,-0.5132 0.5808,-0.5129" stroke="rgb(99.39723462197173%,0%,0%)"/>
<polyline points="0.5808,-0.5129 0.583,-0.5125" stroke="rgb(97.39101289132091%,0%,0%)"/>
<polyline points="0.583,-0.5125 0.5852,-0.5122" stroke="rgb(95.32596255687912%,0%,0%)"/>
<polyline points="0.5852,-0.5122 0.5873,-0.5119" stroke="rgb(93.35211626486087%,0%,0.44295780235191806%)"/>
<polyline points="0.5873,-0.5119 0.5893,-0.5116" stroke="rgb(91.4853469771785%,0%,1.1726932559359284%)"/>
<polyline points="0.5893,-0.5116 0.5912,-0.5113" stroke="rgb(89.62725689843349%,0%,1.832161578757625%)"/>
<polyline points="0.5912,-0.5113 0.593,-0.511" stroke="rgb(87.7770729091051%,0%,2.427769576373588%)"/>
<polyline points="0.593,-0.511 0.5947,-0.5108" stroke="rgb(85.93448146770048%,0%,2.9658074128873144%)"/>
<polyline points="0.5947,-0.5108 0.5962,-0.5106" stroke="rgb(84.10015823421865%,0%,3.4484276023736578%)"/>
<polyline points="0.5962,-0.5106 0.5977,-0.5103" stroke="rgb(82.27520647387865%,0%,3.87852613010813%)"/>
<polyline points="0.5977,-0.5103 0.5991,-0.5101" stroke="rgb(80.45801974378072%,0%,4.259768407768231%)"/>
<polyline points="0.5991,-0.5101 0.6005,-0.5099" stroke="rgb(78.65331006374633%,0%,4.584692720688669%)"/>
<polyline points="0.6005,-0.5099 0.6018,-0.5097" stroke="rgb(76.86634391341987%,0%,4.863169045388234%)"/>
<polyline points="0.6018,-0.5097 0.603,-0.5095" stroke="rgb(75.10189938495546%,0%,5.102658425413343%)"/>
<polyline points="0.603,-0.5095 0.6042,-0.5094" stroke="rgb(73.35683176660352%,0%,5.30993745132656%)"/>
<polyline points="0.6042,-0.5094 0.6053,-0.5092" stroke="rgb(71.63126149530736%,0%,5.4863207013789115%)"/>
<polyline points="0.6053,-0.5092 0.6064,-0.509" stroke="rgb(69.91986400120922%,0%,5.637991672314857%)"/>
<polyline points="0.6064,-0.509 0.6074,-0.5089" stroke="rgb(68.22442763112429%,0%,5.762858740430424%)"/>
<polyline points="0.6074,-0.5089 0.6068,-0.5094" stroke="rgb(66.5394494082407%,0%,5.868355516605264%)"/>
<polyline points="0.6068,-0.5094 0.6092,-0.5086" stroke="rgb(64.86674515251777%,0%,5.956189744277785%)"/>
<polyline points="0.6092,-0.5086 0.61,-0.5085" stroke="rgb(63.21099864374368%,0%,6.023794097116477%)"/>
<polyline points="0.61,-0.5085 0.6108,-0.5084" stroke="rgb(61.56762814056129%,0%,6.076895230759046%)"/>
<polyline points="0.6108,-0.5084 0.61,-0.5089" stroke="rgb(59.93897605014046%,0%,6.114443175691826%)"/>
<polyline points="0.61,-0.5089 0.6121,-0.5082" stroke="rgb(58.323179513554955%,0%,6.135652330890254%)"/>
<polyline points="0.6121,-0.5082 0.6127,-0.5081" stroke="rgb(56.71941051800788%,0%,6.142161364948617%)"/>
<polyline points="0.6127,-0.5081 0.6132,-0.508" stroke="rgb(55.13169281301208%,0%,6.133025333737488%)"/>
<polyline points="0.6132,-0.508 0.6122,-0.5085" stroke="rgb(53.56015972534334%,0%,6.110733726613187%)"/>
<polyline points="0.6122,-0.5085 0.6143,-0.5079" stroke="rgb(52.011194566080746%,0%,6.072730782720645%)"/>
<polyline points="0.6143,-0.5079 0.6148,-0.5078" stroke="rgb(50.48153475139877%,0%,6.022978050959942%)"/>
<polyline points="0.6148,-0.5078 0.6152,-0.5077" stroke="rgb(48.975820285290624%,0%,5.960409555577547%)"/>
<polyline points="0.6152,-0.5077 0.6157,-0.5076" stroke="rgb(47.49782587111434%,0%,5.888088398634412%)"/>
<polyline points="0.6157,-0.5076 0.6161,-0.5076" stroke="rgb(46.06039064329984%,0%,5.80243301870922%)"/>
<polyline points="0.6161,-0.5076 0.6166,-0.5075" stroke="rgb(44.67091083580442%,0%,5.705571644452696%)"/>
<polyline points="0.6166,-0.5075 0.617,-0.5075" stroke="rgb(43.32920691994341%,0%,5.6046288405783375%)"/>
<polyline points="0.617,-0.5075 0.6173,-0.5074" stroke="rgb(42.04121916725489%,0%,5.494698438075927%)"/>
<polyline points="0.6173,-0.5074 0.6177,-0.5073" stroke="rgb(40.80447202583589%,0%,5.376581219972406%)"/>
<polyline points="0.6177,-0.5073 0.6181,-0.5073" stroke="rgb(39.61273558980435%,0%,5.253583412869901%)"/>
<polyline points="0.6181,-0.5073 0.6185,-0.5072" stroke="rgb(38.46231025356838%,0%,5.12598653027165%)"/>
<polyline points="0.6185,-0.5072 0.6188,-0.5072" stroke="rgb(37.355397340035736%,0%,4.994605124105706%)"/>
<polyline points="0.6188,-0.5072 0.6192,-0.5071" stroke="rgb(36.29250431905234%,0%,4.857225577184792%)"/>
<polyline points="0.6192,-0.5071 0.6196,-0.5071" stroke="rgb(35.25522875114341%,0%,4.717896692878825%)"/>
<polyline points="0.6196,-0.5071 0.62,-0.507" stroke="rgb(34.23452195215084%,0%,4.569882383868964%)"/>
<polyline points="0.62,-0.507 0.6203,-0.507" stroke="rgb(33.21318339533197%,0%,4.410789623873758%)"/>
<polyline points="0.6203,-0.507 0.6206,-0.5069" stroke="rgb(32.17630486222696%,0%,4.237946849531387%)"/>
<polyline points="0.6206,-0.5069 0.621,-0.5069" stroke="rgb(31.124996405320637%,0%,4.053330535958319%)"/>
<polyline points="0.621,-0.5069 0.6213,-0.5068" stroke="rgb(30.074175880101734%,0%,3.8525184975719884%)"/>
<polyline points="0.6213,-0.5068 0.6216,-0.5068" stroke="rgb(29.03048021495126%,0%,3.648130429171%)"/>
<polyline points="0.6216,-0.5068 0.6219,-0.5067" stroke="rgb(28.01015905351509%,0%,3.4410631196470525%)"/>
<polyline points="0.6219,-0.5067 0.6221,-0.5067" stroke="rgb(27.019015993235012%,0%,3.2332015630524236%)"/>
<polyline points="0.6221,-0.5067 0.6223,-0.5067" stroke="rgb(26.05576744327447%,0%,3.0229729073813254%)"/>
<polyline points="0.6223,-0.5067 0.6224,-0.5066" stroke="rgb(25.117761839162927%,0%,2.8150876239402782%)"/>
<polyline points="0.6224,-0.5066 0.6226,-0.5066" stroke="rgb(24.20918381616948%,0%,2.608785918880461%)"/>
<polyline points="0.6226,-0.5066 0.6227,-0.5066" stroke="rgb(23.332197012110157%,0%,2.4052368601911156%)"/>
<polyline points="0.6227,-0.5066 0.6228,-0.5066" stroke="rgb(22.52089547087688%,0%,2.196075255083286%)"/>
<polyline points="0.6228,-0.5066 0.6229,-0.5066" stroke="rgb(21.792191429785163%,0%,1.9801643216539908%)"/>
<polyline points="0.6229,-0.5066 0.623,-0.5065" stroke="rgb(21.115488980365292%,0%,1.7766139293203531%)"/>
<polyline points="0.623,-0.5065 0.6231,-0.5065" stroke="rgb(20.46967344851757%,0%,1.5957493972045873%)"/>
<polyline points="0.6231,-0.5065 0.6232,-0.5065" stroke="rgb(19.858401174716196%,0%,1.431455527077297%)"/>
<polyline points="0.6232,-0.5065 0.6233,-0.5065" stroke="rgb(19.278273328451107%,0%,1.284240014018366%)"/>
<polyline points="0.6233,-0.5065 0.6233,-0.5065" stroke="rgb(18.730776762514925%,0%,1.1504990794085153%)"/>
<polyline points="0.6233,-0.5065 0.6234,-0.5065" stroke="rgb(18.212634004369026%,0%,1.0267992146842686%)"/>
<polyline points="0.6234,-0.5065 0.6234,-0.5065" stroke="rgb(17.71622545807969%,0%,0.9118108996477658%)"/>

<!-- purple line -->
<polyline points="0.2569,-0.0165 0.6234,-0.5065" stroke="rgb(9%,0%,4.5%)"/>
</g>


<!-- <path fill="none" stroke="#DDD" stroke-width="0.003" d="M 0.256804  -0.016594
  L 0.256637  -0.016593
  L 0.256418  -0.016266
  L 0.256085  -0.016263
  L 0.255699  -0.015935
  L 0.255200  -0.015932
  L 0.254535  -0.015927
  L 0.253704  -0.015921
  L 0.252207  -0.016885
  L 0.249615  -0.019128
  L 0.246120  -0.022623
  L 0.241063  -0.027948
  L 0.234690  -0.035011
  L 0.226630  -0.043680
  L 0.216060  -0.054946
  L 0.203340  -0.068779
  L 0.187720  -0.087114
  L 0.168963  -0.111946
  L 0.144076  -0.150984
  L 0.114692  -0.204374
  L 0.082816  -0.270829
  L 0.052134  -0.342686
  L 0.028159  -0.411679
  L 0.011891  -0.469843
  L 0.003473  -0.513066
  L 0.001438  -0.543162
  L 0.004643  -0.563843
  L 0.005859  -0.567036
  L 0.007213  -0.569939
  L 0.008771  -0.572575
  L 0.010438  -0.574905
  L 0.012285  -0.576969
  L 0.014220  -0.578754
  L 0.016315  -0.580309
  L 0.018482  -0.581618
  L 0.020756  -0.582743
  L 0.023116  -0.583667
  L 0.025566  -0.584422
  L 0.028050  -0.585009
  L 0.030633  -0.585478
  L 0.033285  -0.585851
  L 0.036008  -0.586142
  L 0.050059  -0.586754
  L 0.064335  -0.586523
  L 0.079224  -0.585616
  L 0.095269  -0.584113
  L 0.112701  -0.582069
  L 0.131858  -0.579553
  L 0.153101  -0.576592
  L 0.176586  -0.573182
  L 0.202596  -0.569364
  L 0.231170  -0.565107
  L 0.262343  -0.560441
  L 0.295958  -0.555411
  L 0.331527  -0.550115
  L 0.368060  -0.544626
  L 0.403475  -0.539334
  L 0.437943  -0.534187
  L 0.469171  -0.529561
  L 0.496768  -0.525419
  L 0.520257  -0.521894
  L 0.539920  -0.518977
  L 0.556503  -0.516489
  L 0.570880  -0.514332
  L 0.583036  -0.512508
  L 0.592866  -0.511070
  L 0.600496  -0.509926
  L 0.606437  -0.509035
  L 0.610879  -0.508368
  L 0.613777  -0.507933
  L 0.616162  -0.507576
  L 0.618025  -0.507296
  L 0.619897  -0.507015
  L 0.621507  -0.506774
  L 0.622584  -0.506612
  L 0.623123  -0.506531
  L 0.623393  -0.506491
  L 0.623393  -0.506491
  L 0.623393  -0.506491
  L 0.623393  -0.506491
  L 0.623393  -0.506491
  L 0.623393  -0.506491
  L 0.623393  -0.506491
  L 0.623393  -0.506491
  L 0.623393  -0.506491
  L 0.623393  -0.506491
  L 0.623393  -0.506491
  L 0.623393  -0.506491
  L 0.623393  -0.506491
  L 0.623393  -0.506491
  L 0.623393  -0.506491
  L 0.623393  -0.506491
  L 0.623393  -0.506491
  Z"/> -->


  </svg>