<svg xmlns="http://www.w3.org/2000/svg" viewBox="-0.05 -0.65 0.75 0.65">
<desc>Show u*,v* UCS diagram
with the gamuts of sRGB and ITU Rec BT.2020.
</desc>

<!-- tongue -->
<path fill="none" stroke="#DDD" stroke-width="0.003" d="M 0.256804  -0.016594
  L 0.256637  -0.016593
  L 0.256418  -0.016266
  L 0.256085  -0.016263
  L 0.255699  -0.015935
  L 0.255200  -0.015932
  L 0.254535  -0.015927
  L 0.253704  -0.015921
  L 0.252207  -0.016885
  L 0.249615  -0.019128
  L 0.246120  -0.022623
  L 0.241063  -0.027948
  L 0.234690  -0.035011
  L 0.226630  -0.043680
  L 0.216060  -0.054946
  L 0.203340  -0.068779
  L 0.187720  -0.087114
  L 0.168963  -0.111946
  L 0.144076  -0.150984
  L 0.114692  -0.204374
  L 0.082816  -0.270829
  L 0.052134  -0.342686
  L 0.028159  -0.411679
  L 0.011891  -0.469843
  L 0.003473  -0.513066
  L 0.001438  -0.543162
  L 0.004643  -0.563843
  L 0.005859  -0.567036
  L 0.007213  -0.569939
  L 0.008771  -0.572575
  L 0.010438  -0.574905
  L 0.012285  -0.576969
  L 0.014220  -0.578754
  L 0.016315  -0.580309
  L 0.018482  -0.581618
  L 0.020756  -0.582743
  L 0.023116  -0.583667
  L 0.025566  -0.584422
  L 0.028050  -0.585009
  L 0.030633  -0.585478
  L 0.033285  -0.585851
  L 0.036008  -0.586142
  L 0.050059  -0.586754
  L 0.064335  -0.586523
  L 0.079224  -0.585616
  L 0.095269  -0.584113
  L 0.112701  -0.582069
  L 0.131858  -0.579553
  L 0.153101  -0.576592
  L 0.176586  -0.573182
  L 0.202596  -0.569364
  L 0.231170  -0.565107
  L 0.262343  -0.560441
  L 0.295958  -0.555411
  L 0.331527  -0.550115
  L 0.368060  -0.544626
  L 0.403475  -0.539334
  L 0.437943  -0.534187
  L 0.469171  -0.529561
  L 0.496768  -0.525419
  L 0.520257  -0.521894
  L 0.539920  -0.518977
  L 0.556503  -0.516489
  L 0.570880  -0.514332
  L 0.583036  -0.512508
  L 0.592866  -0.511070
  L 0.600496  -0.509926
  L 0.606437  -0.509035
  L 0.610879  -0.508368
  L 0.613777  -0.507933
  L 0.616162  -0.507576
  L 0.618025  -0.507296
  L 0.619897  -0.507015
  L 0.621507  -0.506774
  L 0.622584  -0.506612
  L 0.623123  -0.506531
  L 0.623393  -0.506491
  L 0.623393  -0.506491
  L 0.623393  -0.506491
  L 0.623393  -0.506491
  L 0.623393  -0.506491
  L 0.623393  -0.506491
  L 0.623393  -0.506491
  L 0.623393  -0.506491
  L 0.623393  -0.506491
  L 0.623393  -0.506491
  L 0.623393  -0.506491
  L 0.623393  -0.506491
  L 0.623393  -0.506491
  L 0.623393  -0.506491
  L 0.623393  -0.506491
  L 0.623393  -0.506491
  L 0.623393  -0.506491
  Z"/>

<g>
<circle r="0.003" cx="0.25382055827273736" cy="-0.4876576364955298"  fill="#9995" />
<circle r="0.003" cx="0.28390350073524473" cy="-0.4927471769694538"  fill="#9995" />
<circle r="0.003" cx="0.2789832336595069" cy="-0.5005689321609167"  fill="#9995" />
<circle r="0.003" cx="0.40577513293746753" cy="-0.5168938704054772"  fill="#9995" />
<circle r="0.003" cx="0.34244223433309945" cy="-0.5256019252631502"  fill="#9995" />
<circle r="0.003" cx="0.24791327545617106" cy="-0.5136047234568304"  fill="#9995" />
<circle r="0.003" cx="0.22016917642340883" cy="-0.5042273129258231"  fill="#9995" />
<circle r="0.003" cx="0.22055356723900751" cy="-0.5082297775701387"  fill="#9995" />
<circle r="0.003" cx="0.21903502306592856" cy="-0.5122761319805281"  fill="#9995" />
<circle r="0.003" cx="0.21158038990722725" cy="-0.5071688799136097"  fill="#9995" />
<circle r="0.003" cx="0.21047242767275137" cy="-0.5222519103157321"  fill="#9995" />
<circle r="0.003" cx="0.20305069050663604" cy="-0.5221190319517208"  fill="#9995" />
<circle r="0.003" cx="0.20174478575637422" cy="-0.5067174998014494"  fill="#9995" />
<circle r="0.003" cx="0.19682110614648224" cy="-0.5086061556513989"  fill="#9995" />
<circle r="0.003" cx="0.18828138767147448" cy="-0.5119706580589096"  fill="#9995" />
<circle r="0.003" cx="0.18405690519856607" cy="-0.5092289390443021"  fill="#9995" />
<circle r="0.003" cx="0.17701179557325536" cy="-0.5075818979670336"  fill="#9995" />
<circle r="0.003" cx="0.15540984579170944" cy="-0.508826905970959"  fill="#9995" />
<circle r="0.003" cx="0.16360460631060592" cy="-0.49962201790733857"  fill="#9995" />
<circle r="0.003" cx="0.17443723676398468" cy="-0.49365060258154453"  fill="#9995" />
<circle r="0.003" cx="0.1828024403286582" cy="-0.49067233690248574"  fill="#9995" />
<circle r="0.003" cx="0.20576645386361778" cy="-0.4940305408550041"  fill="#9995" />
<circle r="0.003" cx="0.19699279671524905" cy="-0.49041674977436134"  fill="#9995" />
<circle r="0.003" cx="0.1668231219795618" cy="-0.46865364968789003"  fill="#9995" />
<circle r="0.003" cx="0.17766181153595603" cy="-0.4703811095186763"  fill="#9995" />
<circle r="0.003" cx="0.1788730686796661" cy="-0.46372450280630595"  fill="#9995" />
<circle r="0.003" cx="0.17700074836553484" cy="-0.4491719162730302"  fill="#9995" />
<circle r="0.003" cx="0.18129805444512337" cy="-0.43873682496782546"  fill="#9995" />
<circle r="0.003" cx="0.19647157975256835" cy="-0.45549596805908193"  fill="#9995" />
<circle r="0.003" cx="0.19939764002975777" cy="-0.4142025568658529"  fill="#9995" />
<circle r="0.003" cx="0.21609999533945995" cy="-0.37784276203045114"  fill="#9995" />
<circle r="0.003" cx="0.2528514876027914" cy="-0.2743428980548455"  fill="#9995" />
<circle r="0.003" cx="0.3178668794735132" cy="-0.30798478095817733"  fill="#5B57" />
<circle r="0.003" cx="0.2696608466413752" cy="-0.44574262243220175"  fill="#9995" />
<circle r="0.003" cx="0.3108856279543484" cy="-0.44531975878721475"  fill="#9995" />
<circle r="0.003" cx="0.2735007994326201" cy="-0.47538489974097464"  fill="#9995" />
<circle r="0.003" cx="0.3421958092129661" cy="-0.47593736766705214"  fill="#9995" />
<circle r="0.003" cx="0.34989792425095406" cy="-0.4899685300207412"  fill="#9995" />
<circle r="0.003" cx="0.37390170156421015" cy="-0.5026819161135809"  fill="#9995" />
<circle r="0.003" cx="0.4476835232678442" cy="-0.5151271105268322"  fill="#9995" />
<circle r="0.003" cx="0.38416810357239245" cy="-0.5271487724472277"  fill="#9995" />
<circle r="0.003" cx="0.2837367128185361" cy="-0.5248310168028346"  fill="#9995" />
<circle r="0.003" cx="0.2526751064474333" cy="-0.5226717337481963"  fill="#9995" />
<circle r="0.003" cx="0.2433093378867618" cy="-0.5264046979118834"  fill="#9995" />
<circle r="0.003" cx="0.23302496907409972" cy="-0.5292921090816142"  fill="#9995" />
<circle r="0.003" cx="0.21949692489249248" cy="-0.5250586743705087"  fill="#9995" />
<circle r="0.003" cx="0.21151030420600683" cy="-0.5343701452716592"  fill="#9995" />
<circle r="0.003" cx="0.19900379321910117" cy="-0.5384601236120868"  fill="#9995" />
<circle r="0.003" cx="0.1919558344527565" cy="-0.5291897671226409"  fill="#9995" />
<circle r="0.003" cx="0.1763698641519319" cy="-0.5351363822761209"  fill="#9995" />
<circle r="0.003" cx="0.1624835359019016" cy="-0.5349902136632513"  fill="#9995" />
<circle r="0.003" cx="0.15116649194819753" cy="-0.5309857848014137"  fill="#9995" />
<circle r="0.003" cx="0.13568565925840229" cy="-0.5272903684893082"  fill="#9995" />
<circle r="0.003" cx="0.12663924997127377" cy="-0.5177990683645628"  fill="#9995" />
<circle r="0.003" cx="0.12206993466264288" cy="-0.5051303192953133"  fill="#9995" />
<circle r="0.003" cx="0.13744214012976377" cy="-0.4922208531249497"  fill="#9995" />
<circle r="0.003" cx="0.1366923088382731" cy="-0.481170346917641"  fill="#9995" />
<circle r="0.003" cx="0.16077847487416497" cy="-0.4798502415664001"  fill="#9995" />
<circle r="0.003" cx="0.16260501040116376" cy="-0.47349605682173135"  fill="#9995" />
<circle r="0.003" cx="0.14112174737000494" cy="-0.4472968724512597"  fill="#9995" />
<circle r="0.003" cx="0.15820695835388324" cy="-0.45095894845962653"  fill="#9995" />
<circle r="0.003" cx="0.15219432140461084" cy="-0.4282421828107106"  fill="#9995" />
<circle r="0.003" cx="0.15544077671613615" cy="-0.41180479845808804"  fill="#9995" />
<circle r="0.003" cx="0.15570842867932344" cy="-0.3809093605492135"  fill="#9995" />
<circle r="0.003" cx="0.1761920462764467" cy="-0.3889290032941431"  fill="#9995" />
<circle r="0.003" cx="0.18604261493401386" cy="-0.3501387892369554"  fill="#9995" />
<circle r="0.003" cx="0.2081263441799834" cy="-0.30719708102340054"  fill="#9995" />
<circle r="0.003" cx="0.2522985952328451" cy="-0.26319776408381973"  fill="#9995" />
<circle r="0.003" cx="0.31910272793018346" cy="-0.3045411260711074"  fill="#5B57" />
<circle r="0.003" cx="0.34175046105447726" cy="-0.38506134317490387"  fill="#9995" />
<circle r="0.003" cx="0.3828272179708507" cy="-0.4125621334613797"  fill="#9995" />
<circle r="0.003" cx="0.3613842716312466" cy="-0.4526410632920199"  fill="#9995" />
<circle r="0.003" cx="0.3840037733463374" cy="-0.47039282240577907"  fill="#9995" />
<circle r="0.003" cx="0.4051550171714082" cy="-0.486811027478625"  fill="#9995" />
<circle r="0.003" cx="0.4280386542037727" cy="-0.5017209614853119"  fill="#9995" />
<circle r="0.003" cx="0.47021777077774707" cy="-0.5139573061566952"  fill="#9995" />
<circle r="0.003" cx="0.41681325657688706" cy="-0.5268727892640069"  fill="#9995" />
<circle r="0.003" cx="0.31854434540901" cy="-0.531680105423812"  fill="#9995" />
<circle r="0.003" cx="0.27728576939600563" cy="-0.5325964923140332"  fill="#9995" />
<circle r="0.003" cx="0.25975265356066535" cy="-0.536561092436198"  fill="#9995" />
<circle r="0.003" cx="0.24256111707516936" cy="-0.539232162341629"  fill="#9995" />
<circle r="0.003" cx="0.22438806262830138" cy="-0.5361116727993497"  fill="#9995" />
<circle r="0.003" cx="0.2116463549834206" cy="-0.5421763181564316"  fill="#9995" />
<circle r="0.003" cx="0.19491120224221256" cy="-0.5485456321689203"  fill="#9995" />
<circle r="0.003" cx="0.18439173336124468" cy="-0.5416520725578916"  fill="#9995" />
<circle r="0.003" cx="0.1615130408689519" cy="-0.5498471105414654"  fill="#9995" />
<circle r="0.003" cx="0.14509345399476398" cy="-0.5483289743129487"  fill="#9995" />
<circle r="0.003" cx="0.129943954843964" cy="-0.544137082486583"  fill="#9995" />
<circle r="0.003" cx="0.11647990393945881" cy="-0.5365658011881447"  fill="#9995" />
<circle r="0.003" cx="0.10930412181753577" cy="-0.5234534436849321"  fill="#9995" />
<circle r="0.003" cx="0.0997943593808782" cy="-0.5080844917342447"  fill="#5B57" />
<circle r="0.003" cx="0.115503789072092" cy="-0.49068783295973434"  fill="#9995" />
<circle r="0.003" cx="0.11707866403200527" cy="-0.47562829270249574"  fill="#5B57" />
<circle r="0.003" cx="0.15079234770284056" cy="-0.47590299580303286"  fill="#9995" />
<circle r="0.003" cx="0.14447903925426764" cy="-0.46252406370921834"  fill="#9995" />
<circle r="0.003" cx="0.12559354240860704" cy="-0.4323005812878764"  fill="#9995" />
<circle r="0.003" cx="0.1393610895432169" cy="-0.42959884452165853"  fill="#9995" />
<circle r="0.003" cx="0.1349785179664983" cy="-0.4025495475102526"  fill="#9995" />
<circle r="0.003" cx="0.14301200026409827" cy="-0.38903253788656567"  fill="#9995" />
<circle r="0.003" cx="0.14525102913974247" cy="-0.357277717581049"  fill="#9995" />
<circle r="0.003" cx="0.16165749836909654" cy="-0.3471158403594935"  fill="#9995" />
<circle r="0.003" cx="0.17301579060301778" cy="-0.3030747060654338"  fill="#9995" />
<circle r="0.003" cx="0.20294648281315505" cy="-0.28023225764790594"  fill="#9995" />
<circle r="0.003" cx="0.25251350200682526" cy="-0.2669676292946148"  fill="#9995" />
<circle r="0.003" cx="0.3175708277001473" cy="-0.3087989615523707"  fill="#5B57" />
<circle r="0.003" cx="0.37491937379497964" cy="-0.35481541806110795"  fill="#5B57" />
<circle r="0.003" cx="0.40765917357970405" cy="-0.4013453482120209"  fill="#5B57" />
<circle r="0.003" cx="0.4039397042637727" cy="-0.4420631173603684"  fill="#9995" />
<circle r="0.003" cx="0.4185799643228612" cy="-0.4658073502402322"  fill="#9995" />
<circle r="0.003" cx="0.4317242438789745" cy="-0.48507747762037684"  fill="#9995" />
<circle r="0.003" cx="0.4578314470150862" cy="-0.5006805599487515"  fill="#9995" />
<circle r="0.003" cx="0.4788232277985612" cy="-0.5135783536037273"  fill="#9995" />
<circle r="0.003" cx="0.44296456838722076" cy="-0.525862463928493"  fill="#9995" />
<circle r="0.003" cx="0.3399845889363727" cy="-0.5341618936806599"  fill="#9995" />
<circle r="0.003" cx="0.2964006362033646" cy="-0.5380254464449212"  fill="#9995" />
<circle r="0.003" cx="0.2738135844674103" cy="-0.543130624493818"  fill="#9995" />
<circle r="0.003" cx="0.24829447859292766" cy="-0.5444059962240487"  fill="#9995" />
<circle r="0.003" cx="0.22755917875222914" cy="-0.5432777645000262"  fill="#9995" />
<circle r="0.003" cx="0.21138346626500626" cy="-0.5474829375609331"  fill="#9995" />
<circle r="0.003" cx="0.19185543808093672" cy="-0.554041167218543"  fill="#9995" />
<circle r="0.003" cx="0.17798037583443418" cy="-0.5500315090529168"  fill="#9995" />
<circle r="0.003" cx="0.15251156662069146" cy="-0.557250100031546"  fill="#9995" />
<circle r="0.003" cx="0.13504918736817295" cy="-0.5552605226013452"  fill="#9995" />
<circle r="0.003" cx="0.11775276140903328" cy="-0.5513432465238876"  fill="#9995" />
<circle r="0.003" cx="0.1025294285569003" cy="-0.5433608509902448"  fill="#5B57" />
<circle r="0.003" cx="0.0967672924475241" cy="-0.5276896395239926"  fill="#5B57" />
<circle r="0.003" cx="0.08963560987298785" cy="-0.5094317385474297"  fill="#5B57" />
<circle r="0.003" cx="0.10200508392281439" cy="-0.4894052121064712"  fill="#5B57" />
<circle r="0.003" cx="0.10726156802254437" cy="-0.4724075537166641"  fill="#5B57" />
<circle r="0.003" cx="0.13331008018249352" cy="-0.4681250701134695"  fill="#9995" />
<circle r="0.003" cx="0.1311447781984317" cy="-0.45337495824845603"  fill="#9995" />
<circle r="0.003" cx="0.118260960281823" cy="-0.42460338426790195"  fill="#5B57" />
<circle r="0.003" cx="0.12941041668627545" cy="-0.4172447067529066"  fill="#9995" />
<circle r="0.003" cx="0.1274748867802296" cy="-0.3906606710441525"  fill="#5B57" />
<circle r="0.003" cx="0.13833662163892718" cy="-0.3802488806999227"  fill="#9995" />
<circle r="0.003" cx="0.141262294748832" cy="-0.34826397122239994"  fill="#9995" />
<circle r="0.003" cx="0.15659460061757707" cy="-0.3332524162895454"  fill="#9995" />
<circle r="0.003" cx="0.17157841903490567" cy="-0.29836416781286557"  fill="#9995" />
<circle r="0.003" cx="0.20282956067775523" cy="-0.27968455358730854"  fill="#9995" />
<circle r="0.003" cx="0.2531153307396498" cy="-0.28328202232851757"  fill="#9995" />
<circle r="0.003" cx="0.31398533697064823" cy="-0.3183553843322622"  fill="#9995" />
<circle r="0.003" cx="0.3847202585751252" cy="-0.3455720464085783"  fill="#B557" />
<circle r="0.003" cx="0.41482906468796454" cy="-0.39811464579218536"  fill="#5B57" />
<circle r="0.003" cx="0.4305683640324022" cy="-0.43556276855687354"  fill="#5B57" />
<circle r="0.003" cx="0.44329146226352195" cy="-0.4625301273080472"  fill="#5B57" />
<circle r="0.003" cx="0.44023312866642117" cy="-0.4844961715550472"  fill="#9995" />
<circle r="0.003" cx="0.4640652164840765" cy="-0.5004222007594933"  fill="#9995" />
<circle r="0.003" cx="0.47713534643034905" cy="-0.5136557372595633"  fill="#9995" />
<circle r="0.003" cx="0.4643497019269266" cy="-0.5245857634618114"  fill="#9995" />
<circle r="0.003" cx="0.3688233712809921" cy="-0.5356858377642417"  fill="#9995" />
<circle r="0.003" cx="0.31162385043869645" cy="-0.5410013714707282"  fill="#9995" />
<circle r="0.003" cx="0.28314562929978876" cy="-0.5463757682867667"  fill="#9995" />
<circle r="0.003" cx="0.2526204459184895" cy="-0.5478434854124166"  fill="#9995" />
<circle r="0.003" cx="0.2297034091973136" cy="-0.5481232988155043"  fill="#9995" />
<circle r="0.003" cx="0.2109501868416635" cy="-0.5512526043325311"  fill="#9995" />
<circle r="0.003" cx="0.18853092317236336" cy="-0.55875602562298"  fill="#9995" />
<circle r="0.003" cx="0.17257004626055367" cy="-0.5559068109332775"  fill="#9995" />
<circle r="0.003" cx="0.1478194451569478" cy="-0.5607057962332711"  fill="#9995" />
<circle r="0.003" cx="0.12712631556951098" cy="-0.5603334212855555"  fill="#9995" />
<circle r="0.003" cx="0.10684755796652018" cy="-0.5575544423675785"  fill="#9995" />
<circle r="0.003" cx="0.09504947725369879" cy="-0.5470273258500797"  fill="#5B57" />
<circle r="0.003" cx="0.08889617744825812" cy="-0.5304243167039271"  fill="#5B57" />
<circle r="0.003" cx="0.08352181611421779" cy="-0.5102425459358365"  fill="#5B57" />
<circle r="0.003" cx="0.09540380137153752" cy="-0.4886633405749524"  fill="#5B57" />
<circle r="0.003" cx="0.1053845174658884" cy="-0.471752835638674"  fill="#5B57" />
<circle r="0.003" cx="0.12226686995383663" cy="-0.46256236534420225"  fill="#9995" />
<circle r="0.003" cx="0.12298405658213737" cy="-0.4472682872496773"  fill="#9995" />
<circle r="0.003" cx="0.11438076384039877" cy="-0.420358522437222"  fill="#5B57" />
<circle r="0.003" cx="0.12345392325840172" cy="-0.4094740350034949"  fill="#5B57" />
<circle r="0.003" cx="0.11999613877557856" cy="-0.3783870579294322"  fill="#5B57" />
<circle r="0.003" cx="0.13753824353096739" cy="-0.37873736666606206"  fill="#9995" />
<circle r="0.003" cx="0.1418046268582361" cy="-0.3494895339190436"  fill="#9995" />
<circle r="0.003" cx="0.15758857390147976" cy="-0.3359497827650903"  fill="#9995" />
<circle r="0.003" cx="0.17577966494652567" cy="-0.312360191694437"  fill="#9995" />
<circle r="0.003" cx="0.20768202871335562" cy="-0.30462935159874954"  fill="#9995" />
<circle r="0.003" cx="0.2529668334175863" cy="-0.3095583875401694"  fill="#9995" />
<circle r="0.003" cx="0.30777869969873406" cy="-0.33374915515093806"  fill="#9995" />
<circle r="0.003" cx="0.37395733352218335" cy="-0.35571494902013345"  fill="#5B57" />
<circle r="0.003" cx="0.4178066912601237" cy="-0.396773978569741"  fill="#5B57" />
<circle r="0.003" cx="0.4339927897772932" cy="-0.43473295595275996"  fill="#5B57" />
<circle r="0.003" cx="0.4523567536641467" cy="-0.4613278942043963"  fill="#5B57" />
<circle r="0.003" cx="0.4391159964229558" cy="-0.4845731834175248"  fill="#9995" />
<circle r="0.003" cx="0.45675436418710325" cy="-0.5007238258205369"  fill="#9995" />
<circle r="0.003" cx="0.4757506642428826" cy="-0.5137180529608886"  fill="#9995" />
<circle r="0.003" cx="0.47525297171890046" cy="-0.5236833413990457"  fill="#9995" />
<circle r="0.003" cx="0.3927807967158108" cy="-0.5356318595323025"  fill="#9995" />
<circle r="0.003" cx="0.32402048941903705" cy="-0.5425951908649492"  fill="#9995" />
<circle r="0.003" cx="0.2905864430112342" cy="-0.5483203342524264"  fill="#9995" />
<circle r="0.003" cx="0.2559907838732599" cy="-0.5502113294826749"  fill="#9995" />
<circle r="0.003" cx="0.2312064840930533" cy="-0.5515199491161922"  fill="#9995" />
<circle r="0.003" cx="0.2102843491832397" cy="-0.554798547436385"  fill="#9995" />
<circle r="0.003" cx="0.1862499112925624" cy="-0.5614203847623714"  fill="#9995" />
<circle r="0.003" cx="0.16891577135366603" cy="-0.5593583755613291"  fill="#9995" />
<circle r="0.003" cx="0.1439664176980811" cy="-0.5633495913465415"  fill="#9995" />
<circle r="0.003" cx="0.12333041666315561" cy="-0.5626409320602674"  fill="#9995" />
<circle r="0.003" cx="0.0995861963898155" cy="-0.5615585138105073"  fill="#5B57" />
<circle r="0.003" cx="0.08913868457385003" cy="-0.5499373839359992"  fill="#5B57" />
<circle r="0.003" cx="0.08548971211133997" cy="-0.5316280961625098"  fill="#5B57" />
<circle r="0.003" cx="0.08150391412684413" cy="-0.5105101587970157"  fill="#5B57" />
<circle r="0.003" cx="0.09175110821041575" cy="-0.488216234935904"  fill="#5B57" />
<circle r="0.003" cx="0.10733798301239372" cy="-0.4724339305764633"  fill="#5B57" />
<circle r="0.003" cx="0.11183245629905073" cy="-0.456772546487"  fill="#5B57" />
<circle r="0.003" cx="0.12011365536667871" cy="-0.4450213288084511"  fill="#5B57" />
<circle r="0.003" cx="0.11457815935303171" cy="-0.4205774303477711"  fill="#5B57" />
<circle r="0.003" cx="0.1202644061302656" cy="-0.40519353292507543"  fill="#5B57" />
<circle r="0.003" cx="0.11971344860666457" cy="-0.3779147237795054"  fill="#5B57" />
<circle r="0.003" cx="0.13688354987289514" cy="-0.37749537315069964"  fill="#9995" />
<circle r="0.003" cx="0.14225041617636916" cy="-0.35049692910991004"  fill="#9995" />
<circle r="0.003" cx="0.16208191366118035" cy="-0.3482925038882034"  fill="#9995" />
<circle r="0.003" cx="0.18176910794730425" cy="-0.3336781148663347"  fill="#9995" />
<circle r="0.003" cx="0.21253351049967728" cy="-0.33716604722865173"  fill="#9995" />
<circle r="0.003" cx="0.25140364614731675" cy="-0.3360778488045894"  fill="#9995" />
<circle r="0.003" cx="0.30218340658131776" cy="-0.3466032713537772"  fill="#9995" />
<circle r="0.003" cx="0.3601126363348299" cy="-0.3685100945132028"  fill="#5B57" />
<circle r="0.003" cx="0.41007516626673307" cy="-0.40025632550899426"  fill="#5B57" />
<circle r="0.003" cx="0.4301340350417977" cy="-0.4356681130136819"  fill="#5B57" />
<circle r="0.003" cx="0.43505495362494745" cy="-0.4636224477758834"  fill="#9995" />
<circle r="0.003" cx="0.42707447813844224" cy="-0.4853899316041528"  fill="#9995" />
<circle r="0.003" cx="0.43946960192276135" cy="-0.5013610035813086"  fill="#9995" />
<circle r="0.003" cx="0.456752704101046" cy="-0.5144634040168827"  fill="#9995" />
<circle r="0.003" cx="0.4626302877007979" cy="-0.5244603174762842"  fill="#9995" />
<circle r="0.003" cx="0.4130473650295677" cy="-0.5348733147419984"  fill="#9995" />
<circle r="0.003" cx="0.3343100612074601" cy="-0.5433893610232605"  fill="#9995" />
<circle r="0.003" cx="0.2978591150567327" cy="-0.5496768171735711"  fill="#9995" />
<circle r="0.003" cx="0.2579714466635407" cy="-0.551465779023434"  fill="#9995" />
<circle r="0.003" cx="0.23253723391299655" cy="-0.554527179021277"  fill="#9995" />
<circle r="0.003" cx="0.20994844474792226" cy="-0.5561367663386171"  fill="#9995" />
<circle r="0.003" cx="0.18486718065207827" cy="-0.5628510271520194"  fill="#9995" />
<circle r="0.003" cx="0.16580840115066478" cy="-0.562005114316881"  fill="#9995" />
<circle r="0.003" cx="0.1407501594167685" cy="-0.5654278679959972"  fill="#9995" />
<circle r="0.003" cx="0.11900667718839779" cy="-0.5651723381710074"  fill="#9995" />
<circle r="0.003" cx="0.09846541468911713" cy="-0.562166696369866"  fill="#5B57" />
<circle r="0.003" cx="0.08677381733601458" cy="-0.5511050545208493"  fill="#5B57" />
<circle r="0.003" cx="0.08652329247068932" cy="-0.5312614810977091"  fill="#5B57" />
<circle r="0.003" cx="0.08243741860170947" cy="-0.5103863580351327"  fill="#5B57" />
<circle r="0.003" cx="0.09307195442054637" cy="-0.4883810734138607"  fill="#5B57" />
<circle r="0.003" cx="0.11227808408818939" cy="-0.4740946708197864"  fill="#5B57" />
<circle r="0.003" cx="0.10831526012566361" cy="-0.4546917925759273"  fill="#5B57" />
<circle r="0.003" cx="0.117744805251434" cy="-0.4431263635587366"  fill="#5B57" />
<circle r="0.003" cx="0.11629169593199182" cy="-0.4224642964313408"  fill="#5B57" />
<circle r="0.003" cx="0.12351231206038765" cy="-0.4095516101580897"  fill="#5B57" />
<circle r="0.003" cx="0.12482063530842916" cy="-0.38635352293382835"  fill="#5B57" />
<circle r="0.003" cx="0.13756230407742218" cy="-0.37878296797203037"  fill="#9995" />
<circle r="0.003" cx="0.1478595406820992" cy="-0.36317243483020745"  fill="#9995" />
<circle r="0.003" cx="0.1674504737131228" cy="-0.36338788707866565"  fill="#9995" />
<circle r="0.003" cx="0.18758089344922624" cy="-0.3563851341805275"  fill="#9995" />
<circle r="0.003" cx="0.21546107295486452" cy="-0.36735145751198506"  fill="#9995" />
<circle r="0.003" cx="0.2478041423435069" cy="-0.36643809824536916"  fill="#9995" />
<circle r="0.003" cx="0.2931877368745904" cy="-0.3656454218928457"  fill="#9995" />
<circle r="0.003" cx="0.34369699734554954" cy="-0.3833288105348238"  fill="#9995" />
<circle r="0.003" cx="0.39201329479574565" cy="-0.40840763353250076"  fill="#9995" />
<circle r="0.003" cx="0.4178225721715177" cy="-0.4386634448309817"  fill="#9995" />
<circle r="0.003" cx="0.4080077726202339" cy="-0.46720942749085065"  fill="#9995" />
<circle r="0.003" cx="0.40700870883313234" cy="-0.4866942672656717"  fill="#9995" />
<circle r="0.003" cx="0.418345802417925" cy="-0.5019858877862846"  fill="#9995" />
<circle r="0.003" cx="0.43125712637614216" cy="-0.515120736218973"  fill="#9995" />
<circle r="0.003" cx="0.43788298246738755" cy="-0.5257223149816056"  fill="#9995" />
<circle r="0.003" cx="0.41888476242286465" cy="-0.5343912765642699"  fill="#9995" />
<circle r="0.003" cx="0.3446354576559756" cy="-0.5437391268440679"  fill="#9995" />
<circle r="0.003" cx="0.3017144233835008" cy="-0.5501833803482078"  fill="#9995" />
<circle r="0.003" cx="0.2608902573106624" cy="-0.5531172441118866"  fill="#9995" />
<circle r="0.003" cx="0.23309971798123022" cy="-0.555798281136623"  fill="#9995" />
<circle r="0.003" cx="0.20945683912124294" cy="-0.557777535130883"  fill="#9995" />
<circle r="0.003" cx="0.18367049763697646" cy="-0.563990229262236"  fill="#9995" />
<circle r="0.003" cx="0.16394467767879498" cy="-0.5634758611039548"  fill="#9995" />
<circle r="0.003" cx="0.14000397932291975" cy="-0.5658937475048157"  fill="#9995" />
<circle r="0.003" cx="0.11754509353527035" cy="-0.5660046830492613"  fill="#9995" />
<circle r="0.003" cx="0.09862960785282975" cy="-0.5620777664782857"  fill="#5B57" />
<circle r="0.003" cx="0.08703218372079147" cy="-0.5509773868086935"  fill="#5B57" />
<circle r="0.003" cx="0.08740605783466515" cy="-0.5309493119380696"  fill="#5B57" />
<circle r="0.003" cx="0.08694215288046848" cy="-0.5097889430780467"  fill="#5B57" />
<circle r="0.003" cx="0.09556476880839206" cy="-0.4886824224073263"  fill="#5B57" />
<circle r="0.003" cx="0.11815759107735335" cy="-0.4759626141802832"  fill="#9995" />
<circle r="0.003" cx="0.11134473805243826" cy="-0.45648808325481305"  fill="#5B57" />
<circle r="0.003" cx="0.11879653554736602" cy="-0.443972297386433"  fill="#5B57" />
<circle r="0.003" cx="0.11920906346835694" cy="-0.4256221958333737"  fill="#5B57" />
<circle r="0.003" cx="0.12769998995108162" cy="-0.41504269132561555"  fill="#5B57" />
<circle r="0.003" cx="0.13050406537171658" cy="-0.3955110961694045"  fill="#5B57" />
<circle r="0.003" cx="0.14155893290993626" cy="-0.3863151367718954"  fill="#9995" />
<circle r="0.003" cx="0.15554670384661923" cy="-0.3805438945945957"  fill="#9995" />
<circle r="0.003" cx="0.17339196663739365" cy="-0.38060274745078854"  fill="#9995" />
<circle r="0.003" cx="0.19341389533617862" cy="-0.3821552850008987"  fill="#9995" />
<circle r="0.003" cx="0.21661332217893225" cy="-0.3912575216184647"  fill="#9995" />
<circle r="0.003" cx="0.24306651662752893" cy="-0.3925018125755168"  fill="#9995" />
<circle r="0.003" cx="0.28149156863594327" cy="-0.3880286312253291"  fill="#9995" />
<circle r="0.003" cx="0.32509648349163955" cy="-0.3996763628154771"  fill="#9995" />
<circle r="0.003" cx="0.36830388871309727" cy="-0.4191429523332227"  fill="#9995" />
<circle r="0.003" cx="0.4047443930608497" cy="-0.4418654085106889"  fill="#9995" />
<circle r="0.003" cx="0.37709044987705426" cy="-0.4713096629091573"  fill="#9995" />
<circle r="0.003" cx="0.3842170632740206" cy="-0.4880833933607786"  fill="#9995" />
<circle r="0.003" cx="0.3945661082049525" cy="-0.5024692805731406"  fill="#9995" />
<circle r="0.003" cx="0.4040634901669255" cy="-0.515341637129164"  fill="#9995" />
<circle r="0.003" cx="0.4066511109454675" cy="-0.5264474101505237"  fill="#9995" />
<circle r="0.003" cx="0.40713563229371375" cy="-0.5350035603318058"  fill="#9995" />
<circle r="0.003" cx="0.35193930395724665" cy="-0.5437365629291736"  fill="#9995" />
<circle r="0.003" cx="0.3049877354180852" cy="-0.5505016658620806"  fill="#9995" />
<circle r="0.003" cx="0.26272476721054616" cy="-0.5540290331451293"  fill="#9995" />
<circle r="0.003" cx="0.23371233975418437" cy="-0.5571826844921781"  fill="#9995" />
<circle r="0.003" cx="0.20899095539120896" cy="-0.5590826175346052"  fill="#9995" />
<circle r="0.003" cx="0.18209868356271103" cy="-0.5653605078746107"  fill="#9995" />
<circle r="0.003" cx="0.16233324023474607" cy="-0.5646812670044881"  fill="#9995" />
<circle r="0.003" cx="0.13844464367362294" cy="-0.566847882462156"  fill="#9995" />
<circle r="0.003" cx="0.11730074352730292" cy="-0.5661426836431426"  fill="#9995" />
<circle r="0.003" cx="0.10190211260970475" cy="-0.5602933569492498"  fill="#9995" />
<circle r="0.003" cx="0.09043279077865345" cy="-0.5492992436279698"  fill="#5B57" />
<circle r="0.003" cx="0.09272251130275713" cy="-0.5290870775322511"  fill="#5B57" />
<circle r="0.003" cx="0.0921323932985088" cy="-0.5091006167385266"  fill="#5B57" />
<circle r="0.003" cx="0.10165963033367872" cy="-0.48936839002103527"  fill="#5B57" />
<circle r="0.003" cx="0.1248795695655339" cy="-0.4779644725968357"  fill="#9995" />
<circle r="0.003" cx="0.11256536171788141" cy="-0.4571975972209994"  fill="#5B57" />
<circle r="0.003" cx="0.11970460581626974" cy="-0.44469676291106963"  fill="#5B57" />
<circle r="0.003" cx="0.12312360783194323" cy="-0.42975407578135894"  fill="#5B57" />
<circle r="0.003" cx="0.13267855749044302" cy="-0.421387420759172"  fill="#9995" />
<circle r="0.003" cx="0.13910565886918996" cy="-0.4089090579917604"  fill="#9995" />
<circle r="0.003" cx="0.1514719814142187" cy="-0.40462613095568467"  fill="#9995" />
<circle r="0.003" cx="0.16570455034824225" cy="-0.4034986072784903"  fill="#9995" />
<circle r="0.003" cx="0.17897877825234965" cy="-0.3973702623220714"  fill="#9995" />
<circle r="0.003" cx="0.1980410555213145" cy="-0.40616527044873346"  fill="#9995" />
<circle r="0.003" cx="0.21669509182581767" cy="-0.4116690894951139"  fill="#9995" />
<circle r="0.003" cx="0.23855611418224393" cy="-0.41153764749940835"  fill="#9995" />
<circle r="0.003" cx="0.2704257651528479" cy="-0.4072418772182914"  fill="#9995" />
<circle r="0.003" cx="0.3060173425274114" cy="-0.41597226556516287"  fill="#9995" />
<circle r="0.003" cx="0.34623154603689865" cy="-0.42917467026663103"  fill="#9995" />
<circle r="0.003" cx="0.3761585423089703" cy="-0.44894055190921184"  fill="#9995" />
<circle r="0.003" cx="0.34632891992208087" cy="-0.4753892371882889"  fill="#9995" />
<circle r="0.003" cx="0.3543087876340929" cy="-0.48974124872951386"  fill="#9995" />
<circle r="0.003" cx="0.36362806724591346" cy="-0.5027099225160905"  fill="#9995" />
<circle r="0.003" cx="0.3758519096398968" cy="-0.5149810038977566"  fill="#9995" />
<circle r="0.003" cx="0.37777586447232253" cy="-0.5261157074783709"  fill="#9995" />
<circle r="0.003" cx="0.38734037172636565" cy="-0.5357021941052965"  fill="#9995" />
<circle r="0.003" cx="0.3568432278453181" cy="-0.5436271344824333"  fill="#9995" />
<circle r="0.003" cx="0.307802898282975" cy="-0.5506958352109439"  fill="#5B57" />
<circle r="0.003" cx="0.2653125977930773" cy="-0.5551417008373809"  fill="#9995" />
<circle r="0.003" cx="0.23404473296782413" cy="-0.5579338270415323"  fill="#9995" />
<circle r="0.003" cx="0.2085551321918911" cy="-0.5601399896376116"  fill="#9995" />
<circle r="0.003" cx="0.1807085656163415" cy="-0.5664641605422366"  fill="#9995" />
<circle r="0.003" cx="0.1609269172372029" cy="-0.5656852544413082"  fill="#9995" />
<circle r="0.003" cx="0.13880716309484573" cy="-0.5666283931180179"  fill="#9995" />
<circle r="0.003" cx="0.11803074914510338" cy="-0.5657294211849847"  fill="#9995" />
<circle r="0.003" cx="0.10779607891430508" cy="-0.5570234436166922"  fill="#9995" />
<circle r="0.003" cx="0.09861189553551973" cy="-0.5452789652529908"  fill="#5B57" />
<circle r="0.003" cx="0.0997295795074279" cy="-0.5266761444221805"  fill="#5B57" />
<circle r="0.003" cx="0.10150692551993984" cy="-0.5078573723165027"  fill="#5B57" />
<circle r="0.003" cx="0.1097192242799815" cy="-0.4901740209777859"  fill="#5B57" />
<circle r="0.003" cx="0.13238021871305033" cy="-0.48004356593726344"  fill="#9995" />
<circle r="0.003" cx="0.1231985931651052" cy="-0.46305314005837084"  fill="#9995" />
<circle r="0.003" cx="0.12731495024142644" cy="-0.4505597340788738"  fill="#9995" />
<circle r="0.003" cx="0.13054159564126006" cy="-0.4372653234482996"  fill="#9995" />
<circle r="0.003" cx="0.14088224076097353" cy="-0.4314202222107614"  fill="#9995" />
<circle r="0.003" cx="0.1479126366916781" cy="-0.42205708411439347"  fill="#9995" />
<circle r="0.003" cx="0.16017557610930414" cy="-0.4202513516673661"  fill="#9995" />
<circle r="0.003" cx="0.17273141284576532" cy="-0.419377918870185"  fill="#9995" />
<circle r="0.003" cx="0.18534331498805126" cy="-0.41732950579195"  fill="#9995" />
<circle r="0.003" cx="0.20103825518323126" cy="-0.42489026914821054"  fill="#9995" />
<circle r="0.003" cx="0.2159317893982794" cy="-0.4307389756475084"  fill="#9995" />
<circle r="0.003" cx="0.23345642747668818" cy="-0.4293303241552344"  fill="#9995" />
<circle r="0.003" cx="0.2592480283484082" cy="-0.42506270611600117"  fill="#9995" />
<circle r="0.003" cx="0.2878710988686007" cy="-0.4310392231419935"  fill="#9995" />
<circle r="0.003" cx="0.323756309314306" cy="-0.4394288303065026"  fill="#9995" />
<circle r="0.003" cx="0.3498770495157269" cy="-0.4555453465137361"  fill="#9995" />
<circle r="0.003" cx="0.3183333708186979" cy="-0.4791019888693497"  fill="#9995" />
<circle r="0.003" cx="0.3244749339463291" cy="-0.491183903756999"  fill="#9995" />
<circle r="0.003" cx="0.33520520543771515" cy="-0.502492897263639"  fill="#9995" />
<circle r="0.003" cx="0.3448125067653193" cy="-0.513793288624501"  fill="#9995" />
<circle r="0.003" cx="0.34450561926459267" cy="-0.5243352410770412"  fill="#9995" />
<circle r="0.003" cx="0.35568083745020646" cy="-0.5352323972002451"  fill="#9995" />
<circle r="0.003" cx="0.35180769800421857" cy="-0.5437383388715066"  fill="#9995" />
<circle r="0.003" cx="0.30938349436353496" cy="-0.550773545644535"  fill="#5B57" />
<circle r="0.003" cx="0.26842019523107524" cy="-0.5561990762268174"  fill="#5B57" />
<circle r="0.003" cx="0.2344406733895943" cy="-0.5588285736416331"  fill="#9995" />
<circle r="0.003" cx="0.20796462586197792" cy="-0.5613786489464838"  fill="#9995" />
<circle r="0.003" cx="0.18089446287299688" cy="-0.5663220934347212"  fill="#9995" />
<circle r="0.003" cx="0.16035227091827958" cy="-0.5660830446148909"  fill="#9995" />
<circle r="0.003" cx="0.14073693818673635" cy="-0.5654361755082306"  fill="#9995" />
<circle r="0.003" cx="0.12134423776498995" cy="-0.5638165999939696"  fill="#9995" />
<circle r="0.003" cx="0.11406489228739052" cy="-0.553469393490313"  fill="#9995" />
<circle r="0.003" cx="0.10919935517168847" cy="-0.5401054129833585"  fill="#9995" />
<circle r="0.003" cx="0.10944024442682376" cy="-0.5234081764316916"  fill="#9995" />
<circle r="0.003" cx="0.11256454663415731" cy="-0.5063909177301419"  fill="#9995" />
<circle r="0.003" cx="0.12094421343596086" cy="-0.4911262903134183"  fill="#9995" />
<circle r="0.003" cx="0.14206160277084032" cy="-0.4825080258837825"  fill="#9995" />
<circle r="0.003" cx="0.13301035739922534" cy="-0.4679811582309762"  fill="#9995" />
<circle r="0.003" cx="0.13691359674433104" cy="-0.4574538963309838"  fill="#9995" />
<circle r="0.003" cx="0.14112174737000494" cy="-0.44729687245125976"  fill="#9995" />
<circle r="0.003" cx="0.15072308468783766" cy="-0.4427863751135866"  fill="#9995" />
<circle r="0.003" cx="0.15689418804559474" cy="-0.43487566463731797"  fill="#9995" />
<circle r="0.003" cx="0.1687834463289061" cy="-0.43526747776060787"  fill="#9995" />
<circle r="0.003" cx="0.1795041477570662" cy="-0.43468295266334717"  fill="#9995" />
<circle r="0.003" cx="0.19001555224018446" cy="-0.4327320218740885"  fill="#9995" />
<circle r="0.003" cx="0.20311558539104874" cy="-0.4408966544834737"  fill="#9995" />
<circle r="0.003" cx="0.21471212018111885" cy="-0.44551889266475364"  fill="#9995" />
<circle r="0.003" cx="0.22930052303479545" cy="-0.4418636315024664"  fill="#9995" />
<circle r="0.003" cx="0.24885454421520725" cy="-0.4404110233908408"  fill="#9995" />
<circle r="0.003" cx="0.27179844446372065" cy="-0.44403817801475315"  fill="#9995" />
<circle r="0.003" cx="0.3011129799219739" cy="-0.44980223973231265"  fill="#9995" />
<circle r="0.003" cx="0.319504088203734" cy="-0.4633109293810505"  fill="#9995" />
<circle r="0.003" cx="0.2967122221649138" cy="-0.4819693716706071"  fill="#9995" />
<circle r="0.003" cx="0.29725283303516514" cy="-0.4922887010694527"  fill="#9995" />
<circle r="0.003" cx="0.3046261742480251" cy="-0.5017185085148677"  fill="#9995" />
<circle r="0.003" cx="0.3120984058776217" cy="-0.5115040735320724"  fill="#9995" />
<circle r="0.003" cx="0.3121563652653092" cy="-0.5209272440015856"  fill="#9995" />
<circle r="0.003" cx="0.32468322919316184" cy="-0.5325174373713221"  fill="#9995" />
<circle r="0.003" cx="0.33343596151449895" cy="-0.5433396806503"  fill="#5B57" />
<circle r="0.003" cx="0.30914105604788117" cy="-0.5507630615587445"  fill="#5B57" />
<circle r="0.003" cx="0.2706275964429707" cy="-0.55676062890672"  fill="#B557" />
<circle r="0.003" cx="0.23465084363266356" cy="-0.5593035165878165"  fill="#9995" />
<circle r="0.003" cx="0.20777512022221672" cy="-0.5617370046850512"  fill="#9995" />
<circle r="0.003" cx="0.18105842526606847" cy="-0.5661954071948413"  fill="#9995" />
<circle r="0.003" cx="0.1598436722681504" cy="-0.5664292205890338"  fill="#9995" />
<circle r="0.003" cx="0.14244475126046854" cy="-0.5643471791008655"  fill="#9995" />
<circle r="0.003" cx="0.12515066717424048" cy="-0.5615443431276893"  fill="#9995" />
<circle r="0.003" cx="0.12162408096908219" cy="-0.5490840200730633"  fill="#9995" />
<circle r="0.003" cx="0.12318379686758937" cy="-0.5333184218750758"  fill="#9995" />
<circle r="0.003" cx="0.12067963649263608" cy="-0.519719038381375"  fill="#9995" />
<circle r="0.003" cx="0.12174131854129949" cy="-0.5051739001535575"  fill="#9995" />
<circle r="0.003" cx="0.13272860806363126" cy="-0.491941636966163"  fill="#9995" />
<circle r="0.003" cx="0.1509755864921136" cy="-0.48457938950532026"  fill="#9995" />
<circle r="0.003" cx="0.14478530617605814" cy="-0.4733616124669637"  fill="#9995" />
<circle r="0.003" cx="0.14974331000463303" cy="-0.4658753255374102"  fill="#9995" />
<circle r="0.003" cx="0.15211204010668075" cy="-0.45692659450973"  fill="#9995" />
<circle r="0.003" cx="0.16085283113796353" cy="-0.4537533209408827"  fill="#9995" />
<circle r="0.003" cx="0.16707805207011772" cy="-0.4486894687306801"  fill="#9995" />
<circle r="0.003" cx="0.17725964250113926" cy="-0.44960284503231657"  fill="#9995" />
<circle r="0.003" cx="0.18531107798180518" cy="-0.4478054599647728"  fill="#9995" />
<circle r="0.003" cx="0.193843816131043" cy="-0.4459792344716704"  fill="#9995" />
<circle r="0.003" cx="0.20448972385408618" cy="-0.4546081606229071"  fill="#9995" />
<circle r="0.003" cx="0.21354517078471652" cy="-0.45546844211303344"  fill="#9995" />
<circle r="0.003" cx="0.224801611209019" cy="-0.45396333770893244"  fill="#9995" />
<circle r="0.003" cx="0.24006623990572046" cy="-0.45257670985053283"  fill="#9995" />
<circle r="0.003" cx="0.25752525412420546" cy="-0.45531084558765"  fill="#9995" />
<circle r="0.003" cx="0.27850683279221633" cy="-0.4602041499770065"  fill="#9995" />
<circle r="0.003" cx="0.29378313790270516" cy="-0.47001134935092503"  fill="#9995" />
<circle r="0.003" cx="0.2727262327639708" cy="-0.4851503781277905"  fill="#9995" />
<circle r="0.003" cx="0.27419999610361273" cy="-0.49304270273245276"  fill="#9995" />
<circle r="0.003" cx="0.2768575262911835" cy="-0.500450869198746"  fill="#9995" />
<circle r="0.003" cx="0.28435656828486594" cy="-0.5085910589728959"  fill="#9995" />
<circle r="0.003" cx="0.28265960621022496" cy="-0.5161366042993608"  fill="#9995" />
<circle r="0.003" cx="0.29285659319989393" cy="-0.5269877057317401"  fill="#5B57" />
<circle r="0.003" cx="0.3108362625809979" cy="-0.5408755221151247"  fill="#5B57" />
<circle r="0.003" cx="0.3002952636436476" cy="-0.550013693282543"  fill="#5B57" />
<circle r="0.003" cx="0.27214627182303797" cy="-0.5570550846913794"  fill="#B557" />
<circle r="0.003" cx="0.23492250812052867" cy="-0.5599174242959477"  fill="#5B57" />
<circle r="0.003" cx="0.20725020771385183" cy="-0.5626465750267444"  fill="#9995" />
<circle r="0.003" cx="0.18203468580407764" cy="-0.5654134650417976"  fill="#9995" />
<circle r="0.003" cx="0.16057052949457118" cy="-0.5659327959963365"  fill="#9995" />
<circle r="0.003" cx="0.14540548466092346" cy="-0.5623821196170447"  fill="#9995" />
<circle r="0.003" cx="0.13512089073091654" cy="-0.5552130257339616"  fill="#9995" />
<circle r="0.003" cx="0.13314203843570532" cy="-0.5422032376550517"  fill="#9995" />
<circle r="0.003" cx="0.1374212920432246" cy="-0.5264561815539247"  fill="#9995" />
<circle r="0.003" cx="0.1334448481652494" cy="-0.5156344060041733"  fill="#9995" />
<circle r="0.003" cx="0.13618567681230717" cy="-0.503258298667961"  fill="#9995" />
<circle r="0.003" cx="0.14638225120267861" cy="-0.49268396437793827"  fill="#9995" />
<circle r="0.003" cx="0.1605847497921831" cy="-0.4866203593043736"  fill="#9995" />
<circle r="0.003" cx="0.15849519630228862" cy="-0.47897698066917493"  fill="#9995" />
<circle r="0.003" cx="0.16039262598965956" cy="-0.4722400382192014"  fill="#9995" />
<circle r="0.003" cx="0.16349854985187484" cy="-0.46611446846453514"  fill="#9995" />
<circle r="0.003" cx="0.17124392249498738" cy="-0.4642586331918225"  fill="#9995" />
<circle r="0.003" cx="0.17625499378404896" cy="-0.4604772996589494"  fill="#9995" />
<circle r="0.003" cx="0.18390047422509123" cy="-0.46050050769087986"  fill="#9995" />
<circle r="0.003" cx="0.1909243773200763" cy="-0.4604903999762329"  fill="#9995" />
<circle r="0.003" cx="0.19810001704958582" cy="-0.4616102903161066"  fill="#9995" />
<circle r="0.003" cx="0.20516869308050098" cy="-0.46371668050388043"  fill="#9995" />
<circle r="0.003" cx="0.21207625900484076" cy="-0.4653764426848104"  fill="#9995" />
<circle r="0.003" cx="0.2204756136014384" cy="-0.4644556787140334"  fill="#9995" />
<circle r="0.003" cx="0.2311989949376096" cy="-0.46416732419358175"  fill="#9995" />
<circle r="0.003" cx="0.24480995577293416" cy="-0.46513830237829207"  fill="#9995" />
<circle r="0.003" cx="0.2588885649369061" cy="-0.4692708192128561"  fill="#9995" />
<circle r="0.003" cx="0.26687809877977087" cy="-0.47715816353177515"  fill="#9995" />
<circle r="0.003" cx="0.2522283958586373" cy="-0.48786878804885847"  fill="#9995" />
<circle r="0.003" cx="0.254486340750432" cy="-0.49353664181917506"  fill="#9995" />
<circle r="0.003" cx="0.25502103560444755" cy="-0.4990156856635031"  fill="#9995" />
<circle r="0.003" cx="0.25892831690975476" cy="-0.5050083434298468"  fill="#9995" />
<circle r="0.003" cx="0.2588833914810654" cy="-0.5109274376396812"  fill="#9995" />
<circle r="0.003" cx="0.26783472015817156" cy="-0.520408861818199"  fill="#5B57" />
<circle r="0.003" cx="0.28329625302023176" cy="-0.5345129271527251"  fill="#5B57" />
<circle r="0.003" cx="0.27944534642743923" cy="-0.5451964616074334"  fill="#5B57" />
<circle r="0.003" cx="0.26979609216755207" cy="-0.5565677039323292"  fill="#5B57" />
<circle r="0.003" cx="0.2351455859385801" cy="-0.5604215357942562"  fill="#5B57" />
<circle r="0.003" cx="0.20710722971975187" cy="-0.5628753380013174"  fill="#9995" />
<circle r="0.003" cx="0.1821207317988191" cy="-0.5653422137439736"  fill="#9995" />
<circle r="0.003" cx="0.16288817444107578" cy="-0.5642729077618681"  fill="#9995" />
<circle r="0.003" cx="0.15215561668401992" cy="-0.5575216084412187"  fill="#9995" />
<circle r="0.003" cx="0.14822830801816061" cy="-0.5460504516534717"  fill="#9995" />
<circle r="0.003" cx="0.1493197426476981" cy="-0.5321591868103621"  fill="#9995" />
<circle r="0.003" cx="0.15085147734977583" cy="-0.5200217625566785"  fill="#9995" />
<circle r="0.003" cx="0.14999524911994302" cy="-0.5104816252904828"  fill="#9995" />
<circle r="0.003" cx="0.15118104679955988" cy="-0.5012696223636419"  fill="#9995" />
<circle r="0.003" cx="0.16063177327368747" cy="-0.49325984586835736"  fill="#9995" />
<circle r="0.003" cx="0.17363215651566366" cy="-0.4891048316800602"  fill="#9995" />
<circle r="0.003" cx="0.17141514177931466" cy="-0.4837036295232913"  fill="#9995" />
<circle r="0.003" cx="0.1741932227204278" cy="-0.4797257780105595"  fill="#9995" />
<circle r="0.003" cx="0.17526426351835314" cy="-0.47482247092061663"  fill="#9995" />
<circle r="0.003" cx="0.1818663363192506" cy="-0.47424364262654417"  fill="#9995" />
<circle r="0.003" cx="0.18549799350266985" cy="-0.4717096102589488"  fill="#9995" />
<circle r="0.003" cx="0.19056073128756418" cy="-0.4711147138304901"  fill="#9995" />
<circle r="0.003" cx="0.1951847027880736" cy="-0.4701178881492558"  fill="#9995" />
<circle r="0.003" cx="0.20085317585708723" cy="-0.4724263977052128"  fill="#9995" />
<circle r="0.003" cx="0.20564039591987837" cy="-0.4728860747656779"  fill="#9995" />
<circle r="0.003" cx="0.21029401854443155" cy="-0.47515690649421133"  fill="#9995" />
<circle r="0.003" cx="0.2163524679499592" cy="-0.47359829167469597"  fill="#9995" />
<circle r="0.003" cx="0.2245807734818478" cy="-0.4724019373792996"  fill="#9995" />
<circle r="0.003" cx="0.23344326561246811" cy="-0.4737510864442468"  fill="#9995" />
<circle r="0.003" cx="0.24047913945329222" cy="-0.47781484963646775"  fill="#9995" />
<circle r="0.003" cx="0.24835183010308665" cy="-0.48217141261837604"  fill="#9995" />
<circle r="0.003" cx="0.2330651830775956" cy="-0.49041020097862814"  fill="#9995" />
<circle r="0.003" cx="0.23277794837381166" cy="-0.4938967498397522"  fill="#9995" />
<circle r="0.003" cx="0.23465973427760564" cy="-0.4972766882713031"  fill="#9995" />
<circle r="0.003" cx="0.23711125378908993" cy="-0.5011313468579575"  fill="#9995" />
<circle r="0.003" cx="0.23680273631256604" cy="-0.5048620676909472"  fill="#9995" />
<circle r="0.003" cx="0.24447804947292678" cy="-0.5122813108539614"  fill="#5B57" />
<circle r="0.003" cx="0.25594874090607433" cy="-0.5241882604671095"  fill="#5B57" />
<circle r="0.003" cx="0.25678602323907185" cy="-0.5349221857585633"  fill="#5B57" />
<circle r="0.003" cx="0.2543746175630078" cy="-0.5491115057679639"  fill="#5B57" />
<circle r="0.003" cx="0.23510479664905873" cy="-0.5603293601129843"  fill="#5B57" />
<circle r="0.003" cx="0.20697685261103504" cy="-0.5630774998299907"  fill="#9995" />
<circle r="0.003" cx="0.18546918884424868" cy="-0.5622439151487689"  fill="#9995" />
<circle r="0.003" cx="0.17165877861734857" cy="-0.5568039021453044"  fill="#9995" />
<circle r="0.003" cx="0.1678560947710767" cy="-0.5439708776688453"  fill="#9995" />
<circle r="0.003" cx="0.16411432363558184" cy="-0.5336510840523604"  fill="#9995" />
<circle r="0.003" cx="0.16449314483742705" cy="-0.5223625115320538"  fill="#9995" />
<circle r="0.003" cx="0.16865216928183321" cy="-0.5115446544841405"  fill="#9995" />
<circle r="0.003" cx="0.16928823482993222" cy="-0.5046479865767345"  fill="#9995" />
<circle r="0.003" cx="0.16795508098494605" cy="-0.49904506075958194"  fill="#9995" />
<circle r="0.003" cx="0.1741849804296501" cy="-0.4936448072216555"  fill="#9995" />
<circle r="0.003" cx="0.18593098227031948" cy="-0.4911758646671117"  fill="#9995" />
<circle r="0.003" cx="0.18626792374001347" cy="-0.4885383682414858"  fill="#9995" />
<circle r="0.003" cx="0.1858672447978631" cy="-0.48544508196779296"  fill="#9995" />
<circle r="0.003" cx="0.18738945066978954" cy="-0.483015536357983"  fill="#9995" />
<circle r="0.003" cx="0.19268815682798848" cy="-0.48365470371736624"  fill="#9995" />
<circle r="0.003" cx="0.19384902555204048" cy="-0.48129608527732054"  fill="#9995" />
<circle r="0.003" cx="0.19646559566628907" cy="-0.48024228156676374"  fill="#9995" />
<circle r="0.003" cx="0.19939064893013617" cy="-0.4796224898617897"  fill="#9995" />
<circle r="0.003" cx="0.20308443208943439" cy="-0.48177208100093144"  fill="#9995" />
<circle r="0.003" cx="0.20585848015634864" cy="-0.480876859519137"  fill="#9995" />
<circle r="0.003" cx="0.20893416225776534" cy="-0.48154117231578253"  fill="#9995" />
<circle r="0.003" cx="0.21294088712166728" cy="-0.4806210176445303"  fill="#9995" />
<circle r="0.003" cx="0.21777536881421167" cy="-0.48051995195788894"  fill="#9995" />
<circle r="0.003" cx="0.22324558865478283" cy="-0.4813383067693395"  fill="#9995" />
<circle r="0.003" cx="0.22671479767521552" cy="-0.4842274881746268"  fill="#9995" />
<circle r="0.003" cx="0.22817276696861488" cy="-0.48772803558090033"  fill="#9995" />
<circle r="0.003" cx="0.21647601497251426" cy="-0.49261024576225043"  fill="#9995" />
<circle r="0.003" cx="0.21553781406508998" cy="-0.49402624338743545"  fill="#9995" />
<circle r="0.003" cx="0.2185244661448411" cy="-0.49558642377777135"  fill="#9995" />
<circle r="0.003" cx="0.21967826546718824" cy="-0.4974246306955807"  fill="#9995" />
<circle r="0.003" cx="0.2189451438054195" cy="-0.4989851077245479"  fill="#9995" />
<circle r="0.003" cx="0.2239110038475532" cy="-0.5033751238793072"  fill="#5B57" />
<circle r="0.003" cx="0.23006968308451542" cy="-0.5105062676596142"  fill="#5B57" />
<circle r="0.003" cx="0.23488134171118938" cy="-0.5202126805425191"  fill="#5B57" />
<circle r="0.003" cx="0.23514686267590248" cy="-0.5316338485009965"  fill="#5B57" />
<circle r="0.003" cx="0.23224132610377074" cy="-0.5538584862289009"  fill="#5B57" />
<circle r="0.003" cx="0.20747800840571157" cy="-0.5622659132868207"  fill="#9995" />
<circle r="0.003" cx="0.19085324953164973" cy="-0.5555818053800641"  fill="#9995" />
<circle r="0.003" cx="0.1884122003728485" cy="-0.5354325717557359"  fill="#9995" />
<circle r="0.003" cx="0.18686459621000348" cy="-0.522559603195092"  fill="#9995" />
<circle r="0.003" cx="0.18381026591292474" cy="-0.5162466311214693"  fill="#9995" />
<circle r="0.003" cx="0.18758484759235128" cy="-0.5068028569422168"  fill="#9995" />
<circle r="0.003" cx="0.18975797790476134" cy="-0.5015604032939464"  fill="#9995" />
<circle r="0.003" cx="0.1878977787457995" cy="-0.49917072579264016"  fill="#9995" />
<circle r="0.003" cx="0.18531389119605532" cy="-0.49674294653583484"  fill="#9995" />
<circle r="0.003" cx="0.18835395675199004" cy="-0.4938991796689238"  fill="#9995" />
<circle r="0.003" cx="0.1961635389631378" cy="-0.49271871046953825"  fill="#9995" />
<circle r="0.003" cx="0.20034691194368545" cy="-0.4925942340142759"  fill="#9995" />
<circle r="0.003" cx="0.1980582160054852" cy="-0.4908696363161653"  fill="#9995" />
<circle r="0.003" cx="0.19750615633506388" cy="-0.48928069621465015"  fill="#9995" />
<circle r="0.003" cx="0.20159071847402119" cy="-0.4908345999107462"  fill="#9995" />
<circle r="0.003" cx="0.20227907339144188" cy="-0.49042100809772887"  fill="#9995" />
<circle r="0.003" cx="0.2017174066885867" cy="-0.48812078714732265"  fill="#9995" />
<circle r="0.003" cx="0.20303018562728498" cy="-0.4878471188884434"  fill="#9995" />
<circle r="0.003" cx="0.2048922909538438" cy="-0.4898787607013702"  fill="#9995" />
<circle r="0.003" cx="0.20587444520250656" cy="-0.48891443591453904"  fill="#9995" />
<circle r="0.003" cx="0.2070868078277691" cy="-0.4891604135727409"  fill="#9995" />
<circle r="0.003" cx="0.20875697375748106" cy="-0.4886477841875506"  fill="#9995" />
<circle r="0.003" cx="0.21152129743310202" cy="-0.4876821970952255"  fill="#9995" />
<circle r="0.003" cx="0.21406355732517937" cy="-0.4880554007727749"  fill="#9995" />
<circle r="0.003" cx="0.21013061775902694" cy="-0.49198373091963526"  fill="#9995" />
<circle r="0.003" cx="0.213162329859184" cy="-0.49193361673110414"  fill="#9995" />
convert-pointer.js:100:9
0
</g>


  <!-- sRGB  -->
  <polygon fill="none" stroke="#BBD" stroke-dasharray="0.004 0.001" stroke-width="0.003" points="0.45070, -0.522887 0.125, -0.5625 0.17544, -0.15789"/>
  <!-- display-p3 -->
  <polygon fill="none" stroke="#BDB" stroke-dasharray="0.005 0.001 0.003 0.001" stroke-width="0.003" points="0.4963503649635036, -0.5255474452554744
  0.0986046511627907, -0.5776744186046512
  0.17543859649122806, -0.15789473684210525"/>
  <!-- rec2020 -->
  <polygon fill="none" stroke="#DBB" stroke-dasharray="0.006 0.003" stroke-width="0.003" points="0.5566037735849056, -0.5165094339622641
   0.0556282722513089, -0.5867964659685865
   0.15927051671732523, -0.12583586626139814"/>

<!-- sRGB  -->
<!-- blank out underlying dashed lines -->
    <circle r="0.0075" cx="0.45070" cy="-0.522887" fill="white" />
    <circle r="0.0075" cx="0.12500" cy="-0.56250" fill="white"  />
    <circle r="0.0075" cx="0.17544" cy="-0.15789" fill="white"  />
    <circle r="0.0075" cx="0.20394" cy="-0.552899" fill="white" />
    <circle r="0.0075" cx="0.13834" cy="-0.45550" fill="white"  />
    <circle r="0.0075" cx="0.30504" cy="-0.32975" fill="white"  />
  <circle r="0.006" cx="0.45070" cy="-0.522887" fill="red" fill-opacity="0.4"/>
  <circle r="0.006" cx="0.12500" cy="-0.56250" fill="green"  fill-opacity="0.4"/>
  <circle r="0.006" cx="0.17544" cy="-0.15789" fill="blue"  fill-opacity="0.4"/>
  <circle r="0.006" cx="0.20394" cy="-0.552899" fill="yellow" fill-opacity="0.4"/>
  <circle r="0.006" cx="0.13834" cy="-0.45550" fill="cyan"  fill-opacity="0.4"/>
  <circle r="0.006" cx="0.30504" cy="-0.32975" fill="magenta"  fill-opacity="0.4"/>
  <!-- D65 = 0.19783000664283676,0.468319994938791 -->
  <circle r="0.006" cx="0.19783000664283676" cy="-0.468319994938791" fill="white" stroke="#777" stroke-width="0.002"/>

  <!-- display-p3 -->
  <g stroke="white" stroke-width="0.0015">
    <!-- 0.4963503649635036,0.5255474452554744 -->
    <circle r="0.007" cx="0.4963503649635036" cy="-0.5255474452554744" fill="red" />
    <!-- 0.0986046511627907,0.5776744186046512 -->
    <circle r="0.007" cx="0.0986046511627907" cy="-0.5776744186046512" fill="green" />
    <!-- 0.17543859649122806,0.15789473684210525 -->
    <circle r="0.007" cx="0.17543859649122806" cy="-0.15789473684210525" fill="blue" />
    <!-- 0.2047148084869415,0.5637680428701176 -->
    <circle r="0.007" cx="0.2047148084869415" cy="-0.5637680428701176" fill="yellow" />
    <!-- 0.12130534565938887,0.45364993605547993 -->
    <circle r="0.007" cx="0.12130534565938887" cy="-0.45364993605547993" fill="cyan" />
    <!-- 0.3245232882573508,0.3286936794041716 -->
    <circle r="0.007" cx="0.3245232882573508" cy="-0.3286936794041716" fill="magenta" />
  </g>

<!-- rec2020 -->
  <g stroke="white" stroke-width="0.002">
    <!-- 0.5566037735849056,0.5165094339622641 -->
    <circle r="0.008" cx="0.5566037735849056" cy="-0.5165094339622641" fill="red" />
    <!-- 0.0556282722513089,0.5867964659685865 -->
    <circle r="0.008" cx="0.0556282722513089" cy="-0.5867964659685865" fill="green" />
    <!-- 0.15927051671732523,0.12583586626139814 -->
    <circle r="0.008" cx="0.15927051671732523" cy="-0.12583586626139814" fill="blue" />
    <!-- 0.2087502678917031,0.5653133982740614 -->
    <circle r="0.008" cx="0.2087502678917031" cy="-0.5653133982740614" fill="yellow" />
    <!-- 0.08565417549924849,0.45325286664544995 -->
    <circle r="0.008" cx="0.08565417549924849" cy="-0.45325286664544995" fill="cyan" />
    <!-- 0.3655086453834581,0.3286172446870168 -->
    <circle r="0.008" cx="0.3655086453834581" cy="-0.3286172446870168" fill="magenta" />
  </g>

  <g font-family="sans-serif" font-size="0.016pt" fill="#444">
    <text x="0.5" y="-0.2">Rec BT.2020</text>
    <text x="0.5" y="-0.17">Display P3</text>
    <text x="0.5" y="-0.14">sRGB / BT.709</text>
    <polyline stroke="#DBB" stroke-width="0.003" stroke-dasharray="0.006 0.003" fill="none" points="0.43,-0.207 0.48,-0.207"/>
    <polyline stroke="#BDB" stroke-width="0.003" stroke-dasharray="0.005 0.001 0.003 0.001" fill="none" points="0.43,-0.177 0.48,-0.177"/>
    <polyline stroke="#BBD" stroke-width="0.003" stroke-dasharray="0.004 0.001" fill="none" points="0.43,-0.147 0.48,-0.147"/>
  </g>

  </svg>