<svg xmlns="http://www.w3.org/2000/svg" viewBox="-5 -65 75 65">
<desc>Show u*,v* UCS diagram
with fake colors on spectral locus
</desc>

<!-- tongue -->

<polygon fill="none" stroke="#DDD" stroke-width="0.3" points="
25.69,-1.6500000000000001
25.679999999999996,-1.6500000000000001
25.679999999999996,-1.6500000000000001
25.679999999999996,-1.6500000000000001
25.669999999999998,-1.6500000000000001
25.669999999999998,-1.6500000000000001
25.66,-1.6500000000000001
25.66,-1.6400000000000001
25.650000000000002,-1.6400000000000001
25.650000000000002,-1.63
25.64,-1.63
25.629999999999995,-1.63
25.619999999999997,-1.6400000000000001
25.61,-1.6400000000000001
25.61,-1.6400000000000001
25.6,-1.63
25.590000000000003,-1.63
25.590000000000003,-1.6099999999999999
25.590000000000003,-1.6099999999999999
25.580000000000002,-1.6
25.580000000000002,-1.59
25.569999999999997,-1.59
25.56,-1.59
25.55,-1.59
25.540000000000003,-1.58
25.53,-1.59
25.509999999999998,-1.59
25.490000000000002,-1.59
25.480000000000004,-1.59
25.46,-1.59
25.45,-1.59
25.44,-1.59
25.419999999999998,-1.59
25.4,-1.59
25.380000000000003,-1.6
25.369999999999997,-1.6
25.34,-1.6099999999999999
25.319999999999997,-1.6199999999999999
25.290000000000003,-1.6400000000000001
25.259999999999998,-1.66
25.22,-1.69
25.180000000000003,-1.72
25.130000000000003,-1.76
25.080000000000002,-1.81
25.019999999999996,-1.8599999999999999
24.959999999999997,-1.91
24.9,-1.97
24.83,-2.03
24.759999999999998,-2.1
24.69,-2.18
24.610000000000003,-2.26
24.52,-2.35
24.43,-2.45
24.33,-2.55
24.22,-2.6599999999999997
24.11,-2.78
24,-2.91
23.87,-3.04
23.75,-3.19
23.61,-3.3300000000000005
23.47,-3.49
23.330000000000002,-3.65
23.18,-3.81
23.01,-3.9899999999999998
22.84,-4.17
22.67,-4.37
22.470000000000002,-4.569999999999999
22.27,-4.79
22.06,-5.01
21.84,-5.25
21.61,-5.5
21.37,-5.75
21.13,-6.02
20.87,-6.29
20.61,-6.58
20.330000000000002,-6.890000000000001
20.04,-7.21
19.74,-7.5600000000000005
19.42,-7.920000000000001
19.1,-8.309999999999999
18.77,-8.709999999999999
18.42,-9.139999999999999
18.07,-9.59
17.7,-10.08
17.31,-10.6
16.900000000000002,-11.19
16.46,-11.84
15.98,-12.559999999999999
15.479999999999999,-13.34
14.95,-14.19
14.41,-15.1
13.850000000000001,-16.06
13.28,-17.07
12.690000000000001,-18.14
12.08,-19.259999999999998
11.469999999999999,-20.44
10.84,-21.69
10.2,-22.98
9.56,-24.32
8.92,-25.69
8.28,-27.08
7.64,-28.499999999999996
7.01,-29.93
6.39,-31.369999999999997
5.79,-32.82
5.21,-34.27
4.67,-35.709999999999994
4.16,-37.12
3.6799999999999997,-38.5
3.2300000000000004,-39.85
2.82,-41.17
2.4299999999999997,-42.44
2.07,-43.66
1.7399999999999998,-44.83
1.4500000000000002,-45.94
1.1900000000000002,-46.98
0.96,-47.97
0.76,-48.89
0.6,-49.75
0.45999999999999996,-50.55
0.35000000000000003,-51.31
0.26,-52.01
0.19,-52.65
0.15,-53.25
0.13999999999999999,-53.54
0.13999999999999999,-54.32
0.16999999999999998,-54.800000000000004
0.21,-55.24
0.27999999999999997,-55.65
0.36,-56.03
0.45999999999999996,-56.379999999999995
0.58,-56.699999999999996
0.72,-56.989999999999995
0.88,-57.26
1.04,-57.489999999999995
1.23,-57.699999999999996
1.4200000000000002,-57.879999999999995
1.63,-58.03
1.8499999999999999,-58.160000000000004
2.08,-58.269999999999996
2.31,-58.37
2.56,-58.440000000000005
2.81,-58.5
3.06,-58.550000000000004
3.3300000000000005,-58.58
3.5999999999999996,-58.60999999999999
3.88,-58.64
4.16,-58.650000000000006
4.44,-58.660000000000004
4.72,-58.67
5.01,-58.67
5.29,-58.68
5.57,-58.67
5.86,-58.67
6.140000000000001,-58.660000000000004
6.43,-58.650000000000006
6.72,-58.64
7.02,-58.620000000000005
7.32,-58.60999999999999
7.62,-58.589999999999996
7.920000000000001,-58.56
8.23,-58.540000000000006
8.55,-58.51
8.870000000000001,-58.48
9.19,-58.45
9.53,-58.41
9.86,-58.37
10.2,-58.34
10.549999999999999,-58.29
10.91,-58.25
11.27,-58.209999999999994
11.64,-58.160000000000004
12.02,-58.10999999999999
12.4,-58.06
12.790000000000001,-58.01
13.19,-57.95
13.600000000000001,-57.9
14.01,-57.84
14.44,-57.78
14.87,-57.720000000000006
15.310000000000002,-57.66
15.76,-57.589999999999996
16.220000000000002,-57.53
16.689999999999998,-57.46
17.169999999999998,-57.38999999999999
17.66,-57.32000000000001
18.16,-57.25
18.67,-57.17
19.189999999999998,-57.089999999999996
19.72,-57.02
20.26,-56.940000000000005
20.810000000000002,-56.85
21.37,-56.769999999999996
21.94,-56.69
22.52,-56.599999999999994
23.119999999999997,-56.510000000000005
23.72,-56.42
24.33,-56.330000000000005
24.959999999999997,-56.230000000000004
25.590000000000003,-56.14
26.229999999999997,-56.04
26.889999999999997,-55.95
27.55,-55.85
28.22,-55.75
28.9,-55.64
29.59,-55.54
30.29,-55.44
30.990000000000002,-55.33
31.71,-55.230000000000004
32.42,-55.120000000000005
33.15,-55.010000000000005
33.879999999999995,-54.900000000000006
34.61,-54.790000000000006
35.35,-54.67999999999999
36.08,-54.56999999999999
36.809999999999995,-54.459999999999994
37.53,-54.36
38.24,-54.25
38.95,-54.14
39.65,-54.04
40.35,-53.93
41.05,-53.83
41.75,-53.72
42.449999999999996,-53.620000000000005
43.13,-53.52
43.8,-53.42
44.45,-53.32
45.09,-53.23
45.71,-53.13
46.32,-53.04
46.910000000000004,-52.959999999999994
47.49,-52.87
48.06,-52.78
48.61,-52.7
49.15,-52.62
49.669999999999995,-52.54
50.17,-52.470000000000006
50.660000000000004,-52.400000000000006
51.129999999999995,-52.33
51.580000000000005,-52.26
52.019999999999996,-52.190000000000005
52.44,-52.129999999999995
52.849999999999994,-52.07000000000001
53.25,-52.01
53.63,-51.949999999999996
53.99,-51.9
54.35,-51.849999999999994
54.690000000000005,-51.790000000000006
55.02,-51.74999999999999
55.34,-51.7
55.65,-51.65
55.95,-51.61
56.25,-51.559999999999995
56.54,-51.519999999999996
56.82000000000001,-51.480000000000004
57.089999999999996,-51.44
57.35,-51.4
57.599999999999994,-51.35999999999999
57.84,-51.32
58.08,-51.29
58.3,-51.24999999999999
58.52,-51.22
58.730000000000004,-51.190000000000005
58.93000000000001,-51.160000000000004
59.12,-51.129999999999995
59.3,-51.1
59.47,-51.080000000000005
59.62,-51.06
59.77,-51.03
59.91,-51.01
60.050000000000004,-50.99
60.18,-50.970000000000006
60.3,-50.949999999999996
60.419999999999995,-50.94
60.529999999999994,-50.92
60.64000000000001,-50.9
60.74,-50.89
60.68,-50.94
60.919999999999995,-50.86000000000001
61,-50.849999999999994
61.08,-50.839999999999996
61,-50.89
61.21,-50.82
61.27,-50.81
61.31999999999999,-50.8
61.22,-50.849999999999994
61.42999999999999,-50.79
61.480000000000004,-50.78
61.519999999999996,-50.77
61.57,-50.760000000000005
61.61,-50.760000000000005
61.660000000000004,-50.74999999999999
61.7,-50.74999999999999
61.73,-50.739999999999995
61.77,-50.73
61.809999999999995,-50.73
61.85000000000001,-50.72
61.88,-50.72
61.919999999999995,-50.71
61.96,-50.71
62,-50.7
62.029999999999994,-50.7
62.06,-50.690000000000005
62.1,-50.690000000000005
62.129999999999995,-50.68
62.160000000000004,-50.68
62.19,-50.67
62.21,-50.67
62.23,-50.67
62.239999999999995,-50.660000000000004
62.260000000000005,-50.660000000000004
62.27,-50.660000000000004
62.28,-50.660000000000004
62.29,-50.660000000000004
62.3,-50.64999999999999
62.31,-50.64999999999999
62.32,-50.64999999999999
62.33,-50.64999999999999
62.33,-50.64999999999999
62.339999999999996,-50.64999999999999
"/>

  <!-- sRGB  -->
  <polygon fill="none" stroke="#BBD" stroke-dasharray="0.4 0.1" stroke-width="0.3" points="45.070, -52.2887 12.5, -56.25 17.544, -15.789"/>
  <!-- display-p3 -->
  <polygon fill="none" stroke="#BDB" stroke-dasharray="0.5 0.1 0.3 0.1" stroke-width="0.3" points="49.63503649635036, -52.55474452554744
  09.86046511627907, -57.76744186046512
  17.543859649122806, -15.789473684210525"/>
  <!-- rec2020 -->
  <polygon fill="none" stroke="#DBB" stroke-dasharray="0.6 0.3" stroke-width="0.3" points="55.66037735849056, -51.65094339622641
   05.56282722513089, -58.67964659685865
   15.927051671732523, -12.583586626139814"/>

<!-- sRGB  -->
<!-- blank out underlying dashed lines -->
    <circle r="0.75" cx="45.070" cy="-52.2887" fill="white" />
    <circle r="0.75" cx="12.500" cy="-56.250" fill="white"  />
    <circle r="0.75" cx="17.544" cy="-15.789" fill="white"  />
    <circle r="0.75" cx="20.394" cy="-55.2899" fill="white" />
    <circle r="0.75" cx="13.834" cy="-45.550" fill="white"  />
    <circle r="0.75" cx="30.504" cy="-32.975" fill="white"  />
  <!-- 0.4507042253521127,0.5228873239436619 -->
  <circle r="0.6" cx="45.070" cy="-52.2887" fill="red" fill-opacity="0.4"/>
  <circle r="0.6" cx="12.500" cy="-56.250" fill="green"  fill-opacity="0.4"/>
  <circle r="0.6" cx="17.544" cy="-15.789" fill="blue"  fill-opacity="0.4"/>
  <circle r="0.6" cx="20.394" cy="-55.2899" fill="yellow" fill-opacity="0.4"/>
  <circle r="0.6" cx="13.834" cy="-45.550" fill="cyan"  fill-opacity="0.4"/>
  <circle r="0.6" cx="30.504" cy="-32.975" fill="magenta"  fill-opacity="0.4"/>
  <!-- 0.19783000664283676,0.468319994938791 -->
  <circle r="0.6" cx="19.783000664283676" cy="-46.8319994938791" fill="white" stroke="#777" stroke-width="0.2"/>

  <!-- display-p3 -->
  <g stroke="white" stroke-width="0.15">
    <!-- 0.4963503649635036,0.5255474452554744 -->
    <circle r="0.7" cx="49.63503649635036" cy="-52.55474452554744" fill="red" fill-opacity="0.7"/>
    <!-- 0.0986046511627907,0.5776744186046512 -->
    <circle r="0.7" cx="09.86046511627907" cy="-57.76744186046512" fill="green"  fill-opacity="0.7"/>
    <!-- 0.17543859649122806,0.15789473684210525 -->
    <circle r="0.7" cx="17.543859649122806" cy="-15.789473684210525" fill="blue"  fill-opacity="0.7"/>
    <!-- 0.2047148084869415,0.5637680428701176 -->
    <circle r="0.7" cx="20.47148084869415" cy="-56.37680428701176" fill="yellow"  fill-opacity="0.7"/>
    <!-- 0.12130534565938887,0.45364993605547993 -->
    <circle r="0.7" cx="12.130534565938887" cy="-45.364993605547993" fill="cyan"  fill-opacity="0.7"/>
    <!-- 0.3245232882573508,0.3286936794041716 -->
    <circle r="0.7" cx="32.45232882573508" cy="-32.86936794041716" fill="magenta"  fill-opacity="0.7"/>
  </g>

<!-- rec2020 -->
  <g stroke="white" stroke-width="0.002">
    <!-- 0.5566037735849056,0.5165094339622641 -->
    <circle r="0.8" cx="55.66037735849056" cy="-51.65094339622641" fill="red" />
    <!-- 0.0556282722513089,0.5867964659685865 -->
    <circle r="0.8" cx="05.56282722513089" cy="-58.67964659685865" fill="green" />
    <!-- 0.15927051671732523,0.12583586626139814 -->
    <circle r="0.8" cx="15.927051671732523" cy="-12.583586626139814" fill="blue" />
    <!-- 0.2087502678917031,0.5653133982740614 -->
    <circle r="0.8" cx="20.87502678917031" cy="-56.53133982740614" fill="yellow" />
    <!-- 0.08565417549924849,0.45325286664544995 -->
    <circle r="0.8" cx="08.565417549924849" cy="-45.325286664544995" fill="cyan" />
    <!-- 0.3655086453834581,0.3286172446870168 -->
    <circle r="0.8" cx="36.55086453834581" cy="-32.86172446870168" fill="magenta" />
  </g>

    <g font-family="sans-serif" font-size="1.6pt" fill="#444">
      <text x="50" y="-20">Rec BT.2020</text>
      <text x="50" y="-17">Display P3</text>
      <text x="50" y="-14">sRGB / BT.709</text>
      <polyline stroke="#DBB" stroke-width="0.3" stroke-dasharray="0.6 0.3" fill="none" points="43,-20.7 48,-20.7"/>
      <polyline stroke="#BDB" stroke-width="0.3" stroke-dasharray="0.5 0.1 0.3 0.1" fill="none" points="43,-17.7 48,-17.7"/>
      <polyline stroke="#BBD" stroke-width="0.3" stroke-dasharray="0.4 0.1" fill="none" points="43,-14.7 48,-14.7"/>
  </g>

  </svg>